<svg width="80" height="80" viewBox="0 0 80 80" fill="none" xmlns="http://www.w3.org/2000/svg">
<g clip-path="url(#clip0_1_581)">
<path d="M67.9 80.6H73.4C75.6 80.6 77.5 78.8 77.5 76.5V50.2999C77.5 49.0999 77 48 76.1 47.2999V44.7999C76.1 42.5999 74.3 40.7 72 40.7V12.7C73.6 12.2 74.8 10.6 74.8 8.89995C74.8 8.79995 74.8 8.69995 74.8 8.59995L73.4 1.69995C73.3 1.09995 72.7 0.699951 72.1 0.699951H69.3C68.7 0.699951 68.2 1.09995 68 1.69995L66.6 8.59995C66.6 8.69995 66.6 8.79995 66.6 8.89995C66.6 10.7 67.8 12.2 69.4 12.7V40.7H69.3C67.1 40.7 65.2 42.5 65.2 44.7999V47.2999C64.4 48 63.8 49.0999 63.8 50.2999V76.6C63.8 78.7999 65.7 80.6 67.9 80.6Z" fill="#005AAA"/>
<path d="M74.9 76.5C74.9 77.3 74.2 78 73.4 78H67.9C67.1 78 66.4 77.3 66.4 76.5V50.3C66.4 49.5 67.1 48.8 67.9 48.8H73.4C74.2 48.8 74.9 49.5 74.9 50.3V76.5Z" fill="#FFD66B"/>
<path d="M67.8 44.7C67.8 43.9 68.5 43.2 69.3 43.2H72.1C72.9 43.2 73.6 43.9 73.6 44.7V46.2H73.5H68H67.9V44.7H67.8Z" fill="#005AAA"/>
<path d="M70.7 51.7C70 51.7 69.4 52.3 69.4 53V73.6999C69.4 74.3999 70 75 70.7 75C71.4 75 72 74.3999 72 73.6999V53C72 52.3 71.4 51.7 70.7 51.7Z" fill="#005AAA"/>
<path d="M43.5 3H11.5C8.50001 3 6.10001 5.4 6.10001 8.4V71.5C6.10001 74.5 8.50001 76.9 11.5 76.9H43.4C46.4 76.9 48.8 74.5 48.8 71.5V8.5C48.9 5.4 46.5 3 43.5 3Z" fill="#3D8AFF"/>
<path d="M48.9 15.8H6.10001V58.6H48.9V15.8Z" fill="#FFD66B"/>
<path d="M42.9 0H11C6.3 0 2.5 3.8 2.5 8.5V15.8V58.6V71.6C2.5 76.3 6.3 80.1 11 80.1H42.9C47.6 80.1 51.4 76.3 51.4 71.6V58.6V15.8V8.5C51.3 3.8 47.5 0 42.9 0ZM11 6H42.9C44.2 6 45.3 7.1 45.3 8.4V12.7H8.5V8.5C8.5 7.1 9.6 6 11 6ZM45.3 55.6H8.5V18.8H45.3V55.6ZM42.9 74H11C9.7 74 8.6 72.9 8.6 71.6V61.6H45.4V71.6C45.3 72.9 44.2 74 42.9 74Z" fill="#005AAA"/>
<path d="M29.1 64.7H26.8C25.1 64.7 23.8 66 23.8 67.7C23.8 69.4 25.1 70.7 26.8 70.7H29.1C30.8 70.7 32.1 69.4 32.1 67.7C32.2 66 30.8 64.7 29.1 64.7Z" fill="#FFD66B"/>
</g>
<defs>
<clipPath id="clip0_1_581">
<rect width="80" height="80" fill="white"/>
</clipPath>
</defs>
</svg>
