<svg width="80" height="80" viewBox="0 0 80 80" fill="none" xmlns="http://www.w3.org/2000/svg">
<path d="M69.6 39.5H52.9C51.3 39.5 50 40.8 50 42.4V75.6C50 77.2 51.3 78.5 52.9 78.5H69.7C71.3 78.5 72.6 77.2 72.6 75.6V42.4C72.5 40.8 71.2 39.5 69.6 39.5Z" fill="#3D8AFF"/>
<path d="M72.5 46.2H50V68.6999H72.5V46.2Z" fill="#3D8AFF"/>
<path d="M69.6 37.9001H52.9C50.4 37.9001 48.5 39.9001 48.5 42.3001V46.2001V68.7001V75.5001C48.5 78.0001 50.5 79.9001 52.9 79.9001H69.7C72.2 79.9001 74.1 77.9001 74.1 75.5001V68.7001V46.2001V42.3001C74.1 39.9001 72.1 37.9001 69.6 37.9001ZM52.9 41.1001H69.7C70.4 41.1001 71 41.7001 71 42.4001V44.7001H51.6V42.4001C51.6 41.6001 52.1 41.1001 52.9 41.1001ZM70.9 67.2001H51.6V47.8001H71V67.2001H70.9ZM69.6 76.8001H52.9C52.2 76.8001 51.6 76.2001 51.6 75.5001V70.3001H71V75.5001C70.9 76.3001 70.4 76.8001 69.6 76.8001Z" fill="#005AAA"/>
<path d="M61.6 72H60.4C59.5 72 58.8 72.7 58.8 73.6C58.8 74.5 59.5 75.2 60.4 75.2H61.6C62.5 75.2 63.2 74.5 63.2 73.6C63.2 72.7 62.5 72 61.6 72Z" fill="#005AAA"/>
<path d="M38.9 73.3002C24.2 73.3002 11.8 62.8002 9.50001 48.3002C9.40001 47.4002 8.50001 46.9002 7.70001 47.0002C6.80001 47.1002 6.30001 48.0002 6.40001 48.8002C7.70001 56.4002 11.6 63.4002 17.5 68.5002C23.5 73.6002 31.1 76.4002 39 76.4002C39.9 76.4002 40.6 75.7002 40.6 74.8002C40.6 73.9002 39.8 73.3002 38.9 73.3002Z" fill="#005AAA"/>
<path d="M36.2 9.2001C50.9 9.2001 63.3 19.7001 65.6 34.2001C65.7 35.1001 66.6 35.6001 67.4 35.5001C68.3 35.4001 68.8 34.5001 68.7 33.7001C67.5 26.0001 63.6 19.1001 57.7 14.0001C51.7 8.9001 44.1 6.1001 36.2 6.1001C35.3 6.1001 34.6 6.8001 34.6 7.7001C34.6 8.6001 35.3 9.2001 36.2 9.2001Z" fill="#005AAA"/>
<path d="M27.5 1.6001H10.7C9.10005 1.6001 7.80005 2.9001 7.80005 4.5001V37.7001C7.80005 39.3001 9.10005 40.6001 10.7 40.6001H27.5C29.1 40.6001 30.4 39.3001 30.4 37.7001V4.4001C30.3 2.9001 29 1.6001 27.5 1.6001Z" fill="#3D8AFF"/>
<path d="M30.3 8.30005H7.80005V30.8H30.3V8.30005Z" fill="#FFD66B"/>
<path d="M27.1 0H10.4C7.90002 0 5.90002 2 5.90002 4.4V8.3V30.8V37.6C5.90002 40.1 7.90002 42 10.3 42H27.1C29.6 42 31.5 40 31.5 37.6V30.8V8.3V4.4C31.6 2 29.6 0 27.1 0ZM10.4 3.2H27.2C27.9 3.2 28.5 3.8 28.5 4.5V6.8H9.10002V4.4C9.10002 3.7 9.60002 3.2 10.4 3.2ZM28.4 29.2H9.10002V9.9H28.5L28.4 29.2ZM27.1 38.9H10.4C9.70002 38.9 9.10002 38.3 9.10002 37.6V32.4H28.5V37.6C28.4 38.4 27.9 38.9 27.1 38.9Z" fill="#005AAA"/>
<path d="M19.9 34H18.7C17.8 34 17.1 34.7 17.1 35.6C17.1 36.5 17.8 37.2 18.7 37.2H19.9C20.8 37.2 21.5 36.5 21.5 35.6C21.5 34.7 20.8 34 19.9 34Z" fill="#FFD66B"/>
</svg>
