<svg xmlns="http://www.w3.org/2000/svg" width="100" viewBox="0 0 75 75" height="100" version="1.0"><defs><clipPath id="a"><path d="M25 39h41v23.25H25Zm0 0"/></clipPath><clipPath id="b"><path d="M26 39h40v23.25H26Zm0 0"/></clipPath><clipPath id="c"><path d="M27 40h39v22.25H27Zm0 0"/></clipPath><clipPath id="d"><path d="M7 7.5h58V41H7Zm0 0"/></clipPath><clipPath id="e"><path d="M7 7.5h59V42H7Zm0 0"/></clipPath></defs><path fill="#f9a92c" d="m22.688 12.398-3.965 2.286ZM23.328 12.766l-.18-.102-3.964 2.285.18.102ZM23.781 13.027l-.176-.101-3.964 2.285.175.101ZM24.246 13.297l-.176-.106-3.965 2.286.176.101ZM24.691 13.55l-.175-.1-3.965 2.284.176.102ZM25.156 13.82l-.176-.101-3.964 2.285.175.101ZM25.469 14.164a.362.362 0 0 0-.078-.16l-3.88 2.234c.09.028.18.043.274.047ZM21.691 11.914l-3.84 2.211c.04.05.083.09.137.125l3.942-2.273a.973.973 0 0 0-.239-.063ZM22.406 12.238l-.176-.101-3.964 2.285.175.101ZM22.688 12.398l-3.965 2.286.175.101 3.965-2.285Zm0 0"/><path fill="#f9a92c" d="M24.328 11.02h-5.36c-.073.003-.109.039-.109.113v1.652a.62.62 0 0 0 .368.469l1.613.93c.445.257 1.12.285 1.508.062l1.832-1.055a.414.414 0 0 0 .258-.406v-1.66c0-.074-.04-.11-.11-.105Zm0 0"/><path fill="#f9a92c" d="M21.691 14.563a1.904 1.904 0 0 1-.933-.235l-1.613-.933a.876.876 0 0 1-.415-.442h-.035v-1.82a.281.281 0 0 1 .274-.281h5.355a.24.24 0 0 1 .196.078.263.263 0 0 1 .082.195v1.828h-.02a.629.629 0 0 1-.32.379l-1.832 1.059c-.23.12-.477.18-.739.171Zm-2.668-1.805.004.015a.46.46 0 0 0 .285.336l1.61.93c.394.227 1.012.258 1.344.063l1.828-1.055a.271.271 0 0 0 .176-.25l-.012-.176h.015v-1.437h-5.25Zm0 0"/><path fill="#f9a92c" d="M24.328 11.02H21.86v3.37c.176-.011.336-.058.489-.14l1.832-1.055a.414.414 0 0 0 .258-.406v-1.66c0-.074-.04-.11-.11-.11Zm0 0"/><path fill="#fff" d="m24.18 11.426-1.832 1.058c-.387.223-1.063.196-1.508-.062l-1.613-.934c-.446-.258-.493-.644-.106-.87l1.828-1.056c.387-.222 1.063-.195 1.508.063l1.613.93c.446.258.492.648.11.87Zm0 0"/><path fill="#f9a92c" d="M21.691 12.8c-.332 0-.64-.077-.933-.238l-1.613-.93c-.286-.167-.45-.398-.45-.636a.562.562 0 0 1 .344-.52l1.828-1.058c.438-.25 1.172-.223 1.672.062l1.613.934c.285.164.453.395.453.633a.57.57 0 0 1-.343.523l-1.832 1.055c-.23.121-.477.18-.739.176Zm-.09-3.222c-.199-.008-.39.035-.57.129l-1.828 1.055a.286.286 0 0 0-.18.234c0 .117.11.246.29.352l1.609.93c.394.226 1.012.253 1.344.062l1.828-1.055a.287.287 0 0 0 .18-.238c0-.113-.106-.242-.286-.348l-1.613-.93a1.535 1.535 0 0 0-.773-.19Zm0 0"/><path fill="#f9a92c" d="M20.848 12.508h.332v1.754h-.332ZM23.684 12.063h.253v.859h-.253Zm0 0"/><path fill="#fff" d="M25.766 8.813h.238v1.199h-.238Zm0 0"/><path fill="#fff" d="M25.285 9.293h1.2v.238h-1.2Zm0 0"/><path fill="#f9a92c" d="M5.164 39.395 1.2 41.68ZM5.8 39.766l-.175-.102L1.66 41.95l.18.102ZM6.258 40.027l-.176-.101-3.965 2.285.176.102ZM6.723 40.293l-.18-.102-3.961 2.286.176.101ZM7.168 40.55l-.176-.1-3.965 2.284.176.102ZM7.633 40.816l-.18-.101L3.493 43l.175.102ZM7.945 41.16a.348.348 0 0 0-.078-.156l-3.879 2.234c.09.024.18.04.274.047ZM4.168 38.91l-3.84 2.215a.6.6 0 0 0 .137.125l3.941-2.273a.98.98 0 0 0-.238-.067ZM4.883 39.234l-.176-.101-3.965 2.285.176.102ZM5.164 39.395 1.2 41.68l.176.101 3.965-2.285Zm0 0"/><path fill="#f9a92c" d="M6.805 38.02h-5.36c-.074 0-.11.039-.11.113v1.652a.608.608 0 0 0 .368.465l1.613.934c.446.257 1.122.285 1.508.062l1.828-1.059a.406.406 0 0 0 .262-.402v-1.66c0-.074-.039-.11-.11-.105Zm0 0"/><path fill="#f9a92c" d="M4.168 41.563c-.332 0-.645-.079-.934-.239l-1.613-.93a.87.87 0 0 1-.414-.445h-.035v-1.816c0-.078.027-.14.078-.196a.266.266 0 0 1 .195-.085h5.356a.23.23 0 0 1 .195.078c.055.05.082.117.082.195v1.824h-.02a.638.638 0 0 1-.32.383l-1.832 1.055c-.23.12-.476.18-.738.175ZM1.5 39.758l.004.015c.039.157.133.27.285.336l1.61.93c.394.227 1.007.258 1.343.063l1.828-1.055a.275.275 0 0 0 .176-.25l-.012-.18h.012v-1.433H1.5Zm0 0"/><path fill="#f9a92c" d="M6.805 38.02h-2.47v3.37c.177-.011.337-.058.49-.14l1.827-1.055a.411.411 0 0 0 .262-.406v-1.66c0-.074-.039-.11-.11-.11Zm0 0"/><path fill="#fff" d="M6.652 38.426 4.824 39.48c-.386.223-1.062.196-1.508-.062l-1.613-.93c-.445-.258-.492-.648-.105-.87l1.828-1.056c.386-.222 1.062-.195 1.508.063l1.613.93c.445.258.492.648.105.87Zm0 0"/><path fill="#f9a92c" d="M4.168 39.797a1.853 1.853 0 0 1-.934-.234l-1.613-.93c-.285-.168-.45-.399-.45-.637a.567.567 0 0 1 .345-.523l1.828-1.055c.437-.254 1.172-.227 1.672.062l1.613.93c.285.168.453.399.453.637a.573.573 0 0 1-.344.523l-1.832 1.055c-.23.121-.476.18-.738.172Zm-.09-3.223c-.2-.004-.39.04-.57.13L1.68 37.761a.276.276 0 0 0-.18.234c0 .113.11.246.29.348l1.608.933c.395.227 1.008.254 1.344.063L6.57 38.28a.276.276 0 0 0 .18-.234c0-.113-.105-.246-.285-.348l-1.613-.933a1.62 1.62 0 0 0-.774-.192Zm0 0"/><path fill="#f9a92c" d="M3.324 39.504h.332v1.754h-.332ZM6.16 39.059h.254v.863H6.16Zm0 0"/><path fill="#fff" d="M.3 35.473h.235v1.199H.301Zm0 0"/><path fill="#fff" d="M-.18 35.953h1.196v.238H-.18Zm0 0"/><path fill="#f9a92c" d="m71.656 27.559-3.965 2.285ZM72.293 27.926l-.176-.102-3.965 2.285.176.102ZM72.75 28.191l-.176-.105-3.965 2.285.176.102ZM73.215 28.457l-.18-.102-3.965 2.286.18.101ZM73.66 28.715l-.176-.102-3.964 2.285.175.102ZM74.125 28.98l-.18-.101-3.96 2.285.175.102ZM74.438 29.324a.362.362 0 0 0-.079-.16l-3.879 2.238c.09.024.18.04.274.047ZM70.66 27.074l-3.84 2.211c.04.05.082.094.137.125l3.941-2.27a.98.98 0 0 0-.238-.066ZM71.375 27.398l-.176-.101-3.965 2.285.176.102ZM71.656 27.559l-3.965 2.285.176.101 3.965-2.285Zm0 0"/><path fill="#f9a92c" d="M73.293 26.18h-5.356c-.074.004-.109.039-.109.113v1.652a.607.607 0 0 0 .367.47l1.614.929c.445.258 1.12.285 1.507.062l1.829-1.054a.411.411 0 0 0 .261-.407v-1.66c-.004-.07-.039-.105-.113-.105Zm0 0"/><path fill="#f9a92c" d="M70.66 29.723a1.853 1.853 0 0 1-.933-.235l-1.614-.93a.884.884 0 0 1-.414-.445h-.035v-1.82c0-.074.023-.14.078-.195a.263.263 0 0 1 .195-.082h5.356a.226.226 0 0 1 .195.074.269.269 0 0 1 .082.195v1.828h-.02a.65.65 0 0 1-.32.383l-1.832 1.055c-.23.12-.476.18-.738.172Zm-2.668-1.801.004.012c.04.16.133.273.281.336l1.614.933c.394.227 1.007.254 1.343.063l1.829-1.059a.27.27 0 0 0 .175-.246l-.011-.18h.011v-1.437h-5.246Zm0 0"/><path fill="#f9a92c" d="M73.293 26.18h-2.465v3.375c.172-.016.336-.063.488-.14l1.829-1.06a.406.406 0 0 0 .261-.402V26.29c0-.07-.039-.11-.113-.11Zm0 0"/><path fill="#fff" d="m73.145 26.59-1.829 1.055c-.386.222-1.062.195-1.507-.063l-1.614-.93c-.445-.257-.492-.648-.105-.87l1.828-1.06c.387-.222 1.062-.195 1.508.063l1.613.934c.445.258.492.644.106.87Zm0 0"/><path fill="#f9a92c" d="M70.66 27.96c-.332 0-.644-.077-.933-.237l-1.614-.93c-.285-.164-.449-.398-.449-.637a.564.564 0 0 1 .34-.52l1.832-1.054c.437-.254 1.172-.227 1.672.063l1.613.93c.285.163.453.398.453.636a.568.568 0 0 1-.344.52l-1.832 1.054c-.23.125-.476.184-.738.176Zm-.09-3.222c-.199-.004-.39.035-.57.13l-1.828 1.054a.286.286 0 0 0-.18.234c0 .117.11.246.29.352l1.609.93c.394.226 1.007.257 1.343.062l1.829-1.055a.286.286 0 0 0 .18-.234c0-.117-.11-.246-.286-.352l-1.613-.93a1.577 1.577 0 0 0-.774-.19Zm0 0"/><path fill="#f9a92c" d="M69.816 27.668h.332v1.754h-.332ZM72.652 27.223h.254v.859h-.254Zm0 0"/><path fill="#fff" d="M75.457 28.023a.478.478 0 0 1-.348-.144.481.481 0 0 1-.148-.352c0-.136.05-.254.148-.351a.493.493 0 1 1 .7.7.481.481 0 0 1-.352.147Zm0-.757a.254.254 0 0 0-.184.078.25.25 0 0 0-.074.183c0 .07.024.133.074.184a.25.25 0 0 0 .184.074.244.244 0 0 0 .184-.074.254.254 0 0 0 0-.367.248.248 0 0 0-.184-.078Zm0 0"/><path fill="#f9a92c" d="m53.496 57.453-3.965 2.281ZM54.137 57.82l-.18-.101-3.965 2.285.18.101ZM54.59 58.082l-.176-.102-3.965 2.286.176.101ZM55.055 58.348l-.176-.102-3.965 2.285.176.102ZM55.5 58.605l-.176-.101-3.965 2.285.18.102ZM55.965 58.871l-.176-.101-3.965 2.285.176.101ZM56.281 59.215a.401.401 0 0 0-.082-.156l-3.879 2.234c.09.023.18.039.274.047ZM52.5 56.965l-3.84 2.215c.04.047.086.09.137.125l3.945-2.274a1.062 1.062 0 0 0-.242-.066ZM53.219 57.293l-.18-.105-3.965 2.285.18.101ZM53.496 57.453l-3.965 2.281.176.106 3.965-2.285Zm0 0"/><path fill="#f9a92c" d="M55.137 56.074h-5.36c-.074 0-.109.04-.109.114v1.652a.604.604 0 0 0 .371.465l1.61.933c.449.258 1.124.285 1.511.063l1.828-1.059a.408.408 0 0 0 .258-.402v-1.66c0-.075-.039-.11-.11-.106Zm0 0"/><path fill="#f9a92c" d="M52.5 59.617c-.332 0-.64-.078-.934-.238l-1.613-.93a.87.87 0 0 1-.414-.445h-.035v-1.816c0-.079.027-.141.078-.196a.29.29 0 0 1 .195-.086h5.36c.074-.004.14.02.195.078.05.055.078.118.078.196v1.824h-.02a.625.625 0 0 1-.32.383l-1.828 1.054c-.234.125-.48.18-.742.176Zm-2.668-1.804.004.015c.039.16.133.27.285.336l1.613.93c.391.226 1.008.258 1.34.062l1.832-1.054a.262.262 0 0 0 .172-.25l-.012-.176h.016v-1.438h-5.25Zm0 0"/><path fill="#f9a92c" d="M55.137 56.074h-2.465v3.371a1.21 1.21 0 0 0 .488-.14l1.828-1.055a.414.414 0 0 0 .258-.406v-1.66c0-.075-.035-.11-.11-.11Zm0 0"/><path fill="#fff" d="m54.988 56.48-1.828 1.055c-.387.223-1.062.195-1.512-.062l-1.609-.93c-.45-.258-.496-.648-.11-.871l1.829-1.055c.387-.222 1.062-.195 1.508.063l1.613.93c.445.257.496.648.11.87Zm0 0"/><path fill="#f9a92c" d="M52.5 57.852a1.863 1.863 0 0 1-.934-.235l-1.613-.93c-.285-.167-.45-.398-.45-.636a.573.573 0 0 1 .345-.524l1.828-1.054c.437-.254 1.172-.227 1.672.062l1.613.93c.289.168.453.398.453.637a.573.573 0 0 1-.344.523l-1.828 1.055c-.234.12-.48.18-.742.172Zm-.09-3.22a1.16 1.16 0 0 0-.57.126l-1.828 1.058a.283.283 0 0 0-.18.235c0 .113.11.246.29.347l1.612.934c.391.227 1.008.254 1.34.063l1.832-1.06a.279.279 0 0 0 .176-.233c0-.114-.105-.247-.285-.348l-1.613-.934a1.573 1.573 0 0 0-.774-.187Zm0 0"/><path fill="#f9a92c" d="M51.656 57.559h.332v1.757h-.332ZM54.492 57.113h.254v.864h-.254Zm0 0"/><path fill="#fff" d="M54.586 52.418a.481.481 0 0 1-.352-.148.493.493 0 0 1 .352-.844.493.493 0 0 1 .351.844.481.481 0 0 1-.351.148Zm0-.758a.254.254 0 0 0-.184.078.25.25 0 0 0-.074.184c0 .07.024.133.074.183a.25.25 0 0 0 .184.075.25.25 0 0 0 .184-.075.25.25 0 0 0 .074-.183.25.25 0 0 0-.074-.184.254.254 0 0 0-.184-.078ZM53.25 52.121h.234v1.195h-.234Zm0 0"/><path fill="#fff" d="M52.77 52.602h1.195v.234H52.77Zm0 0"/><path fill="#f9a92c" d="m24.5 43.816-15.61 9ZM49.367 29.86c-.015-.012-.031-.016-.047-.028L9.152 52.992c.02.016.043.028.063.04l.113.066L49.5 29.934ZM49.953 30.195l-.176-.101L9.605 53.258l.176.101ZM50.418 30.465l-.176-.102-40.176 23.16.18.102ZM50.863 30.723l-.175-.102-40.172 23.16.175.102ZM51.328 30.988l-.18-.101L10.977 54.05l.175.101ZM51.781 31.25l-.176-.102L11.43 54.313l.18.101ZM52.242 31.52l-.176-.102-40.171 23.16.175.102ZM52.7 31.781l-.177-.101-40.175 23.164.18.101ZM53.164 32.05l-.176-.1-40.172 23.16.176.105ZM53.621 32.313l-.18-.102L13.27 55.375l.175.102ZM54.082 32.578l-.176-.101L13.73 55.64l.18.101ZM54.527 32.836l-.175-.102L14.18 55.898l.175.102ZM54.992 33.105l-.18-.101-40.171 23.16.175.106ZM55.445 33.367l-.175-.101L15.094 56.43l.18.101ZM55.906 33.633l-.176-.102L15.56 56.695l.175.102ZM56.363 33.898l-.175-.101-40.176 23.16.18.102ZM44.773 29.492a7.459 7.459 0 0 0-.82.27L9.145 49.832c-.196.148-.375.32-.532.512ZM46.043 29.273c-.145.016-.293.032-.438.051l-37.3 21.508c-.04.082-.07.168-.094.258ZM46.664 29.246 8.156 51.45c-.004.07 0 .137.008.203l38.844-22.398a9.868 9.868 0 0 0-.344-.008ZM47.785 29.332a3.569 3.569 0 0 0-.285-.039L8.227 51.933c.02.06.039.114.066.169ZM48.453 29.48a4.38 4.38 0 0 0-.242-.066L8.434 52.348c.035.05.07.097.109.14ZM49.012 29.68c-.067-.028-.137-.055-.207-.082L8.746 52.695c.043.04.094.082.145.121ZM62.773 37.598 22.602 60.762ZM63.234 37.867l-.175-.101-40.172 23.16.175.105ZM63.691 38.129l-.18-.102L23.34 61.191l.176.102ZM64.07 38.348l-.093-.055-40.172 23.164.113.066.066.036 40.164-23.16c-.023-.016-.05-.036-.078-.051ZM64.543 38.688a1.537 1.537 0 0 0-.148-.122L24.273 61.7c.067.031.137.059.207.086ZM64.855 39.04a1.716 1.716 0 0 0-.109-.142L24.844 61.906c.082.024.164.043.246.063Zm0 0"/><g clip-path="url(#a)"><path fill="#f9a92c" d="M65.059 39.445c-.016-.054-.04-.11-.063-.164l-39.492 22.77c.094.015.187.027.285.039Zm0 0"/></g><g clip-path="url(#b)"><path fill="#f9a92c" d="m65.125 39.738-38.832 22.39c.117.005.23.005.344.005L65.133 39.94c0-.07-.004-.136-.008-.203Zm0 0"/></g><g clip-path="url(#c)"><path fill="#f9a92c" d="M64.98 40.55c.04-.081.07-.167.094-.257L27.242 62.105c.149-.011.297-.027.442-.05Zm0 0"/></g><path fill="#f9a92c" d="M63.996 41.656c.234-.164.45-.355.637-.57L28.59 61.867c.312-.086.62-.195.918-.324ZM56.828 34.164l-.176-.102-40.175 23.165.18.101ZM57.273 34.422l-.175-.102-40.172 23.164.176.102ZM57.734 34.691l-.175-.101-40.172 23.16.175.102ZM58.191 34.953l-.175-.101L17.84 58.016l.18.101ZM58.652 35.219l-.175-.102-40.172 23.164.175.102ZM59.11 35.484l-.176-.101-40.176 23.16.176.102ZM59.574 35.754l-.176-.106-40.175 23.164.18.102ZM60.027 36.016l-.175-.102-40.172 23.16.175.106ZM60.492 36.281l-.176-.101-40.175 23.164.18.101ZM60.938 36.54l-.176-.102L20.59 59.602l.176.101ZM61.398 36.809l-.175-.106L21.05 59.867l.176.102ZM61.855 37.07l-.175-.101-40.176 23.16.18.105ZM62.316 37.336l-.175-.102-40.172 23.164.176.102ZM62.598 37.496 22.422 60.66l.176.102 40.175-23.164Zm0 0"/><path fill="#f9a92c" d="M64.535 39.066a3.455 3.455 0 0 1-1.183 1.043L29.777 59.49c-1.816 1.046-4.562 1.16-6.136.253L8.938 51.25c-.665-.383-1.008-.89-1.051-1.422l-.004-.004c-.164-.879.09-1.89.09-1.89l.976.054v.004c.14-.105.281-.199.43-.285l33.578-19.379c1.816-1.047 4.563-1.16 6.137-.254l14.699 8.492 1.117-.058c.25.863.149 1.68-.308 2.453l-.012.02a.884.884 0 0 1-.05.078c0 .004-.005.004-.005.007Zm0 0"/><path fill="#f9a92c" d="M26.305 60.504c-1.028 0-2.008-.207-2.742-.629l-14.7-8.492c-.68-.39-1.066-.914-1.129-1.516v-.015c-.171-.903.079-1.914.09-1.957l.031-.122 1.055.059c.125-.094.258-.18.395-.258l33.574-19.379c1.855-1.07 4.676-1.183 6.289-.254l14.664 8.47 1.188-.063.035.109c.27.906.164 1.77-.32 2.582l-.012.02c-.012.02-.028.039-.04.062l-.023.031c-.324.457-.734.82-1.23 1.09l-33.575 19.38c-1.015.581-2.316.882-3.55.882ZM8.02 49.727l.007.003.012.083c.04.507.379.96.977 1.304l14.703 8.492c1.527.883 4.21.766 5.98-.254l33.578-19.378a3.333 3.333 0 0 0 1.13-.997l.023-.03.03-.048c.411-.703.524-1.445.337-2.234l-1.04.055-14.741-8.516c-1.528-.883-4.211-.77-5.985.254L9.457 47.84a4.213 4.213 0 0 0-.414.273l-.176.13-.031-.11-.742-.04a4.98 4.98 0 0 0-.074 1.634Zm0 0"/><path fill="#f9a92c" d="M26.676 58.992h.164l.012 1.274-.165.004ZM8.66 51.121a2.667 2.667 0 0 1-.004-1.465l.156.047c-.124.457-.124.914.008 1.371ZM9.25 51.465a2.645 2.645 0 0 1-.008-1.469l.16.05c-.129.458-.125.915.004 1.372ZM63.473 40.047l-.16-.04c.078-.398.097-.8.062-1.206l.082-.02.082-.004c.035.426.016.848-.066 1.27ZM64.125 39.637l-.16-.035c.078-.387.094-.778.055-1.168v-.024l.164-.008c.043.414.023.828-.059 1.235ZM52.02 46.023a.189.189 0 0 1-.094-.18v-.034a.525.525 0 0 1 .265-.426l1.446-.832c.074-.055.156-.059.242-.02.059.035.277.13.277.211h-.187a.511.511 0 0 1-.266.426L52.262 46c-.051.031.004.145-.043.145a1.29 1.29 0 0 1-.2-.122Zm0 0"/><path fill="#f9a92c" d="M52.219 46.227c-.043 0-.09-.028-.207-.11a.265.265 0 0 0-.035-.023.263.263 0 0 1-.133-.25v-.035a.602.602 0 0 1 .308-.496l1.442-.833a.303.303 0 0 1 .328-.02l.039.02c.144.075.277.153.277.262v.082h-.195a.63.63 0 0 1-.297.418l-1.426.82v.02a.13.13 0 0 1-.027.113l-.023.028Zm1.566-1.637a.191.191 0 0 0-.11.035l-1.44.832a.44.44 0 0 0-.227.352v.035a.11.11 0 0 0 .05.105c.008.008.028.02.047.035.012.008.036.02.055.036a.115.115 0 0 1 .063-.09l1.441-.832a.443.443 0 0 0 .223-.356v-.078l.062-.004a.37.37 0 0 1-.066-.035.14.14 0 0 1-.043-.023.138.138 0 0 0-.055-.012ZM49.57 47.441c-.066-.039-.093-.101-.09-.18v-.03a.52.52 0 0 1 .266-.426l1.441-.832a.234.234 0 0 1 .247-.024c.058.035.277.137.277.219l-.188-.004a.525.525 0 0 1-.265.426l-1.442.832c-.05.027.04.156-.007.156a1.626 1.626 0 0 1-.239-.137Zm0 0"/><path fill="#f9a92c" d="M49.809 47.66c-.043 0-.09-.023-.243-.125l-.035-.023a.26.26 0 0 1-.133-.25v-.032a.595.595 0 0 1 .309-.5l1.441-.832a.297.297 0 0 1 .325-.02l.035.02c.152.079.285.16.285.27v.086l-.195-.008a.645.645 0 0 1-.297.414l-1.414.817c0 .003.004.011.004.015.023.047.02.09-.004.13l-.028.034Zm1.53-1.652a.214.214 0 0 0-.109.035l-1.44.832a.438.438 0 0 0-.227.355v.032a.112.112 0 0 0 .05.11c.008.003.078.05.106.066.004-.04.02-.07.054-.09l1.446-.832a.436.436 0 0 0 .222-.352v-.086l.059.004a.3.3 0 0 0-.07-.039l-.04-.023a.108.108 0 0 0-.05-.012ZM52.219 46.145a.18.18 0 0 1-.09-.18v-.035a.525.525 0 0 1 .266-.426l1.44-.832a.242.242 0 0 1 .247-.02.186.186 0 0 1 .09.18v.035a.513.513 0 0 1-.266.422l-1.441.836a.299.299 0 0 1-.153.043.208.208 0 0 1-.093-.023Zm0 0"/><path fill="#f9a92c" d="M52.313 46.25a.26.26 0 0 1-.133-.035.257.257 0 0 1-.133-.25v-.035a.594.594 0 0 1 .308-.496l1.442-.832a.296.296 0 0 1 .324-.02.26.26 0 0 1 .133.25v.035a.594.594 0 0 1-.309.496l-1.441.832a.364.364 0 0 1-.191.055Zm-.051-.176c.054.024.11.016.16-.023l1.441-.832c.137-.078.211-.2.227-.352v-.035a.112.112 0 0 0-.05-.11c-.06-.019-.114-.015-.161.024l-1.441.832a.432.432 0 0 0-.227.352v.035a.112.112 0 0 0 .05.11ZM49.773 47.563a.176.176 0 0 1-.09-.18v-.031a.52.52 0 0 1 .266-.426l1.442-.832a.234.234 0 0 1 .246-.024.193.193 0 0 1 .09.18v.035a.525.525 0 0 1-.266.426l-1.445.832a.275.275 0 0 1-.149.043.186.186 0 0 1-.094-.023Zm0 0"/><path fill="#f9a92c" d="M49.867 47.668a.218.218 0 0 1-.137-.035.257.257 0 0 1-.128-.25v-.031a.605.605 0 0 1 .304-.5l1.442-.832a.311.311 0 0 1 .328-.02c.094.059.136.14.133.25v.035a.594.594 0 0 1-.309.496l-1.441.832a.364.364 0 0 1-.192.055Zm1.672-1.54a.277.277 0 0 0-.11.036l-1.44.832a.449.449 0 0 0-.223.356v.03a.116.116 0 0 0 .047.11.165.165 0 0 0 .164-.02l1.441-.831c.133-.082.21-.2.227-.356v-.035a.11.11 0 0 0-.051-.105.09.09 0 0 0-.055-.016ZM55.32 44.41a.274.274 0 0 1-.136-.035.26.26 0 0 1-.133-.25v-.035a.602.602 0 0 1 .308-.496l.813-.465a.296.296 0 0 1 .324-.024c.094.06.137.141.133.25v.036a.588.588 0 0 1-.309.496l-.808.468a.374.374 0 0 1-.192.055Zm-.054-.176a.157.157 0 0 0 .164-.023l.808-.465c.137-.082.211-.2.227-.355v-.036a.106.106 0 0 0-.05-.105.158.158 0 0 0-.161.02l-.813.468a.446.446 0 0 0-.226.352v.035a.12.12 0 0 0 .05.11Zm0 0"/><path fill="#f9a92c" d="M55.902 43.734v-.058c0-.203-.164-.274-.367-.156l-.289.167a.728.728 0 0 0-.371.583v.054c0 .207.168.274.371.156l.285-.164a.725.725 0 0 0 .371-.582ZM26.328 60.309h-.164l.016-1.317h.168ZM23.922 59.707l-.168-.004.02-1.316.163.004ZM28.715 58.64h.164l.016 1.274-.165.004ZM31.527 58.3l-.015-1.273.164-.004.015 1.278ZM19.008 56.637a.221.221 0 0 1-.11-.032.416.416 0 0 1-.199-.343.152.152 0 0 1 .082-.16c.063-.04.121-.036.18.011a.41.41 0 0 1 .2.344.168.168 0 0 1-.083.16.16.16 0 0 1-.07.02Zm-.153-.438c-.007 0-.011 0-.015.004a.064.064 0 0 0-.02.059.29.29 0 0 0 .14.242c.017.016.036.02.06.012a.064.064 0 0 0 .02-.059.285.285 0 0 0-.142-.242.059.059 0 0 0-.043-.016ZM19.79 57.09a.196.196 0 0 1-.106-.031.416.416 0 0 1-.2-.344c-.007-.074.016-.125.078-.164a.153.153 0 0 1 .18.011c.125.083.192.2.2.348a.168.168 0 0 1-.079.16.162.162 0 0 1-.074.02Zm-.153-.438h-.016c-.016.02-.023.04-.02.063a.31.31 0 0 0 .141.242c.02.012.04.016.063.012a.064.064 0 0 0 .02-.059.298.298 0 0 0-.141-.242.075.075 0 0 0-.047-.016ZM20.574 57.543a.238.238 0 0 1-.105-.031.4.4 0 0 1-.2-.348.144.144 0 0 1 .079-.16.153.153 0 0 1 .18.012.416.416 0 0 1 .199.343.174.174 0 0 1-.082.164.146.146 0 0 1-.07.02Zm-.152-.441c-.008 0-.012.003-.016.003a.064.064 0 0 0-.02.06c.005.105.052.187.141.245.016.02.035.024.059.012.023-.016.031-.035.02-.063a.296.296 0 0 0-.137-.242c-.016-.008-.032-.012-.047-.015ZM21.355 57.992a.196.196 0 0 1-.105-.031.41.41 0 0 1-.2-.344c-.007-.07.016-.125.079-.16a.152.152 0 0 1 .18.012.416.416 0 0 1 .199.343c.004.07-.02.126-.078.16a.125.125 0 0 1-.075.02Zm-.152-.437c-.004 0-.008 0-.015.004a.064.064 0 0 0-.02.058.298.298 0 0 0 .14.242c.02.016.04.02.063.012a.064.064 0 0 0 .02-.059.31.31 0 0 0-.141-.242c-.016-.008-.031-.015-.047-.015ZM22.14 58.445a.196.196 0 0 1-.105-.03.394.394 0 0 1-.2-.345.144.144 0 0 1 .08-.16.153.153 0 0 1 .179.012.41.41 0 0 1 .199.344.168.168 0 0 1-.082.16.113.113 0 0 1-.07.02Zm-.152-.437c-.008 0-.011 0-.015.004a.064.064 0 0 0-.02.058c.004.106.05.184.14.242.016.024.036.028.06.012.023-.011.03-.031.023-.058a.304.304 0 0 0-.14-.243c-.016-.007-.032-.015-.048-.015ZM10.734 51.871a.219.219 0 0 1-.105-.031.416.416 0 0 1-.2-.344c-.007-.074.02-.125.083-.164.062-.035.12-.031.175.012a.4.4 0 0 1 .2.347.161.161 0 0 1-.078.16.162.162 0 0 1-.075.02Zm-.152-.437h-.012a.08.08 0 0 0-.023.062.31.31 0 0 0 .14.242c.02.012.04.016.063.012a.064.064 0 0 0 .02-.059.292.292 0 0 0-.141-.246.083.083 0 0 0-.047-.011ZM11.52 52.324a.238.238 0 0 1-.106-.031.423.423 0 0 1-.2-.348.144.144 0 0 1 .079-.16.153.153 0 0 1 .18.012.416.416 0 0 1 .199.344.178.178 0 0 1-.078.164.162.162 0 0 1-.074.02Zm-.153-.441c-.004 0-.012.004-.015.004a.064.064 0 0 0-.02.058.298.298 0 0 0 .14.242c.02.016.04.02.063.016.016-.02.024-.039.02-.062a.31.31 0 0 0-.14-.243c-.017-.007-.032-.011-.048-.015ZM12.3 52.773a.219.219 0 0 1-.105-.03.41.41 0 0 1-.199-.345.152.152 0 0 1 .082-.16c.063-.035.121-.031.176.012a.398.398 0 0 1 .2.344.155.155 0 0 1-.079.16.125.125 0 0 1-.074.02Zm-.152-.437c-.003 0-.007 0-.011.004-.02.015-.024.035-.02.058a.29.29 0 0 0 .137.243c.02.015.039.02.062.011a.064.064 0 0 0 .02-.058.29.29 0 0 0-.14-.242.084.084 0 0 0-.048-.016ZM13.086 53.227a.196.196 0 0 1-.106-.032.416.416 0 0 1-.199-.343c-.008-.07.016-.125.078-.16.063-.04.121-.036.18.011a.41.41 0 0 1 .2.344.165.165 0 0 1-.079.16.125.125 0 0 1-.074.02Zm-.152-.438c-.004 0-.012 0-.016.004a.064.064 0 0 0-.02.059.304.304 0 0 0 .141.242c.016.023.04.027.063.011.023-.011.027-.03.02-.058a.304.304 0 0 0-.142-.242.075.075 0 0 0-.046-.016ZM13.867 53.68a.219.219 0 0 1-.105-.032.416.416 0 0 1-.2-.343c-.007-.075.02-.125.083-.164a.153.153 0 0 1 .18.011c.124.082.19.2.198.348a.171.171 0 0 1-.082.16.162.162 0 0 1-.074.02Zm-.148-.438c-.008 0-.012 0-.016.004a.064.064 0 0 0-.02.059.29.29 0 0 0 .141.242c.016.02.035.023.059.012.023-.016.031-.036.02-.059a.28.28 0 0 0-.141-.242.059.059 0 0 0-.043-.016ZM17.379 55.7a.332.332 0 0 1-.172-.055l-1.656-.954a.585.585 0 0 1-.305-.488v-.039a.212.212 0 0 1 .102-.207.27.27 0 0 1 .28.027l1.657.953c.184.11.285.274.305.489v.039a.205.205 0 0 1-.106.207.193.193 0 0 1-.105.027Zm0 0"/><path fill="#f9a92c" d="M17.379 55.781a.458.458 0 0 1-.215-.062l-1.656-.957a.667.667 0 0 1-.344-.559v-.039a.28.28 0 0 1 .145-.277.34.34 0 0 1 .363.023l1.652.957a.663.663 0 0 1 .348.559v.039a.291.291 0 0 1-.293.316Zm-1.922-1.765a.1.1 0 0 0-.066.015c-.047.032-.067.074-.063.133v.04a.517.517 0 0 0 .262.417l1.656.953a.186.186 0 0 0 .2.024c.046-.032.066-.075.062-.133v-.04a.527.527 0 0 0-.266-.417l-1.652-.953a.239.239 0 0 0-.133-.04Zm0 0"/><path fill="#f9a92c" d="m17.285 54.93-1.656-.957c-.031-.02-.07-.032-.106-.043a.258.258 0 0 0-.023.105v.04c.02.214.121.378.309.487l1.652.958c.035.02.07.03.11.039a.293.293 0 0 0 .019-.102v-.043a.596.596 0 0 0-.305-.484Zm0 0"/><path fill="#f9a92c" d="m17.617 55.656-.066-.015a.467.467 0 0 1-.13-.051l-1.655-.953a.686.686 0 0 1-.348-.563v-.039c0-.047.012-.09.027-.133l.028-.066.066.016c.047.007.09.027.133.05l1.652.953a.664.664 0 0 1 .348.563v.039c0 .047-.008.09-.027.133Zm-2.031-1.613v.031a.517.517 0 0 0 .262.418l1.656.957h.004v-.031a.521.521 0 0 0-.266-.418ZM63.855 35.094l-14.703-8.492c-1.57-.91-4.32-.797-6.136.253L9.44 46.235C7.625 47.28 7.43 48.866 9 49.776l14.703 8.489c1.574.91 4.32.797 6.137-.254l33.574-19.375c1.816-1.051 2.016-2.637.441-3.543Zm0 0"/><path fill="#f9a92c" d="M26.367 59.031c-1.027 0-2.008-.207-2.742-.633l-14.7-8.492c-.734-.422-1.14-1.015-1.14-1.668 0-.781.578-1.558 1.582-2.136l33.574-19.38c1.856-1.07 4.676-1.183 6.29-.253l14.703 8.492c.734.422 1.136 1.016 1.136 1.672 0 .777-.574 1.554-1.578 2.137L29.918 58.145c-1.016.585-2.316.886-3.55.886Zm20.121-32.89a6.833 6.833 0 0 0-3.394.847L9.52 46.363c-.907.524-1.426 1.207-1.426 1.875 0 .54.347 1.04.984 1.407l14.703 8.488c1.528.883 4.211.77 5.98-.254L63.34 38.504c.906-.524 1.426-1.207 1.426-1.871 0-.543-.352-1.043-.985-1.406l-14.703-8.493c-.691-.398-1.617-.593-2.59-.593Zm0 0"/><path fill="#fff" d="m63.855 36.121-14.703-8.488c-1.57-.91-4.32-.797-6.136.25L9.44 47.262c-.75.433-1.218.957-1.406 1.488.2.457.524.797.965 1.027l14.703 8.489c1.574.91 4.32.797 6.137-.254l33.574-19.375c.75-.434 1.219-.957 1.406-1.489-.199-.457-.52-.796-.965-1.027Zm0 0"/><path fill="#f9a92c" d="M26.367 59.031c-1.027 0-2.008-.207-2.742-.633l-14.7-8.492a2.179 2.179 0 0 1-1.03-1.101l-.02-.055.016-.05c.21-.59.718-1.134 1.476-1.571L42.941 27.75c1.856-1.07 4.676-1.184 6.29-.25l14.703 8.488c.472.25.816.617 1.03 1.106l.02.054-.02.051c-.206.59-.718 1.133-1.472 1.57L29.918 58.146c-1.016.585-2.316.886-3.55.886ZM8.2 48.746c.196.395.489.695.88.899l14.702 8.488c1.528.883 4.211.77 5.98-.254L63.34 38.504c.664-.387 1.12-.852 1.316-1.352a1.988 1.988 0 0 0-.875-.898l-14.703-8.492c-1.527-.88-4.21-.766-5.984.254L9.52 47.395c-.668.386-1.122.851-1.32 1.351Zm0 0"/><path fill="#f9a92c" d="M43.727 26.656h.164l.011.801-.164.004ZM48.121 26.383l.164-.004.012.805h-.164ZM9.55 46.313h.165l.012.8-.165.004ZM62.988 34.738l.164-.004.016.805-.164.004ZM7.969 48.64a1.97 1.97 0 0 1-.059-.562l.164.004c-.004.176.012.344.051.512ZM64.922 37.121l-.16-.047c.054-.18.078-.363.07-.55l.16-.032c.016.215-.008.426-.07.63Zm0 0"/><path fill="#fff" d="m49.781 31.746-1.238-.715c-.305-.176-.266-.484.086-.687l.863-.5c.356-.203.887-.227 1.192-.051l1.238.715c.308.176.27.484-.086.691l-.86.496c-.355.203-.886.227-1.195.051Zm0 0"/><path fill="#f9a92c" d="M50.3 31.98a1.154 1.154 0 0 1-.577-.132l-1.239-.715a.436.436 0 0 1-.261-.403.563.563 0 0 1 .347-.492l.864-.496c.39-.226.968-.25 1.308-.05l1.238.714a.434.434 0 0 1 .266.403.56.56 0 0 1-.351.492l-.86.496c-.23.125-.472.187-.734.183Zm-.46-.335c.27.152.762.128 1.078-.051l.86-.5c.148-.082.234-.192.234-.285a.24.24 0 0 0-.149-.2l-1.238-.714c-.266-.153-.758-.13-1.074.05l-.864.5c-.144.082-.23.192-.23.285.012.094.059.16.145.2ZM54.914 34.832l-.59-.34c-.304-.18-.27-.488.086-.691l.863-.496c.352-.203.887-.227 1.192-.051l.59.344c.308.175.27.484-.082.687l-.864.496c-.355.207-.886.227-1.195.051ZM33.93 45.41l-8.575-4.953c-.308-.176-.27-.484.082-.687l15.274-8.817c.352-.203.887-.226 1.191-.05l8.578 4.952c.305.176.266.485-.085.688l-15.27 8.816c-.355.203-.887.227-1.195.051ZM38.043 48.488l-10.824-6.25a2.184 2.184 0 0 0-1.102-.293c-.394 0-.765.098-1.105.293l-.399.23c-.355.208-.886.227-1.191.052l-.27-.157a2.198 2.198 0 0 0-1.105-.293c-.395 0-.762.098-1.106.293L16.47 44.95c-.352.203-.39.512-.086.688l13.3 7.68c.305.175.84.152 1.192-.051l7.082-4.09c.352-.203.39-.512.086-.688ZM31.55 54.395l-.081-.047c-.305-.18-.266-.485.086-.692l7.082-4.086c.351-.203.886-.226 1.191-.05l.082.046c.309.18.27.485-.086.692l-7.078 4.086c-.355.203-.887.226-1.195.05ZM28.527 56.14l-1-.578c-.304-.175-.265-.484.086-.687l1.035-.598c.352-.203.887-.226 1.192-.047l1 .575c.305.175.265.484-.086.691l-1.031.594c-.356.203-.887.226-1.196.05Zm0 0"/><path fill="#f9a92c" d="m26.414 54.82 1.633-.941c.328-.188.328-.496 0-.688l-1.121-.644a1.24 1.24 0 0 0-1.192 0L21.828 54.8c-.328.191-.328.496 0 .687l2.469 1.426c.277.145.562.188.867.125.39-.082.777-.074 1.164.023.324.086.633.051.93-.101l.242-.137c.332-.191.332-.5 0-.687l-1.086-.63c-.328-.187-.328-.495 0-.687ZM18.676 48.496c-.297-.172-.266-.473.066-.676l-3.074-1.773c-.305-.176-.84-.152-1.191.05l-2.325 1.34c-.351.208-.39.512-.086.692l4.942 2.851c.308.176.84.153 1.195-.05l2.324-1.34c.008-.004.012-.012.02-.016Zm0 0"/><path fill="#fff" d="m21.426 53.531-2.598-1.5c-.305-.176-.265-.484.086-.687L21.238 50c.356-.203.887-.223 1.192-.047l2.597 1.5c.309.176.27.484-.086.688l-2.324 1.34c-.351.203-.887.226-1.191.05Zm0 0"/><path fill="#f9a92c" d="M21.945 53.77a1.19 1.19 0 0 1-.578-.137l-2.597-1.5a.446.446 0 0 1-.266-.403.564.564 0 0 1 .351-.488l2.325-1.344c.39-.226.968-.246 1.312-.046l2.594 1.496a.44.44 0 0 1 .266.402.56.56 0 0 1-.352.492l-2.32 1.34a1.51 1.51 0 0 1-.735.188Zm-.03-3.82c-.22 0-.423.05-.618.152l-2.324 1.343c-.145.082-.23.192-.23.285.01.094.058.16.144.2l2.597 1.5c.27.152.762.133 1.075-.051l2.324-1.34c.148-.086.234-.191.234-.289a.23.23 0 0 0-.148-.195l-2.598-1.5a.916.916 0 0 0-.457-.106ZM21.148 54.293c.07-.023.106-.074.106-.148 0-.075-.035-.125-.106-.149l-8.257-4.766a.54.54 0 0 0-.512 0l-.574.333c-.07.023-.106.074-.106.148s.035.125.106.148l4.468 2.578c.168.086.34.086.508 0l.035-.019a.54.54 0 0 1 .512 0l3.277 1.895c.168.085.34.085.508 0ZM56.207 37.438l1.14.656a.84.84 0 0 0 .895 0c.352-.203.887-.227 1.192-.047l.773.441.078-.043c1.14-.66 1.262-1.652.278-2.222l-1.13-.653c-.304-.175-.84-.152-1.19.051l-1.95 1.125c-.352.203-.39.512-.086.691ZM54.793 40.977l-2.36-1.364c-.304-.175-.265-.484.087-.687l1.953-1.125c.351-.207.886-.227 1.191-.051l2.36 1.363c.304.176.265.485-.087.688l-1.949 1.125c-.355.203-.886.226-1.195.05ZM53.133 37.387l-.055-.032c-.191-.109-.168-.304.055-.433l.488-.281a.798.798 0 0 1 .75-.032l.05.032c.192.109.169.304-.054.433l-.488.281a.79.79 0 0 1-.746.032ZM41.34 42.781l-.05-.031c-.192-.11-.169-.305.054-.43l.488-.285a.79.79 0 0 1 .746-.031l.055.031c.191.11.168.305-.055.434l-.488.281a.787.787 0 0 1-.75.031Zm0 0"/><path fill="#fff" d="m39.473 43.86-.055-.028c-.191-.113-.168-.305.055-.434l.488-.28a.787.787 0 0 1 .75-.032l.05.027c.192.114.169.305-.054.434l-.484.281a.787.787 0 0 1-.75.031Zm0 0"/><path fill="#f9a92c" d="M39.797 44.05a.72.72 0 0 1-.383-.09l-.055-.026a.317.317 0 0 1-.187-.293.393.393 0 0 1 .242-.344l.488-.281a.89.89 0 0 1 .868-.032l.05.028a.321.321 0 0 1 .192.289.4.4 0 0 1-.242.347l-.489.282a.96.96 0 0 1-.484.12Zm-.266-.292a.676.676 0 0 0 .63-.031l.487-.282c.094-.054.125-.11.125-.144 0-.04-.043-.07-.07-.086l-.05-.028a.674.674 0 0 0-.633.032l-.489.281c-.09.05-.125.11-.125.14 0 .04.047.07.07.087Zm0 0"/><path fill="#fff" d="m50.04 39.172-.052-.031c-.191-.11-.168-.305.051-.434l1.629-.937a.797.797 0 0 1 .75-.032l.05.032c.192.109.169.304-.054.433l-1.625.938a.798.798 0 0 1-.75.03Zm0 0"/><path fill="#f9a92c" d="M50.367 39.363a.783.783 0 0 1-.387-.09l-.05-.03a.321.321 0 0 1-.192-.29.405.405 0 0 1 .242-.348l1.63-.937a.9.9 0 0 1 .867-.031l.05.031a.307.307 0 0 1 .188.289.397.397 0 0 1-.242.348l-1.625.937a.997.997 0 0 1-.48.121Zm1.727-1.582a.741.741 0 0 0-.367.09l-1.625.941c-.094.051-.125.106-.125.141 0 .04.043.07.07.086l.05.031a.685.685 0 0 0 .633-.03l1.625-.942c.094-.051.125-.106.125-.141 0-.039-.042-.07-.07-.086l-.05-.031a.529.529 0 0 0-.266-.059ZM43.344 41.625l-.051-.031c-.191-.11-.168-.305.055-.434l4.668-2.695a.797.797 0 0 1 .75-.031l.05.03c.192.11.168.306-.054.434l-4.668 2.696a.797.797 0 0 1-.75.031ZM40.523 49.215l-4.636-2.676c-.305-.176-.266-.484.086-.687l1.644-.95c.352-.207.887-.226 1.192-.05l4.636 2.675c.305.176.266.485-.086.688l-1.644.95c-.352.206-.887.226-1.192.05ZM44.09 47.156l-3.04-1.754c-.304-.18-.265-.488.087-.691l2.289-1.32c.355-.203.89-.227 1.195-.051l3.04 1.754c.304.176.265.484-.087.691l-2.289 1.32c-.355.204-.887.227-1.195.051Zm0 0"/><path fill="#fff" d="m49.188 44.21-3.04-1.753c-.304-.176-.265-.484.086-.687L49 40.172c.352-.203.887-.227 1.191-.047l3.04 1.754c.304.176.269.484-.086.687l-2.766 1.598c-.352.203-.887.227-1.191.047Zm0 0"/><path fill="#f9a92c" d="M49.707 44.45a1.148 1.148 0 0 1-.578-.138l-3.04-1.753a.435.435 0 0 1-.265-.399.569.569 0 0 1 .352-.492l2.765-1.598c.391-.226.965-.246 1.309-.05l3.04 1.757a.43.43 0 0 1 .265.399.56.56 0 0 1-.352.492l-2.766 1.598a1.44 1.44 0 0 1-.73.183Zm-.031-4.329a1.3 1.3 0 0 0-.617.152l-2.766 1.598c-.145.086-.23.191-.23.29a.23.23 0 0 0 .144.194l3.04 1.754c.269.157.76.133 1.073-.047l2.766-1.597c.148-.086.234-.192.234-.29a.235.235 0 0 0-.148-.195l-3.04-1.753a.936.936 0 0 0-.456-.106ZM50.887 35.621l-7.285-4.207c-.305-.176-.27-.484.086-.691l.624-.36c.352-.203.887-.226 1.192-.05l7.285 4.207c.305.18.27.484-.086.69l-.625.36c-.351.203-.887.227-1.191.051ZM52.398 33.254l-.828-.477c-.308-.175-.27-.484.086-.691l.23-.133c.356-.203.887-.226 1.196-.05l.828.48c.305.176.27.484-.086.687l-.234.137c-.352.203-.887.227-1.192.047ZM15.16 44.867l25.516-14.742.117.203L15.281 45.07ZM10.469 49.223c-.367-.211-.551-.461-.547-.75.004-.606.887-1.102.922-1.121l3.601-2.079.117.204-3.601 2.078c-.223.125-.8.53-.805.922-.004.195.145.378.43.543ZM41.95 29.664l-.118-.203 1.758-1.016c1.379-.793 3.617-.793 4.996 0l.992.575-.117.203-.992-.575c-1.313-.757-3.45-.757-4.758 0Zm0 0"/><path fill="#f9a92c" d="M47.379 30.203a.858.858 0 0 1-.914 0l-2.059-1.187.211-.125c.899-.516 2.254-.575 3.031-.125l.668.386a.34.34 0 0 1 .106.106c.027.047.039.097.039.148 0 .051-.012.102-.04.149a.34.34 0 0 1-.105.105Zm0 0"/><path fill="#f9a92c" d="M46.922 30.441c-.184 0-.36-.046-.516-.136l-2.234-1.29.387-.226c.925-.535 2.34-.59 3.148-.125l.668.387a.387.387 0 0 1 .148.148c.04.067.055.133.055.207 0 .074-.016.14-.055.207a.387.387 0 0 1-.148.149l-.938.543c-.16.09-.332.136-.515.136Zm-2.281-1.425 1.882 1.082a.736.736 0 0 0 .797 0l.938-.54a.166.166 0 0 0 .086-.152.166.166 0 0 0-.086-.152l-.668-.387c-.742-.43-2.05-.37-2.914.13ZM11.617 48.79a.54.54 0 0 1-.512 0c-.07-.024-.105-.075-.105-.15 0-.074.035-.12.105-.144a.54.54 0 0 1 .512 0c.07.024.106.07.106.145 0 .074-.036.125-.106.148ZM25.957 57.871a.54.54 0 0 1-.512 0c-.07-.023-.105-.07-.105-.144 0-.075.035-.125.105-.149a.54.54 0 0 1 .512 0c.07.024.105.074.105.149 0 .074-.035.12-.105.144Zm0 0"/><path fill="#f9a92c" d="M25.7 58.05a.63.63 0 0 1-.313-.077.249.249 0 0 1-.164-.246.25.25 0 0 1 .164-.25c.21-.11.418-.11.629 0a.25.25 0 0 1 .164.25c0 .117-.055.199-.164.246a.634.634 0 0 1-.317.078Zm0-.417a.435.435 0 0 0-.196.047c-.04.023-.047.043-.047.047 0 0 .008.02.047.043a.439.439 0 0 0 .394 0c.036-.024.047-.043.047-.043 0-.004-.011-.024-.047-.047a.44.44 0 0 0-.199-.047ZM40.09 44.844a.512.512 0 0 1-.508 0c-.07-.024-.105-.07-.105-.145 0-.074.035-.125.105-.148a.532.532 0 0 1 .508 0c.07.023.105.074.105.148s-.035.121-.105.145Zm0 0"/><path fill="#fff" d="M37.258 46.383a.532.532 0 0 1-.508 0c-.07-.024-.105-.074-.105-.149 0-.074.035-.12.105-.144a.532.532 0 0 1 .508 0c.07.023.105.07.105.144 0 .075-.035.125-.105.149Zm0 0"/><path fill="#f9a92c" d="M37.004 46.563a.62.62 0 0 1-.313-.079.249.249 0 0 1-.168-.25c0-.117.055-.199.168-.246a.636.636 0 0 1 .625 0c.11.047.164.13.164.246a.25.25 0 0 1-.164.25.63.63 0 0 1-.312.078Zm0-.418a.412.412 0 0 0-.195.046c-.04.024-.047.04-.047.043 0 .004.008.024.047.047a.43.43 0 0 0 .39 0c.04-.023.047-.043.047-.047 0-.004-.008-.02-.047-.043a.424.424 0 0 0-.195-.046ZM44.613 42.43a.532.532 0 0 1-.508 0c-.07-.024-.105-.075-.105-.149s.035-.12.105-.144a.532.532 0 0 1 .508 0c.07.023.106.07.106.144 0 .074-.035.125-.106.149ZM54.074 41.824a.616.616 0 0 1-.312-.074.249.249 0 0 1-.168-.25c0-.117.054-.203.168-.25a.657.657 0 0 1 .625 0c.11.047.164.133.164.25a.25.25 0 0 1-.164.25.625.625 0 0 1-.313.074Zm0-.414a.371.371 0 0 0-.195.047c-.04.02-.047.04-.047.043 0 .004.008.023.047.047a.43.43 0 0 0 .39 0c.04-.024.047-.043.047-.047 0-.004-.007-.023-.046-.043a.38.38 0 0 0-.196-.047ZM53.309 41.059a.532.532 0 0 1-.508 0c-.07-.024-.106-.07-.106-.145 0-.078.035-.125.106-.148a.532.532 0 0 1 .508 0c.07.023.105.07.105.148 0 .074-.035.121-.105.145ZM53.242 36.176a.54.54 0 0 1-.512 0c-.07-.024-.105-.074-.105-.149 0-.074.035-.125.105-.148a.54.54 0 0 1 .512 0c.07.023.106.074.106.148 0 .075-.035.125-.106.149ZM43.238 30.191c0 .059-.035.106-.105.145a.48.48 0 0 1-.254.062.485.485 0 0 1-.258-.062c-.07-.04-.105-.086-.105-.145 0-.058.035-.105.105-.148a.524.524 0 0 1 .258-.059c.098 0 .184.02.254.059.07.043.105.09.105.148Zm0 0"/><path fill="#f9a92c" d="M42.879 30.516a.63.63 0 0 1-.316-.075.254.254 0 0 1-.165-.25.25.25 0 0 1 .164-.25.665.665 0 0 1 .63 0 .25.25 0 0 1 .163.25.254.254 0 0 1-.164.25.625.625 0 0 1-.312.075Zm0-.414a.391.391 0 0 0-.2.043c-.034.023-.046.043-.046.046 0 .004.012.024.047.043a.416.416 0 0 0 .394 0c.04-.02.047-.039.047-.043 0-.003-.008-.023-.047-.046a.386.386 0 0 0-.195-.043ZM57.828 34.938a.532.532 0 0 1-.508 0c-.07-.024-.105-.07-.105-.145 0-.074.035-.125.105-.148a.532.532 0 0 1 .508 0c.07.023.106.074.106.148s-.036.121-.106.145Zm0 0"/><path fill="#f9a92c" d="M57.574 35.117a.62.62 0 0 1-.312-.078c-.114-.047-.168-.129-.168-.246 0-.121.054-.203.168-.25a.636.636 0 0 1 .625 0 .25.25 0 0 1 .164.25c0 .117-.055.2-.164.246a.63.63 0 0 1-.313.078Zm0-.418a.412.412 0 0 0-.195.047c-.04.024-.047.043-.047.047 0 .004.008.02.047.043a.43.43 0 0 0 .39 0c.04-.023.047-.04.047-.043 0-.004-.007-.023-.046-.047a.424.424 0 0 0-.196-.047ZM54.965 36.328l-.05-.031c-.192-.11-.169-.305.054-.434l.89-.515a.809.809 0 0 1 .75-.032l.051.032c.192.113.168.304-.055.433l-.89.516a.797.797 0 0 1-.75.031ZM49.242 38.055l2.836-1.64.117.202-2.836 1.64ZM44.867 41.758l4.23-2.446.118.204-4.23 2.445ZM48.402 44.777l-3.199-1.847c-.074-.043-.066-.114.02-.164a.307.307 0 0 1 .285-.012l3.199 1.848c.074.043.066.117-.02.164a.286.286 0 0 1-.285.011Zm0 0"/><path fill="#f9a92c" d="M48.527 44.926a.423.423 0 0 1-.183-.043l-3.2-1.852a.178.178 0 0 1-.109-.172.213.213 0 0 1 .13-.195.41.41 0 0 1 .401-.012l3.2 1.848c.07.035.109.094.109.176a.218.218 0 0 1-.129.195.466.466 0 0 1-.219.055Zm-.066-.25c.047.02.094.02.14 0l-3.152-1.82a.217.217 0 0 0-.14 0ZM27.355 57.945l-.117-.203.43-.25c.39-.215.805-.344 1.246-.394a3.08 3.08 0 0 0 1.156-.364L59.367 39.82l.117.203-29.297 16.914a3.33 3.33 0 0 1-1.242.395 3.12 3.12 0 0 0-1.16.363ZM60.027 39.71l-.117-.206 2.04-1.176c.487-.281.757-.648.757-1.035 0-.387-.27-.754-.758-1.035l-2.344-1.356.118-.203 2.343 1.356c.567.324.875.765.875 1.238s-.308.914-.875 1.238Zm0 0"/><path fill="#f9a92c" d="m51.516 44.742-.77-.453c-.773-.45-1.164-1.066-1.066-1.695.043-.29-.133-.567-.485-.77l-.965-.605 1.43-.824.961.605c.777.445 1.164 1.063 1.07 1.695-.046.285.133.567.485.77l.765.453ZM24.633 47.48a4.13 4.13 0 0 1-2.067-.492c-.57-.332-.886-.777-.886-1.258 0-.484.316-.93.886-1.261l4.317-2.492.117.203-4.316 2.492c-.497.289-.77.664-.77 1.058 0 .391.273.766.77 1.055 1.074.617 2.82.617 3.894 0l4.313-2.492.117.203-4.313 2.492a4.135 4.135 0 0 1-2.062.492Zm0 0"/><path fill="#f9a92c" d="M24.629 46.32a1.302 1.302 0 0 1-.637-.156.434.434 0 0 1-.297-.434c0-.214.102-.359.297-.437l4.317-2.492.117.203-4.313 2.492c-.12.031-.18.11-.18.234 0 .122.06.2.18.23.344.173.692.173 1.035 0l4.317-2.491.117.203-4.316 2.492c-.2.106-.41.16-.637.156ZM50.77 31.078a1.13 1.13 0 0 1-1.07 0c-.298-.172-.298-.445 0-.617a1.13 1.13 0 0 1 1.07 0c.296.172.296.445 0 .617Zm0 0"/><path fill="#f9a92c" d="M50.387 30.86a.324.324 0 0 1-.305 0 .088.088 0 0 1-.062-.09c0-.043.02-.075.062-.09a.324.324 0 0 1 .305 0 .088.088 0 0 1 .062.09c0 .043-.02.074-.062.09Zm0 0"/><path fill="#fff" d="M56.125 34.293a.9.9 0 0 1-.867 0c-.238-.137-.238-.363 0-.5a.921.921 0 0 1 .867 0c.238.137.238.363 0 .5ZM46.02 45.719a.732.732 0 0 1-.696.027l-.644-.371c-.18-.102-.157-.281.05-.402a.732.732 0 0 1 .696-.028l.644.371c.18.102.157.282-.05.403Zm0 0"/><path fill="#f9a92c" d="M44.875 46.379a.74.74 0 0 1-.7.031l-.644-.37c-.176-.106-.156-.286.051-.403a.74.74 0 0 1 .7-.032l.644.372c.176.105.156.285-.051.402ZM22.582 51.227a.732.732 0 0 1-.695.027l-.645-.371c-.18-.102-.156-.281.051-.403a.732.732 0 0 1 .695-.027l.645.371c.18.102.156.281-.051.403ZM21.438 51.887a.74.74 0 0 1-.7.031l-.644-.371c-.176-.106-.157-.285.05-.402a.74.74 0 0 1 .7-.032l.644.371c.176.106.157.286-.05.403ZM17.055 46.848l-1.059.609a.686.686 0 0 1-.644.027l-.047-.027c-.164-.098-.145-.262.047-.375l1.054-.61ZM26.926 56.77l-.047-.028c-.184-.105-.16-.293.05-.414l1.864-1.074a.76.76 0 0 1 .715-.031l.047.03c.183.106.16.29-.051.411l-1.86 1.078a.757.757 0 0 1-.718.028Zm0 0"/><path fill="#f9a92c" d="M27.238 56.96a.777.777 0 0 1-.37-.089l-.048-.027a.307.307 0 0 1-.183-.282.379.379 0 0 1 .234-.335l1.863-1.075a.863.863 0 0 1 .832-.03l.051.03a.302.302 0 0 1 .18.282.379.379 0 0 1-.235.336l-1.859 1.074a.966.966 0 0 1-.465.117Zm1.957-1.69a.702.702 0 0 0-.343.085l-1.864 1.075c-.086.05-.117.101-.117.133 0 .035.043.062.067.078l.05.027c.203.09.403.078.598-.027l1.86-1.078c.085-.047.116-.102.116-.13 0-.035-.039-.066-.066-.078l-.047-.03a.523.523 0 0 0-.254-.055Zm0 0"/><path fill="#fff" d="m29.2 38.734-.985-.57 4.078-2.352.98.567c.57.293 1.172.387 1.805.277 2.629-.406 5.453.028 7.379 1.14l2.977 1.743-4.079 2.352-2.976-1.743a2.823 2.823 0 0 0-1.8-.277c-2.63.41-5.458-.027-7.38-1.137ZM26.84 51.672l-2.856-1.649 3.196-1.843c1.644-.95 4.336-.95 5.98 0l3.262 1.883-2.856 1.648-2.726-1.574a1.413 1.413 0 0 0-1.344 0Zm0 0"/><path fill="#f9a92c" d="m48 34.02-.117-.204 1.726-.996-2.68-1.547.118-.203 3.031 1.75ZM40.465 47.05l.117-.202 1.68.972-.117.203ZM39.96 47.344l.118-.207 1.684.972-.117.203ZM16.984 49.07l.118-.203 1.683.973-.117.203ZM16.484 49.363l.118-.207 1.683.973-.117.203ZM26.387 51.543l.117-.203 2.203 1.273-.121.203ZM32.926 45.668l.117-.203 4.02 2.32-.118.207ZM13.488 50.965l.117-.203.989.574-.117.203ZM59.266 35.61l.117-.208.988.575-.117.203ZM50.89 33.656l.118-.203.988.57-.117.204ZM33.621 45.133l2.04-.57.062.226-2.04.57ZM32.992 44.746l2.04-.57.062.226-2.04.575ZM32.309 44.379l2.039-.57.062.226-2.035.57ZM31.68 43.992l2.039-.57.062.226-2.039.57ZM30.977 43.598l2.039-.57.062.226-2.039.57ZM32.164 52.578l2.04-.57.062.226-2.04.57ZM31.531 52.195l2.04-.57.066.227-2.04.57ZM30.828 51.8l2.04-.57.062.227-2.035.57ZM30.2 51.414l2.038-.57.063.226-2.04.57Zm0 0"/><path fill="#fff" d="M56.867 21.39v5.708c0 .5-.12.965-.367 1.398a2.785 2.785 0 0 1-1.004 1.04l-2.066 1.257a1.48 1.48 0 0 0-.668 1.785c.101.3.285.543.547.73l.625.41a.33.33 0 0 0 .375.012l.906-.515a.137.137 0 0 0 .078-.125.145.145 0 0 0-.063-.137l-1.105-.797c-.066-.047-.066-.093.004-.136l2.101-1.278a4.152 4.152 0 0 0 1.5-1.555c.368-.648.551-1.343.551-2.09v-4.843Zm0 0"/><path fill="#fff" d="M53.43 30.793a1.48 1.48 0 0 0-.668 1.785c.101.3.285.543.547.73l.625.41a.33.33 0 0 0 .375.012l.906-.515a.137.137 0 0 0 .078-.125.145.145 0 0 0-.063-.137l-1.105-.797c-.066-.047-.066-.093.004-.136l.488-.297c1.274-.774-.336-1.45-1.187-.93Zm0 0"/><path fill="#f9a92c" d="M54.133 33.895a.46.46 0 0 1-.266-.079l-.625-.41c-.281-.199-.48-.46-.594-.789a1.61 1.61 0 0 1 .719-1.926l.125.204c-.32.183-.531.453-.64.8-.086.285-.079.567.02.844.093.277.265.504.503.672l.621.41c.086.055.168.059.254.008l.906-.516c.035-.02.04-.039.004-.062l-1.105-.801a.197.197 0 0 1-.082-.168.189.189 0 0 1 .093-.16l.489-.297.125.2-.442.269 1.063.765a.257.257 0 0 1 .11.239.259.259 0 0 1-.138.222l-.906.512a.459.459 0 0 1-.234.063ZM56.809 25.535l1.414-.816.117.203-1.414.816ZM56.809 26.688l1.414-.817.117.203-1.414.817Zm0 0"/><path fill="#f9a92c" d="m53.484 33.441 1.41-.816.118.203-1.41.817ZM52.777 32.887l1.41-.817.118.203-1.41.817ZM63.848 17.48l-14.7-8.492c-1.574-.91-4.32-.797-6.136.254L9.434 28.622c-1.817 1.046-2.012 2.632-.442 3.542l14.703 8.488c1.575.91 4.32.797 6.137-.254l33.574-19.375c1.817-1.05 2.016-2.636.442-3.543Zm0 0"/><path fill="#f9a92c" d="M26.36 41.418c-1.028 0-2.008-.211-2.743-.633L8.918 32.293c-.734-.422-1.14-1.016-1.14-1.668.003-.781.577-1.559 1.581-2.137L42.934 9.11c1.855-1.07 4.675-1.183 6.289-.254l14.703 8.493c.734.422 1.136 1.015 1.136 1.672 0 .777-.574 1.554-1.578 2.132L29.91 40.532c-1.015.585-2.316.886-3.55.886Zm20.12-32.89a6.833 6.833 0 0 0-3.394.847L9.512 28.75c-.907.523-1.426 1.207-1.426 1.875 0 .54.348 1.04.984 1.406l14.703 8.489c1.528.882 4.211.77 5.985-.254L63.332 20.89c.906-.524 1.426-1.207 1.426-1.871 0-.543-.352-1.043-.985-1.41L49.07 9.12c-.691-.398-1.617-.594-2.59-.594Zm0 0"/><g clip-path="url(#d)"><path fill="#fff" d="m63.848 17.066-14.7-8.492c-1.574-.906-4.32-.793-6.136.254L9.434 28.207c-1.817 1.047-2.012 2.637-.442 3.543l14.703 8.492c1.575.906 4.32.793 6.137-.254L63.406 20.61c1.817-1.047 2.016-2.632.442-3.543Zm0 0"/></g><g clip-path="url(#e)"><path fill="#f9a92c" d="M26.36 41.004c-1.028 0-2.008-.207-2.743-.629L8.918 31.883c-.734-.426-1.14-1.02-1.14-1.672.003-.777.577-1.559 1.581-2.137L42.934 8.695c1.855-1.07 4.675-1.183 6.289-.254l14.703 8.493c.734.425 1.136 1.02 1.136 1.671 0 .778-.574 1.56-1.578 2.137L29.91 40.122c-1.015.581-2.316.882-3.55.882Zm20.12-32.89a6.917 6.917 0 0 0-3.394.847L9.512 28.34c-.907.523-1.426 1.207-1.426 1.87 0 .54.348 1.04.984 1.407l14.703 8.492c1.528.883 4.211.77 5.985-.254l33.574-19.378c.906-.524 1.426-1.204 1.426-1.872 0-.539-.352-1.039-.985-1.406L49.07 8.707c-.691-.398-1.617-.594-2.59-.594Zm0 0"/></g><path fill="#f9a92c" d="M9.734 29.25 43.711 9.715c1.453-.84 3.836-.832 5.289.008l14.113 8.18c.79.46.79 1.206-.004 1.663L29.133 39.102c-1.457.84-3.836.836-5.29-.008L9.73 30.914c-.789-.46-.789-1.207.004-1.664Zm0 0"/><path fill="#f9a92c" d="M26.5 39.879c-.992 0-1.98-.215-2.73-.652l-14.114-8.18c-.433-.254-.672-.594-.672-.965.004-.375.243-.715.672-.965l.078.133-.078-.133L43.633 9.582c1.504-.863 3.945-.86 5.441.008l14.114 8.183c.433.25.671.59.667.965 0 .371-.238.711-.671.961L29.21 39.234c-.75.43-1.73.645-2.711.645ZM9.809 29.383c-.332.191-.516.441-.516.699 0 .258.184.504.516.7l14.113 8.179c1.414.82 3.719.824 5.137.008L63.03 19.434c.336-.192.52-.442.52-.7 0-.257-.184-.504-.516-.699l-14.113-8.18c-1.414-.82-3.719-.824-5.137-.007Zm0 0"/><path fill="#f9a92c" d="M9.746 29.71 43.72 10.173c1.457-.836 3.836-.832 5.289.012l14.113 8.18c.246.124.426.316.54.566.151-.383-.024-.801-.54-1.098L49.008 9.648c-1.453-.84-3.832-.843-5.29-.007L9.747 29.176c-.516.297-.695.715-.543 1.097.117-.25.297-.437.543-.562Zm0 0"/><path fill="#f9a92c" d="M45.09 9.285h.164v.59h-.164ZM62.34 17.664h.164v.586h-.164ZM10.473 28.805h.164v.59h-.164ZM24.531 40.582h.164v.45h-.164ZM29.113 40.266h.164v.449h-.164ZM9.07 31.797h.164v.45H9.07ZM62.586 21.023h.164v.45h-.164ZM21.258 39.34l.082-.145.996.578-.082.141ZM50.695 28.309l.762-.45.086.145-.766.45ZM37.223 36.04l6.453-3.724.082.141-6.453 3.727Zm0 0"/><path fill="#f9a92c" d="m27.496 41.266-.02-.164c1.399-.141 2.712-.997 2.723-1.004l.77-.45.082.141-.762.45c-.05.034-1.36.882-2.793 1.027ZM47.434 9.29h.164v.585h-.164ZM32.14 31.781l-1.128.055c-.203.012-.387-.078-.403-.195l-.054-.364c-.016-.12.136-.222.343-.234l1.125-.055c.063-.004.102-.047.063-.074-.32-.266-.867-.43-1.465-.398-.695.03-1.246.312-1.426.68l-9.59.312c-.32.008-.562.172-.535.355.024.18.293.313.602.305l9.621-.316c.281.343.906.566 1.602.53.597-.027 1.09-.241 1.332-.534.023-.032-.024-.07-.086-.067Zm0 0"/><path fill="#fff" d="M30.754 32.504c-.629 0-1.207-.2-1.512-.531l-9.566.312c-.38.016-.688-.16-.723-.402a.316.316 0 0 1 .078-.266.748.748 0 0 1 .57-.226l9.524-.313c.23-.383.805-.648 1.488-.68.614-.03 1.192.13 1.551.422.055.043.07.098.047.164-.031.082-.094.121-.184.121l-1.125.055a.305.305 0 0 0-.222.082l.047.38c.003.03.109.105.28.097l1.126-.055c.09-.012.156.023.203.102.027.054.02.109-.02.156-.273.332-.8.55-1.418.578-.046.004-.097.004-.144.004Zm-1.406-.77.035.043c.265.325.87.52 1.504.489a1.92 1.92 0 0 0 1.113-.36l-.98.047c-.274.012-.5-.113-.528-.297l-.055-.363a.255.255 0 0 1 .063-.203.525.525 0 0 1 .39-.164l.942-.047a2.266 2.266 0 0 0-1.207-.246c-.625.031-1.16.277-1.324.613l-.031.063-9.66.316a.528.528 0 0 0-.395.145c-.024.02-.031.046-.031.078.015.101.23.207.484.203Zm0 0"/><path fill="#f9a92c" d="m24.871 33.977-5.168-2.985c-.863-.5-.758-1.37.242-1.945.996-.574 2.504-.637 3.367-.14l5.172 2.984c.864.5.754 1.37-.242 1.945-.996.578-2.508.64-3.37.14Zm0 0"/><path fill="#fff" d="M26.336 34.43a3.037 3.037 0 0 1-1.523-.352l-5.168-2.984c-.415-.239-.645-.574-.645-.946 0-.441.324-.878.887-1.203 1.027-.593 2.59-.656 3.484-.14l5.172 2.984c.414.238.64.574.64.95 0 .437-.32.874-.882 1.202a3.974 3.974 0 0 1-1.965.489Zm-1.406-.555c.832.48 2.289.418 3.254-.14.488-.282.765-.645.765-.997 0-.285-.187-.55-.523-.746l-5.172-2.984c-.828-.477-2.29-.414-3.25.14-.488.282-.766.645-.766 1 0 .282.184.547.524.743Zm0 0"/><path fill="#fff" d="M22.59 29.992c.039.024.074.047.11.074l-.165.07a.42.42 0 0 0-.094-.07.532.532 0 0 0-.308-.062.662.662 0 0 0-.332.09l-.54.312-.152-.09 1.004-.578.125.075-.168.117.008.004c.094-.016.192-.02.285-.012a.57.57 0 0 1 .227.07ZM22.281 31.016c-.148-.086-.218-.18-.215-.282.004-.101.086-.199.247-.293.156-.09.324-.14.503-.152a.83.83 0 0 1 .465.102c.125.074.184.156.176.246-.012.09-.082.172-.219.25l-.097.054-.692-.398c-.113.07-.172.14-.176.207-.007.07.043.133.145.191.125.067.254.118.39.145l-.136.078a1.736 1.736 0 0 1-.203-.059 1.036 1.036 0 0 1-.188-.09Zm.871-.551a.477.477 0 0 0-.27-.067.678.678 0 0 0-.304.079l.524.3c.097-.054.148-.109.156-.164.008-.054-.028-.101-.106-.148ZM23.375 31.648a.397.397 0 0 1-.14-.125.173.173 0 0 1-.028-.144l-.012-.004c-.047.035-.101.07-.152.102l-.414.238-.152-.09 1.453-.836.125.07-.117.09.007.004a.917.917 0 0 1 .254.012.68.68 0 0 1 .215.082c.133.078.191.16.172.258-.02.093-.11.187-.273.28a1.11 1.11 0 0 1-.493.161.764.764 0 0 1-.445-.098Zm.89-.539a.548.548 0 0 0-.308-.082.802.802 0 0 0-.34.118l-.035.02c-.14.081-.219.151-.23.214-.016.062.027.125.132.183a.5.5 0 0 0 .309.06.936.936 0 0 0 .363-.126c.125-.074.196-.144.215-.21.02-.067-.02-.126-.105-.177ZM24.691 32.387l.114-.102-.008-.004a1.101 1.101 0 0 1-.277-.011.76.76 0 0 1-.22-.09c-.097-.055-.152-.117-.155-.18-.004-.063.039-.121.132-.172.203-.117.473-.086.805.094l.176.098.062-.04c.078-.043.121-.085.125-.128.004-.04-.03-.082-.11-.125a1.259 1.259 0 0 0-.358-.122l.07-.093c.078.015.152.031.226.058.07.024.137.051.2.09.12.067.18.133.187.2.004.062-.055.128-.172.195l-.683.394Zm-.234-.262a.567.567 0 0 0 .598.004l.093-.05-.16-.083a1.003 1.003 0 0 0-.316-.121.385.385 0 0 0-.238.043c-.055.031-.079.066-.075.102.004.035.036.07.098.105ZM25.27 32.719l-.153-.086 1.004-.582.152.09Zm1.109-.832a.19.19 0 0 1 .101-.028c.032 0 .063.008.09.024.024.008.035.027.04.05 0 .02-.016.04-.051.06a.19.19 0 0 1-.102.027.232.232 0 0 1-.09-.02.065.065 0 0 1-.039-.055c0-.02.02-.039.05-.058ZM27.07 32.578a.7.7 0 0 1 .11.078l-.16.067c-.032-.024-.063-.051-.098-.07a.564.564 0 0 0-.309-.063.721.721 0 0 0-.332.094l-.535.308-.152-.086 1-.582.125.074-.168.118.008.004c.097-.016.191-.02.285-.008a.564.564 0 0 1 .226.066Zm0 0"/><path fill="#f9a92c" d="m48.234 20.941-.675-1.457c-.114-.246-.547-.39-.97-.324l-.769.117a4.944 4.944 0 0 0-1.039-.597l.207-.446c.114-.242-.14-.496-.562-.558l-2.524-.39c-.422-.067-.855.077-.968.32l-.207.445c-.48.035-.954.11-1.418.219l-.563-.325a1.188 1.188 0 0 0-1.121 0l-1.848 1.067c-.308.18-.308.468 0 .648l.563.324c-.184.246-.309.52-.38.82l-.769.118c-.421.066-.675.316-.562.558l.68 1.461c.113.243.546.387.968.32l.77-.116a4.944 4.944 0 0 0 1.039.597l-.207.445c-.113.247.137.497.559.56l2.523.39c.426.066.86-.078.973-.32l.207-.446c.476-.035.949-.11 1.418-.219l.562.325c.371.187.746.187 1.121 0l1.848-1.067c.308-.18.308-.469 0-.648l-.563-.325c.18-.246.309-.519.38-.82l.769-.117c.422-.066.672-.316.558-.559Zm0 0"/><path fill="#fff" d="M41.168 25.273c-.074 0-.148-.007-.223-.02l-2.523-.39a.819.819 0 0 1-.64-.367.378.378 0 0 1-.009-.36l.157-.335a4.983 4.983 0 0 1-.914-.531l-.723.109c-.477.074-.957-.098-1.094-.39l-.676-1.458a.36.36 0 0 1 .012-.355.816.816 0 0 1 .637-.371l.691-.106c.067-.242.168-.469.309-.676l-.453-.261a.421.421 0 0 1-.293-.426c0-.207.097-.352.293-.426l1.847-1.066c.41-.211.825-.211 1.239 0l.52.3a8.966 8.966 0 0 1 1.323-.203l.176-.382c.137-.293.621-.465 1.098-.391l2.523.39c.27.02.485.145.637.368.066.117.07.238.012.36l-.157.335c.165.074.317.152.458.234.156.09.308.192.453.301l.722-.113c.48-.074.961.098 1.094.39l.676 1.458a.378.378 0 0 1-.008.359.83.83 0 0 1-.64.367l-.692.106a2.347 2.347 0 0 1-.305.675l.453.262c.192.078.29.219.29.426a.423.423 0 0 1-.29.426l-1.847 1.066a1.27 1.27 0 0 1-1.239 0l-.523-.3a9.345 9.345 0 0 1-1.324.206l-.176.38c-.113.245-.473.41-.871.41Zm-4.09-2.253.04.03c.152.114.308.22.472.313.176.102.355.192.543.274l.11.047-.259.554a.145.145 0 0 0 .008.149c.113.152.27.234.465.246l2.523.39c.399.063.766-.085.844-.257l.239-.508.066-.004a8.943 8.943 0 0 0 1.402-.215l.047-.012.602.348c.332.164.668.164 1.004 0l1.847-1.066c.114-.032.172-.102.172-.223 0-.117-.058-.191-.172-.223l-.676-.386.075-.106c.175-.234.293-.496.36-.777l.019-.078.847-.133a.581.581 0 0 0 .465-.246.145.145 0 0 0 .008-.149l-.676-1.457c-.082-.172-.445-.316-.848-.254l-.816.125-.043-.03a4.886 4.886 0 0 0-.469-.313 7.056 7.056 0 0 0-.543-.274l-.109-.047.254-.554a.138.138 0 0 0-.004-.145.602.602 0 0 0-.465-.25l-2.527-.387c-.399-.062-.766.082-.844.254l-.234.508-.07.004a8.469 8.469 0 0 0-1.4.219l-.046.008-.602-.348a1.085 1.085 0 0 0-1.003 0l-1.848 1.066c-.117.032-.172.106-.172.223s.055.191.172.223l.676.386-.078.11c-.172.23-.293.492-.36.773l-.015.078-.852.133a.587.587 0 0 0-.465.246.144.144 0 0 0-.004.149l.676 1.457c.078.172.445.316.844.257Zm0 0"/><path fill="#f9a92c" d="M43.797 22.578c-1.305.754-3.422.754-4.73 0-1.305-.754-1.305-1.976 0-2.734 1.308-.754 3.425-.754 4.73 0 1.308.754 1.308 1.98 0 2.734Zm0 0"/><path fill="#fff" d="M41.434 23.258a4.9 4.9 0 0 1-2.426-.578c-.668-.387-1.04-.91-1.04-1.47 0-.558.372-1.081 1.04-1.468 1.336-.77 3.512-.77 4.847 0 .672.387 1.04.91 1.04 1.469s-.368 1.082-1.04 1.469a4.895 4.895 0 0 1-2.421.578Zm0-3.863a4.664 4.664 0 0 0-2.309.55c-.594.344-.922.793-.922 1.266s.328.922.922 1.266c1.273.734 3.344.734 4.613 0 .594-.344.922-.793.922-1.266s-.328-.922-.922-1.266a4.64 4.64 0 0 0-2.304-.55Zm0 0"/><path fill="#f9a92c" d="m46.54 14.695-.22-.468a.18.18 0 0 0-.195-.067l-.46.074c-.095-.09-.2-.168-.313-.234a2.477 2.477 0 0 0-.403-.18l.121-.265c.024-.051-.027-.102-.113-.114l-.809-.125c-.082-.02-.144 0-.195.067l-.125.265c-.332 0-.66.051-.976.149l-.336-.195a.256.256 0 0 0-.227 0l-.594.343c-.03.012-.047.032-.047.067 0 .031.016.054.047.066l.336.192a.829.829 0 0 0-.261.566l-.461.07c-.086.012-.137.063-.114.114l.22.468a.18.18 0 0 0 .194.067l.457-.075c.098.094.204.168.317.235.129.074.262.133.402.18l-.125.265c-.023.05.028.102.113.113l.813.125c.078.02.144 0 .195-.062l.125-.266c.332-.004.657-.054.977-.152l.336.195a.257.257 0 0 0 .226 0l.594-.343c.031-.012.047-.032.047-.067a.067.067 0 0 0-.047-.066l-.336-.192a.846.846 0 0 0 .262-.566l.46-.07c.083-.012.134-.063.114-.114Zm0 0"/><path fill="#fff" d="M43.625 16.52c-.02 0-.04 0-.059-.004l-.808-.125a.254.254 0 0 1-.2-.125.17.17 0 0 1-.003-.157l.07-.148a2.128 2.128 0 0 1-.3-.145 1.549 1.549 0 0 1-.294-.21l-.402.062c-.14.031-.246-.012-.324-.129l-.215-.469a.159.159 0 0 1 .004-.156.248.248 0 0 1 .199-.125l.367-.055a.981.981 0 0 1 .188-.433l-.211-.121a.175.175 0 0 1-.106-.168c0-.078.035-.133.106-.168l.593-.344a.358.358 0 0 1 .344 0l.29.168c.292-.082.585-.129.89-.137l.09-.199c.078-.121.183-.164.32-.133l.813.125c.086.008.152.051.199.125a.17.17 0 0 1 .004.156l-.07.149c.1.043.203.09.3.144.106.059.203.13.293.211l.402-.062c.137-.031.247.012.32.129l.22.469a.17.17 0 0 1-.004.156.254.254 0 0 1-.2.125l-.367.054a.945.945 0 0 1-.191.434l.215.121c.07.035.105.09.105.168a.175.175 0 0 1-.105.168l-.594.344a.358.358 0 0 1-.344 0l-.293-.168c-.289.082-.586.129-.887.137l-.093.199a.257.257 0 0 1-.262.137Zm-.832-.364.809.13c.03.003.054 0 .082-.013l.144-.32.074-.004a3.1 3.1 0 0 0 .946-.144l.047-.016.382.223a.133.133 0 0 0 .11 0l.531-.309-.406-.23.105-.11a.73.73 0 0 0 .23-.488l.005-.098.554-.086-.191-.414c0 .004-.02 0-.047 0h-.027l-.516.082-.043-.043a1.587 1.587 0 0 0-.289-.214 2.796 2.796 0 0 0-.383-.172l-.12-.043.151-.328-.812-.125a.107.107 0 0 0-.078.007l-.149.32-.074.005c-.32 0-.633.05-.941.144l-.051.016-.379-.219a.133.133 0 0 0-.11 0l-.53.305.402.23-.102.11a.713.713 0 0 0-.23.488l-.004.098-.555.085.192.415c0-.004.02 0 .042 0h.028l.52-.083.038.043c.09.082.188.153.293.215.121.07.25.125.383.172l.121.043Zm0 0"/><path fill="#f9a92c" d="M44.64 14.86c0 .12-.074.226-.226.312a1.05 1.05 0 0 1-.547.133c-.215 0-.398-.043-.547-.133-.152-.086-.226-.192-.226-.313 0-.125.074-.23.226-.316.149-.09.332-.133.547-.133.215 0 .395.043.547.133.152.086.227.191.227.316Zm0 0"/><path fill="#fff" d="M43.867 15.422a1.206 1.206 0 0 1-.605-.145.413.413 0 0 1-.285-.418.41.41 0 0 1 .285-.418c.402-.21.808-.21 1.21 0a.41.41 0 0 1 .286.418.413.413 0 0 1-.285.418c-.188.102-.391.149-.606.145Zm0-.895a.97.97 0 0 0-.488.118c-.11.062-.168.136-.168.214 0 .075.059.153.168.211.324.164.648.164.976 0 .106-.058.168-.136.168-.21 0-.079-.062-.153-.168-.215a.97.97 0 0 0-.488-.118Zm0 0"/><path fill="#f9a92c" d="m42.43 27.617-.203-.441c-.051-.059-.11-.082-.188-.063l-.43.067a1.476 1.476 0 0 0-.297-.215 1.913 1.913 0 0 0-.374-.172l.113-.25c.023-.047-.024-.094-.106-.105l-.761-.118a.165.165 0 0 0-.184.059l-.117.25c-.313.004-.617.05-.918.144l-.317-.183a.224.224 0 0 0-.21 0l-.56.32c-.026.012-.042.031-.042.063 0 .03.016.05.043.062l.316.184a.763.763 0 0 0-.246.527l-.433.067c-.078.015-.125.062-.106.109l.203.437c.051.063.114.082.188.063l.43-.067c.09.086.187.157.296.22.121.066.246.124.375.167l-.113.25c-.023.047.023.094.106.106l.761.117c.074.02.137 0 .184-.059l.117-.25c.313-.004.617-.05.918-.14l.316.18c.07.034.141.034.211 0l.559-.321c.031-.012.043-.031.043-.063 0-.03-.012-.05-.043-.062l-.316-.18a.771.771 0 0 0 .246-.53l.433-.067c.078-.012.125-.063.106-.106Zm0 0"/><path fill="#fff" d="M39.695 29.336c-.02 0-.039 0-.058-.004l-.762-.117a.235.235 0 0 1-.188-.117.17.17 0 0 1-.007-.157l.062-.132a1.968 1.968 0 0 1-.55-.328l-.376.058a.273.273 0 0 1-.308-.129l-.203-.441a.162.162 0 0 1 .004-.153c.043-.07.109-.109.191-.117l.34-.054a.924.924 0 0 1 .176-.395l-.196-.113c-.07-.032-.101-.086-.101-.164a.17.17 0 0 1 .101-.164l.559-.32a.328.328 0 0 1 .328 0l.273.156c.27-.079.547-.122.829-.13l.086-.183c.07-.117.175-.156.308-.129l.762.117a.242.242 0 0 1 .191.121.162.162 0 0 1 .004.153l-.062.133c.093.039.187.082.277.132.098.059.188.121.273.196l.375-.055c.133-.031.235.012.309.125l.203.441a.162.162 0 0 1-.004.153.25.25 0 0 1-.191.12l-.34.052a.894.894 0 0 1-.176.398l.196.11a.17.17 0 0 1 .101.163c0 .079-.031.133-.101.165l-.56.32a.328.328 0 0 1-.327 0l-.274-.156c-.27.078-.547.125-.828.132l-.082.18a.256.256 0 0 1-.254.133Zm-.773-.352.754.118c.023.003.047 0 .066-.012l.137-.3h.074a3.09 3.09 0 0 0 .887-.138l.047-.015.363.207a.1.1 0 0 0 .094 0l.488-.282-.375-.214.102-.11a.656.656 0 0 0 .214-.453l.004-.098.52-.082-.18-.378c.004.003-.012.003-.031.003h-.027l-.489.075-.043-.04a1.259 1.259 0 0 0-.273-.199 1.956 1.956 0 0 0-.356-.164l-.125-.043.145-.308-.75-.113a.086.086 0 0 0-.07.007l-.137.301h-.074c-.301.004-.598.05-.887.137l-.047.015-.363-.207a.13.13 0 0 0-.094 0l-.488.282.375.218-.102.106a.68.68 0 0 0-.215.453l-.004.098-.519.082.18.383c-.004-.008.011-.004.03-.004.013 0 .02 0 .028-.004l.489-.075.042.04c.083.078.172.144.274.203.113.062.23.117.355.16l.125.043Zm0 0"/><path fill="#f9a92c" d="M40.434 28.066a1.088 1.088 0 0 1-1.028 0c-.285-.164-.285-.43 0-.593a1.067 1.067 0 0 1 1.028 0c.285.164.285.43 0 .593Zm0 0"/><path fill="#fff" d="M39.922 28.305a1.175 1.175 0 0 1-.574-.137c-.184-.074-.274-.207-.274-.398 0-.196.09-.329.274-.399.382-.2.761-.2 1.144 0 .184.07.274.203.274.399 0 .19-.09.324-.274.398a1.16 1.16 0 0 1-.57.137Zm0-.84a.92.92 0 0 0-.457.11c-.098.054-.153.124-.153.195 0 .066.055.136.153.195a.986.986 0 0 0 .91 0c.098-.059.156-.13.156-.195 0-.07-.058-.141-.156-.196a.915.915 0 0 0-.453-.11Zm0 0"/><path fill="#f9a92c" d="M31.16 18.195a.405.405 0 0 0-.14-.152l-8.48 4.875c.093.043.187.074.288.09l2.305.355c.387.059.785-.07.887-.293l.187-.406a8.072 8.072 0 0 0 1.297-.203l.516.297c.34.176.68.176 1.023 0l1.687-.973c.282-.164.282-.43 0-.59l-.515-.297c.168-.226.285-.476.348-.75l.703-.109c.386-.059.613-.289.511-.512Zm0 0"/><path fill="#fff" d="M25.32 23.496c-.066 0-.136-.004-.203-.016l-2.308-.355a1.135 1.135 0 0 1-.32-.102l-.196-.097 8.734-5.024.063.043c.074.051.137.117.176.203l.617 1.329a.361.361 0 0 1-.008.34.758.758 0 0 1-.59.34l-.629.097a2.16 2.16 0 0 1-.27.605l.403.235c.18.07.27.203.27.394 0 .196-.09.328-.27.399l-1.687.976a1.183 1.183 0 0 1-1.141 0l-.477-.273a8.23 8.23 0 0 1-1.199.183l-.16.344c-.105.23-.438.38-.805.38Zm-2.492-.61c.004.005 2.324.36 2.324.36.36.059.688-.074.762-.226l.215-.47.07-.003c.43-.031.856-.098 1.278-.2l.046-.011.555.32c.3.153.602.153.906 0l1.688-.972c.098-.059.152-.13.152-.196s-.054-.136-.152-.191l-.629-.363.078-.106c.156-.21.266-.45.328-.707l.016-.078.781-.121a.565.565 0 0 0 .422-.219.13.13 0 0 0 .004-.125l-.621-1.332a.164.164 0 0 0-.043-.062Zm0 0"/><path fill="#f9a92c" d="M24.988 21.508c.961.105 1.992-.055 2.735-.485.742-.425 1.023-1.02.843-1.57Zm0 0"/><path fill="#fff" d="M25.563 21.656a4.208 4.208 0 0 1-.586-.031l-.36-.04 4.016-2.308.047.141c.203.629-.133 1.266-.899 1.707a4.435 4.435 0 0 1-2.218.531Zm-.18-.238a4.293 4.293 0 0 0 2.281-.496c.602-.348.898-.82.824-1.29Zm0 0"/><path fill="#f9a92c" d="m51.371 25.543.004.004 8.152-4.684c-.011 0-.023-.004-.039-.008l-2.246-.347c-.375-.059-.762.07-.863.289l-.184.394a8.193 8.193 0 0 0-1.265.196l-.5-.29a1.048 1.048 0 0 0-.996 0l-1.645.95c-.277.16-.277.418 0 .578l.5.29a1.93 1.93 0 0 0-.336.726l-.687.105c-.375.059-.598.281-.496.5Zm0 0"/><path fill="#fff" d="m51.32 25.715-.054-.117.105-.055-.105.05-.606-1.296a.357.357 0 0 1 .012-.332.74.74 0 0 1 .578-.332l.605-.094c.06-.21.145-.406.266-.59l-.39-.222a.388.388 0 0 1-.266-.391c0-.191.09-.32.265-.39l1.645-.95a1.151 1.151 0 0 1 1.113 0l.461.266c.387-.09.774-.149 1.168-.18l.156-.336c.122-.266.555-.418.989-.355l2.277.355.285.07Zm2.614-4.617a.906.906 0 0 0-.442.101l-1.644.95c-.094.054-.149.12-.149.187 0 .062.055.133.149.184l.613.355-.078.105a1.87 1.87 0 0 0-.317.688l-.015.078-.766.117a.542.542 0 0 0-.406.215.115.115 0 0 0-.004.117l.55 1.188 7.759-4.453-1.961-.305c-.348-.055-.668.074-.739.223l-.21.457-.07.004a7.94 7.94 0 0 0-1.247.191l-.043.012-.543-.313a.9.9 0 0 0-.437-.101Zm0 0"/><path fill="#f9a92c" d="M57.047 22.293c-.836-.04-1.692.129-2.328.496-.637.367-.922.856-.864 1.332Zm0 0"/><path fill="#fff" d="m53.758 24.313-.02-.176c-.066-.547.27-1.075.922-1.45a4.45 4.45 0 0 1 2.39-.515l.407.02Zm2.847-1.903a4.034 4.034 0 0 0-1.828.48c-.488.282-.77.65-.808 1.032ZM16.758 39.605h-.422a.293.293 0 0 1-.203-.085.271.271 0 0 1-.082-.2v-.422a.28.28 0 0 1 .285-.285h.422a.28.28 0 0 1 .281.285v.422a.271.271 0 0 1-.082.2.291.291 0 0 1-.2.085Zm-.422-.757c-.035 0-.05.015-.05.05v.422c0 .032.015.047.05.047h.422c.031 0 .047-.015.047-.047v-.422c0-.035-.016-.05-.047-.05ZM60.195 30.016h.235v1.195h-.235Zm0 0"/><path fill="#fff" d="M59.715 30.492h1.195v.238h-1.195ZM65.973 16.27a.478.478 0 0 1-.352-.145.463.463 0 0 1-.144-.348c0-.136.046-.254.144-.351a.478.478 0 0 1 .352-.145c.136 0 .254.047.347.145a.478.478 0 0 1 .145.351.463.463 0 0 1-.145.348.469.469 0 0 1-.347.145Zm0-.754a.248.248 0 0 0-.184.078.254.254 0 0 0 0 .367c.05.05.11.074.184.074a.25.25 0 0 0 .183-.074.25.25 0 0 0 .074-.184.244.244 0 0 0-.074-.183.254.254 0 0 0-.183-.078ZM67.121 16.363h.234v1.196h-.234Zm0 0"/><path fill="#fff" d="M66.64 16.844h1.196v.234H66.64Zm0 0"/></svg>