<svg xmlns="http://www.w3.org/2000/svg" width="200" viewBox="0 0 150 150" height="200" version="1.0"><defs><clipPath id="a"><path d="M6.164 3.777h142.5v142.5H6.164zm0 0"/></clipPath></defs><g clip-path="url(#a)"><path fill="#faa927" d="m142.91 25.672-37.937 37.945-6.715-6.71 37.949-37.942c1.215-1.223 3.328-1.223 4.555 0l2.148 2.152c.613.613.95 1.418.95 2.281 0 .856-.337 1.66-.95 2.274zm-39.613 46.34-3.277 3.273-13.426-13.43 3.273-3.273a2.374 2.374 0 0 1 3.356 0l10.074 10.07c.926.93.926 2.43 0 3.36zM76.43 117.246c3.273-4.848 3.328-10.023 3.328-10.32 0-.938-.547-1.781-1.399-2.16a2.381 2.381 0 0 0-2.543.379c-4.105 3.625-9.968 5.46-17.421 5.46-3.786 0-7.364-.59-10.704-1.761 3.524-3.465 3.579-7.52 3.579-7.735a2.377 2.377 0 0 0-2.372-2.37c-9.757 0-18.984-8.079-18.992-16.622 0-4.84 1.094-7.324 1.985-8.531 1.703 1.719 4.82 3.785 9.882 3.785 6.54 0 10.028-4.117 13.391-8.105 3.703-4.375 7.2-8.512 15.098-8.512 6.855 0 10.933 2.594 11.445 2.93L98.02 79.996c1.39 3.125 2.113 6.324 2.113 9.504 0 12.148-7.465 25.133-23.703 27.746zM45.91 103.29c-.594 1.254-1.77 2.793-4.09 3.934a2.36 2.36 0 0 0-1.324 2.105 2.362 2.362 0 0 0 1.29 2.133c5.023 2.586 10.616 3.894 16.609 3.894 5.988 0 11.152-1.074 15.421-3.199-.863 2.04-2.34 4.285-4.87 5.973a2.357 2.357 0 0 0-.954 2.66 2.37 2.37 0 0 0 2.27 1.688c4.36 0 8.32-.622 11.87-1.723v11.219H20.41V18.02h7.121v2.375a7.12 7.12 0 0 0 7.121 7.12h33.239a7.123 7.123 0 0 0 7.12-7.12V18.02h7.122v40.5c-2.39-1.125-6.426-2.516-11.871-2.516-10.106 0-14.883 5.656-18.723 10.191-3.031 3.59-5.426 6.426-9.766 6.426-5.453 0-7.316-3.328-7.37-3.437a2.38 2.38 0 0 0-2.821-1.207c-.656.203-6.426 2.308-6.426 14.14.008 10.285 9.57 19.719 20.754 21.172zm38.598 38.18H18.035a7.12 7.12 0 0 1-7.12-7.121V15.645a7.123 7.123 0 0 1 7.12-7.122h66.473a7.125 7.125 0 0 1 7.12 7.122v37.503a7.103 7.103 0 0 0-4.745 1.77V18.02c0-2.614-2.137-4.747-4.75-4.747h-7.121a4.757 4.757 0 0 0-4.75 4.747v2.375a2.378 2.378 0 0 1-2.371 2.375H34.652a2.379 2.379 0 0 1-2.375-2.375V18.02a4.756 4.756 0 0 0-4.746-4.747h-7.12a4.757 4.757 0 0 0-4.75 4.747v113.953a4.758 4.758 0 0 0 4.75 4.75h61.722a4.76 4.76 0 0 0 4.75-4.75v-13.13c1.695-.827 3.289-1.753 4.746-2.812v18.317a7.123 7.123 0 0 1-7.121 7.12zm59.601-125.86c-3.007-3.015-8.246-3.015-11.257 0L96.379 52.074v-36.43c0-6.546-5.324-11.867-11.871-11.867H18.035c-6.547 0-11.87 5.32-11.87 11.868v118.703c0 6.547 5.323 11.87 11.87 11.87h66.473c6.547 0 11.87-5.323 11.87-11.87v-22.543c5.61-6.168 8.5-14.254 8.5-22.305 0-3.457-.722-6.906-2.066-10.293l3.84-3.84c2.188-2.187 2.625-5.441 1.371-8.086l38.247-38.254a7.875 7.875 0 0 0 2.335-5.629 7.868 7.868 0 0 0-2.335-5.628l-2.16-2.16"/></g><path fill="#faa927" d="M41.773 18.02h2.375a2.379 2.379 0 0 0 2.375-2.375 2.378 2.378 0 0 0-2.375-2.372h-2.375a2.377 2.377 0 0 0-2.37 2.372 2.378 2.378 0 0 0 2.37 2.375M53.645 18.02h7.12a2.379 2.379 0 0 0 2.376-2.375 2.378 2.378 0 0 0-2.375-2.372h-7.121a2.378 2.378 0 0 0-2.375 2.372 2.379 2.379 0 0 0 2.375 2.375M27.531 41.762c.61 0 1.215-.235 1.676-.696l4.75-4.75a2.374 2.374 0 0 0 0-3.355 2.367 2.367 0 0 0-3.355 0l-4.75 4.746a2.379 2.379 0 0 0 0 3.36c.464.46 1.066.695 1.68.695M48.2 32.96a2.367 2.367 0 0 0-3.356 0L25.852 51.954a2.374 2.374 0 0 0 1.68 4.05c.609 0 1.214-.23 1.675-.694l18.992-18.993c.93-.925.93-2.43 0-3.355M76.688 73.32a2.367 2.367 0 0 0-3.356 0c-8.66 8.66-21.934 8.797-22.07 8.797a2.376 2.376 0 0 0 .008 4.75c.62 0 15.347-.113 25.417-10.191.93-.926.93-2.43 0-3.356M86.352 82.332a2.358 2.358 0 0 0-3.133 1.188c-2.969 6.546-8.543 8.105-8.793 8.168a2.377 2.377 0 0 0-1.715 2.874 2.366 2.366 0 0 0 2.3 1.801c.184 0 .38-.027.575-.074.324-.082 8.004-2.086 11.953-10.82.54-1.2.008-2.598-1.187-3.137"/></svg>