<svg xmlns="http://www.w3.org/2000/svg" width="200" viewBox="0 0 150 150" height="200" version="1.0"><defs><clipPath id="a"><path d="M110 48h38.52v28H110zm0 0"/></clipPath></defs><path fill="#f9a92c" d="m101.941 114.227 7.012 9.824a67.027 67.027 0 0 0 5.356-4.742l-8.813-8.235a52.387 52.387 0 0 1-3.555 3.153m7.215-7.055 8.809 8.234a66.58 66.58 0 0 0 3.91-5l-10.133-6.558a54.807 54.807 0 0 1-2.586 3.324m-18.949 14.305 4.156 11.343a66.662 66.662 0 0 0 9.153-4.886l-7.012-9.829a54.63 54.63 0 0 1-6.297 3.372M118.43 91.41l11.054 4.82c.47-1.207.91-2.425 1.313-3.668l-11.45-3.699c-.277.864-.6 1.707-.917 2.547"/><path fill="#f9a92c" d="M78.035 125.36c-29.254 5.57-57.586-13.696-63.152-42.954-5.574-29.254 13.695-57.582 42.949-63.152 13.242-2.52 26.68.055 37.883 6.781l-4.488 4.625 25.48 5.934-6.777-25.2-5.63 5.801a66.038 66.038 0 0 0-48.718-9.761C19.812 14.246-3.75 48.887 3.062 84.656c6.81 35.774 41.454 59.336 77.223 52.524a65.379 65.379 0 0 0 6.55-1.598l-4.155-11.348c-1.528.434-3.07.829-4.645 1.125m36.625-25.996 10.113 6.551a66.016 66.016 0 0 0 2.575-4.781l-11.055-4.82a55.494 55.494 0 0 1-1.633 3.05"/><path fill="#1f4482" d="M70.766 90.176c.804-1.895 1.207-4.028 1.207-6.403 0-2.984-.606-5.437-1.813-7.359-1.21-1.922-2.953-3.355-5.226-4.305 1.847-1.09 3.234-2.593 4.16-4.515a13.815 13.815 0 0 0 1.386-6.082c0-1.895-.378-3.637-1.136-5.227a12.415 12.415 0 0 0-3.133-4.09c-1.328-1.136-2.879-2.015-4.656-2.633-1.778-.613-3.688-.921-5.727-.921-2.23 0-4.277.367-6.152 1.101-1.875.738-3.485 1.766-4.836 3.094-1.352 1.328-2.395 2.918-3.13 4.766-.737 1.847-1.105 3.91-1.105 6.187h8.61c0-2.465.59-4.375 1.777-5.727 1.184-1.351 2.68-2.023 4.48-2.023 2.133 0 3.688.613 4.66 1.848.97 1.234 1.458 3.035 1.458 5.406a7.81 7.81 0 0 1-.39 2.453c-.263.781-.74 1.469-1.423 2.063-.687.593-1.66 1.066-2.918 1.421-1.257.356-2.882.536-4.87.536v6.468c3.84 0 6.554.547 8.144 1.637 1.586 1.094 2.383 3.012 2.383 5.762 0 2.515-.641 4.445-1.922 5.797-1.282 1.351-2.895 2.027-4.836 2.027-2.324 0-4.078-.629-5.262-1.887-1.187-1.254-1.777-3.257-1.777-6.007h-8.895c0 4.835 1.352 8.628 4.055 11.378 2.703 2.75 6.52 4.125 11.453 4.125 2.465 0 4.715-.355 6.754-1.066 2.039-.71 3.793-1.719 5.266-3.023 1.468-1.301 2.605-2.903 3.414-4.801m25.675-8.071c-.285 2.25-.699 4.079-1.246 5.477-.543 1.398-1.23 2.418-2.062 3.059-.828.64-1.813.96-2.953.96-1.137 0-2.121-.308-2.95-.925-.832-.617-1.53-1.637-2.101-3.059-.567-1.422-.992-3.273-1.277-5.547-.286-2.277-.426-5.05-.426-8.324 0-3.27.14-6.031.426-8.285.285-2.254.71-4.078 1.277-5.477.57-1.398 1.27-2.406 2.101-3.023.829-.617 1.813-.922 2.95-.922 1.14 0 2.125.316 2.953.957.832.64 1.52 1.66 2.062 3.059.547 1.402.961 3.238 1.246 5.511.282 2.278.426 5.051.426 8.32 0 3.227-.144 5.966-.426 8.22zm5.442 10.739c2.914-4.149 4.37-10.61 4.37-19.383 0-4.41-.378-8.176-1.136-11.309-.758-3.129-1.836-5.687-3.234-7.68-1.403-1.992-3.106-3.46-5.121-4.41-2.02-.949-4.305-1.421-6.864-1.421-2.562 0-4.84.472-6.828 1.422-1.992.949-3.675 2.43-5.05 4.445s-2.418 4.601-3.13 7.754c-.71 3.152-1.066 6.933-1.066 11.343 0 4.457.356 8.286 1.067 11.485.71 3.203 1.754 5.832 3.129 7.894 1.375 2.063 3.058 3.594 5.05 4.59 1.989.996 4.266 1.492 6.828 1.492 5.075 0 9.067-2.074 11.985-6.222"/><g clip-path="url(#a)"><path fill="#1f4482" d="M147.848 54.012a8.906 8.906 0 0 0-1.852-2.82 8.232 8.232 0 0 0-2.848-1.88c-1.113-.449-2.332-.671-3.656-.671-1.683 0-3.117.332-4.3.992-1.18.664-2.133 1.73-2.848 3.199a15.224 15.224 0 0 0-1.504-1.934 7.551 7.551 0 0 0-1.586-1.316 5.85 5.85 0 0 0-1.879-.727c-.7-.144-1.5-.214-2.395-.214-1.753 0-3.257.324-4.511.964-1.258.649-2.332 1.848-3.227 3.602v-3.871h-6.555V75.78h6.985V59.71c0-3.441 1.414-5.16 4.246-5.16.754 0 1.398.082 1.934.242.539.16.976.437 1.316.832.344.398.582.934.727 1.613.144.684.214 1.559.214 2.633v15.91h6.989v-15.8c0-1.614.418-2.958 1.261-4.032.84-1.074 1.91-1.613 3.196-1.613 1.254 0 2.261.504 3.011 1.508.754 1 1.13 2.308 1.13 3.922V75.78h6.824V57.453a8.847 8.847 0 0 0-.672-3.441"/></g><path fill="#f9a92c" d="M37.984 56.117c.938-2.355 2.297-4.426 4.043-6.14 1.739-1.704 3.817-3.04 6.184-3.97 2.332-.913 4.894-1.378 7.617-1.378 2.477 0 4.844.387 7.04 1.144a18.502 18.502 0 0 1 5.222 2.809V24.926c-26.172 0-47.387 21.215-47.387 47.386a47.2 47.2 0 0 0 11.082 30.458c8.692 10.347 21.73 16.925 36.305 16.925V99.441a20.257 20.257 0 0 1-4.68 2.344c-2.457.86-5.176 1.293-8.078 1.293-6.023 0-10.84-1.789-14.312-5.324-3.454-3.512-5.204-8.29-5.204-14.192v-4.011h12.16V67.8H36.599v-4.012c0-2.777.465-5.355 1.386-7.672"/></svg>