<svg xmlns="http://www.w3.org/2000/svg" width="100" viewBox="0 0 75 75" height="100" version="1.0"><defs><clipPath id="a"><path d="M.45.914H74.7v73.5H.45Zm0 0"/></clipPath></defs><g clip-path="url(#a)"><path fill="#f9a92c" d="M74.54 70.941a3.154 3.154 0 0 1-3.157 3.153H3.617A3.154 3.154 0 0 1 .461 70.94ZM6.296 41.277V5.051A4.131 4.131 0 0 1 10.43.92h54.14a4.128 4.128 0 0 1 4.13 4.13v36.226a4.131 4.131 0 0 1-4.13 4.133H10.43a4.134 4.134 0 0 1-4.133-4.133Zm30.535-38.68a.669.669 0 1 0 1.336 0 .668.668 0 1 0-1.336 0ZM9.844 40.158c0 1.175.949 2.124 2.125 2.124H63.03c1.176 0 2.125-.949 2.125-2.125V6.172c0-1.172-.949-2.125-2.125-2.125H11.97a2.125 2.125 0 0 0-2.125 2.125Zm64.582 30.16H.574l6.153-22.239a2.617 2.617 0 0 1 2.527-1.926h56.492c1.18 0 2.215.785 2.527 1.926ZM6.027 61.62h62.946l-3.2-12.797H9.36Zm36.805 2.984a.816.816 0 0 0-.816-.816h-9.032a.816.816 0 0 0-.816.816v2.872c0 .453.367.816.816.816h9.032c.449 0 .816-.363.816-.816Zm2.89-41.16-2.105.703c.004.102.008.207.008.313 0 .078 0 .152-.004.23l2.102.704-.274 1.527-2.199-.055a8.197 8.197 0 0 1-.184.52l1.72 1.367-.778 1.348-2.04-.801c-.113.148-.234.289-.355.43l1.14 1.863-1.19 1-1.63-1.442c-.16.098-.324.196-.492.285l.434 2.13-1.46.535-1.036-1.91a7.06 7.06 0 0 1-.563.097l-.32 2.148h-1.555l-.32-2.148a6.496 6.496 0 0 1-.562-.098l-1.04 1.91-1.46-.535.437-2.129c-.168-.09-.332-.187-.492-.285l-1.633 1.442-1.187-1 1.14-1.864a7.473 7.473 0 0 1-.36-.43l-2.034.802-.778-1.348 1.72-1.367a11.725 11.725 0 0 1-.188-.52l-2.2.055-.27-1.527 2.102-.704c-.003-.078-.003-.152-.003-.23 0-.106 0-.211.003-.313l-2.101-.703.27-1.53 2.226.058a5.55 5.55 0 0 1 .187-.504l-1.746-1.387.778-1.348 2.086.825c.109-.141.222-.274.34-.403l-1.172-1.914 1.187-1 1.688 1.492c.148-.09.296-.175.449-.257l-.45-2.207 1.462-.532 1.078 1.98c.168-.034.336-.062.507-.085l.336-2.235h1.555l.332 2.235c.172.023.34.05.508.086l1.078-1.98 1.461.53-.45 2.208c.153.082.305.168.454.257l1.684-1.492 1.19 1-1.171 1.914c.117.13.23.262.34.403l2.086-.825.777 1.348-1.746 1.387c.066.164.129.332.184.504l2.226-.059Zm-6.542-4.004-1.903 3.297c.477.375.813.926.91 1.551h3.626a6.096 6.096 0 0 0-2.633-4.848Zm-.657-.394a6.069 6.069 0 0 0-5.613 0l1.934 3.348c.285-.114.593-.18.922-.18.297 0 .582.055.843.148Zm-8.902 5.242h3.719a2.459 2.459 0 0 1 .847-1.5l-1.93-3.348a6.09 6.09 0 0 0-2.636 4.848Zm.027.766a6.098 6.098 0 0 0 2.786 4.543l1.757-3.047a2.462 2.462 0 0 1-.851-1.496Zm3.454 4.914a6.05 6.05 0 0 0 2.617.59c.933 0 1.82-.211 2.613-.59l-1.727-2.996a2.477 2.477 0 0 1-1.758-.027Zm8.687-4.914h-3.602a2.475 2.475 0 0 1-.914 1.547l1.73 2.996a6.12 6.12 0 0 0 2.786-4.543Zm6.344-11.79c-.207.485-.512.91-.89 1.258l.448.918-.597.41-.696-.742a3.68 3.68 0 0 1-1.5.391l-.242.984-.722-.07-.055-1.012a3.713 3.713 0 0 1-1.399-.668l-.82.598-.512-.52.614-.812a3.733 3.733 0 0 1-.633-1.406l-1.027-.07-.055-.727 1.008-.23a3.62 3.62 0 0 1 .414-1.473l-.75-.723.422-.594.933.477c.352-.367.778-.66 1.25-.856l-.11-1.046.704-.184.414.969c.246-.024.5-.028.758-.004.258.027.508.078.746.152l.59-.875.656.313-.309 1.004c.43.285.793.652 1.067 1.078l1.008-.285.3.66-.87.566c.132.445.183.926.136 1.418l-.012.106.946.421-.192.7Zm-3.07-4.285-.098 1.813a1.142 1.142 0 0 1 .7.437l1.565-.796a2.844 2.844 0 0 0-2.167-1.454Zm1.91 4.598-1.375-.89a1.157 1.157 0 0 1-.75.374l-.082 1.598a2.865 2.865 0 0 0 2.207-1.082Zm-2.567 1.063.086-1.606a1.014 1.014 0 0 1-.367-.156 1.095 1.095 0 0 1-.313-.3l-1.48.753a2.851 2.851 0 0 0 2.074 1.309Zm-2.008-4.457 1.497.972c.187-.215.445-.34.714-.375l.094-1.82a2.87 2.87 0 0 0-2.305 1.223Zm-.496 1.355c-.05.527.047 1.031.258 1.48l1.492-.761a1.17 1.17 0 0 1 .047-.805l-1.484-.965c-.168.32-.278.672-.313 1.051Zm5.672.543a2.837 2.837 0 0 0-.191-1.324l-1.551.789c.094.27.082.57-.039.84l1.383.898a2.85 2.85 0 0 0 .398-1.203ZM41.31 37.074H24.75v.867h16.559Zm9.66-.375v1.617H24.03V36.7Zm-.446.23H24.477v1.153h26.046V36.93" fill-rule="evenodd"/></g></svg>