<svg width="320" height="44" viewBox="0 0 320 44" fill="none" xmlns="http://www.w3.org/2000/svg">
<rect width="320" height="44" rx="8" fill="black"/>
<rect x="12" y="12" width="68" height="20" rx="4" fill="white"/>
<g clip-path="url(#clip0_65057_3242)">
<path d="M27.9392 18H26.6044V24.7689H27.9392V18Z" fill="black"/>
<path d="M25.0711 18.3788H23.7363V25.1475H25.0711V18.3788Z" fill="black"/>
<path d="M22.203 18.8016H20.8681V25.5716H22.203V18.8016Z" fill="black"/>
<path d="M19.3348 19.2292H18L18 26H19.3348L19.3348 19.2292Z" fill="black"/>
<path d="M63.194 21.6063L61.0448 19.2167H59.7883V24.7494H61.1002V21.2194L63.0624 23.3108H63.3048L65.2333 21.2194V24.7494H66.5451V19.2167H65.2887L63.194 21.6063Z" fill="black"/>
<path d="M72.7951 19.2167L69.5435 22.8128V19.2167H68.2317V24.7494H69.4335L72.6851 21.1533V24.7494H73.997V19.2167H72.7951Z" fill="black"/>
<path d="M52.7223 21.2412C52.7223 22.1221 53.204 22.816 53.9434 23.1069L52.5569 24.7494H54.1626L55.4239 23.2552H56.7887V24.7494H58.1006V19.2167H54.7607C53.5155 19.2167 52.7223 20.0686 52.7223 21.2412ZM56.7895 20.4353V22.0713H55.004C54.4082 22.0713 54.0887 21.7393 54.0887 21.2525C54.0887 20.7657 54.4195 20.4336 55.004 20.4336L56.7895 20.4353Z" fill="black"/>
<path d="M46.6261 20.3232C46.5458 22.2261 46.1444 23.4543 45.3584 23.4543H45.1617V24.7825L45.3712 24.7938C46.9472 24.8816 47.8183 23.4986 47.9612 20.478H50.0342V24.7494H51.3437V19.2167H46.6702L46.6261 20.3232Z" fill="black"/>
<path d="M41.6878 19.1394C39.9135 19.1394 38.6369 20.3676 38.6369 21.9827C38.6369 23.6534 40.0259 24.8382 41.6878 24.8382C43.4187 24.8382 44.7635 23.5874 44.7635 21.9827C44.7635 20.3781 43.4187 19.1394 41.6878 19.1394ZM41.6878 23.51C40.685 23.51 40.0018 22.8572 40.0018 21.9827C40.0018 21.0865 40.6858 20.4514 41.6878 20.4514C42.6898 20.4514 43.3963 21.1155 43.3963 21.9827C43.3963 22.8499 42.6801 23.51 41.6878 23.51Z" fill="black"/>
<path d="M37.2456 19.2271H32.6156L32.5714 20.3337C32.5056 21.9278 32.0897 23.4438 31.3037 23.4655L30.94 23.4768V26L32.2631 25.9973V24.7502H36.8594V25.9973H38.1938V23.4655H37.2456V19.2271ZM35.9338 23.4655H33.1342C33.6079 22.7466 33.8616 21.7062 33.9057 20.4892H35.9338V23.4655Z" fill="black"/>
</g>
<path d="M96.175 27H95.083V24.647H90.338V23.698L94.745 17.25H96.175V23.646H97.514V24.647H96.175V27ZM95.083 18.446L91.495 23.646H95.083V18.446ZM102.782 27H101.768V20.604H107.098V27H106.071V21.488H102.782V27ZM108.206 27.013L108.336 26.142C108.388 26.1507 108.431 26.1593 108.466 26.168C108.501 26.168 108.535 26.168 108.57 26.168C108.934 26.168 109.194 25.908 109.35 25.388C109.515 24.868 109.619 24.0273 109.662 22.866L109.753 20.604H114.238V27H113.211V21.488H110.715L110.663 22.97C110.602 24.426 110.425 25.479 110.13 26.129C109.835 26.779 109.359 27.104 108.7 27.104C108.605 27.104 108.522 27.0953 108.453 27.078C108.384 27.0693 108.301 27.0477 108.206 27.013ZM121.269 27H120.333L120.307 25.726C120.055 26.168 119.717 26.5103 119.293 26.753C118.877 26.987 118.409 27.104 117.889 27.104C117.273 27.104 116.784 26.9437 116.42 26.623C116.056 26.3023 115.874 25.8733 115.874 25.336C115.874 24.816 116.064 24.3913 116.446 24.062C116.827 23.7327 117.49 23.4467 118.435 23.204L120.281 22.762C120.229 22.3113 120.06 21.969 119.774 21.735C119.496 21.4923 119.115 21.371 118.63 21.371C118.144 21.371 117.75 21.4793 117.447 21.696C117.143 21.9127 116.935 22.2333 116.823 22.658L115.861 22.476C116.008 21.8607 116.329 21.3797 116.823 21.033C117.317 20.6777 117.923 20.5 118.643 20.5C119.457 20.5 120.099 20.721 120.567 21.163C121.035 21.605 121.269 22.216 121.269 22.996V27ZM116.94 25.245C116.94 25.5483 117.039 25.791 117.239 25.973C117.438 26.1463 117.707 26.233 118.045 26.233C118.686 26.233 119.219 26.0033 119.644 25.544C120.077 25.076 120.294 24.4737 120.294 23.737V23.594L118.448 24.049C117.902 24.1877 117.512 24.3523 117.278 24.543C117.052 24.725 116.94 24.959 116.94 25.245ZM125.718 27H124.691V21.488H122.468V20.604H127.941V21.488H125.718V27ZM131.857 27.104C130.878 27.104 130.085 26.7963 129.478 26.181C128.88 25.557 128.581 24.751 128.581 23.763C128.581 22.8183 128.885 22.0383 129.491 21.423C130.098 20.8077 130.865 20.5 131.792 20.5C132.694 20.5 133.43 20.7817 134.002 21.345C134.574 21.9083 134.86 22.632 134.86 23.516C134.86 23.5853 134.852 23.685 134.834 23.815C134.826 23.9363 134.821 24.01 134.821 24.036H129.647C129.708 24.7033 129.933 25.232 130.323 25.622C130.722 26.0033 131.233 26.194 131.857 26.194C132.36 26.194 132.776 26.0813 133.105 25.856C133.435 25.6307 133.669 25.3013 133.807 24.868L134.795 25.05C134.639 25.6827 134.297 26.1853 133.768 26.558C133.248 26.922 132.611 27.104 131.857 27.104ZM131.792 21.384C131.255 21.384 130.796 21.5487 130.414 21.878C130.033 22.1987 129.79 22.632 129.686 23.178H133.768C133.734 22.6493 133.53 22.2203 133.157 21.891C132.793 21.553 132.338 21.384 131.792 21.384ZM135.595 20.604H136.752L138.559 23.191H139.404V20.604H140.379V23.191H141.211L143.044 20.604H144.188L141.991 23.594L144.357 27H143.187L141.172 24.101H140.379V27H139.404V24.101H138.598L136.57 27H135.439L137.779 23.659L135.595 20.604ZM150.417 27H149.481L149.455 25.726C149.204 26.168 148.866 26.5103 148.441 26.753C148.025 26.987 147.557 27.104 147.037 27.104C146.422 27.104 145.932 26.9437 145.568 26.623C145.204 26.3023 145.022 25.8733 145.022 25.336C145.022 24.816 145.213 24.3913 145.594 24.062C145.976 23.7327 146.639 23.4467 147.583 23.204L149.429 22.762C149.377 22.3113 149.208 21.969 148.922 21.735C148.645 21.4923 148.264 21.371 147.778 21.371C147.293 21.371 146.899 21.4793 146.595 21.696C146.292 21.9127 146.084 22.2333 145.971 22.658L145.009 22.476C145.157 21.8607 145.477 21.3797 145.971 21.033C146.465 20.6777 147.072 20.5 147.791 20.5C148.606 20.5 149.247 20.721 149.715 21.163C150.183 21.605 150.417 22.216 150.417 22.996V27ZM146.088 25.245C146.088 25.5483 146.188 25.791 146.387 25.973C146.587 26.1463 146.855 26.233 147.193 26.233C147.835 26.233 148.368 26.0033 148.792 25.544C149.226 25.076 149.442 24.4737 149.442 23.737V23.594L147.596 24.049C147.05 24.1877 146.66 24.3523 146.426 24.543C146.201 24.725 146.088 24.959 146.088 25.245ZM156.293 27H155.279V20.604H160.609V27H159.582V21.488H156.293V27ZM162.237 23.789C162.237 22.8357 162.549 22.0513 163.173 21.436C163.797 20.812 164.585 20.5 165.539 20.5C166.492 20.5 167.281 20.812 167.905 21.436C168.529 22.0513 168.841 22.8357 168.841 23.789C168.841 24.751 168.529 25.544 167.905 26.168C167.281 26.792 166.492 27.104 165.539 27.104C164.585 27.104 163.797 26.792 163.173 26.168C162.549 25.544 162.237 24.751 162.237 23.789ZM167.775 23.789C167.775 23.0957 167.567 22.5323 167.151 22.099C166.735 21.657 166.197 21.436 165.539 21.436C164.88 21.436 164.343 21.657 163.927 22.099C163.511 22.5323 163.303 23.0957 163.303 23.789C163.303 24.491 163.511 25.063 163.927 25.505C164.343 25.947 164.88 26.168 165.539 26.168C166.197 26.168 166.735 25.947 167.151 25.505C167.567 25.063 167.775 24.491 167.775 23.789ZM175.581 27H174.502V19.421H172.734V18.784C173.306 18.7493 173.77 18.602 174.125 18.342C174.48 18.0733 174.701 17.7093 174.788 17.25H175.581V27ZM187.889 22.099C187.889 23.6417 187.573 24.8637 186.94 25.765C186.308 26.6577 185.454 27.104 184.379 27.104C183.305 27.104 182.451 26.6577 181.818 25.765C181.186 24.8637 180.869 23.6417 180.869 22.099C180.869 20.5737 181.186 19.369 181.818 18.485C182.451 17.5923 183.305 17.146 184.379 17.146C185.454 17.146 186.308 17.5923 186.94 18.485C187.573 19.369 187.889 20.5737 187.889 22.099ZM186.758 22.099C186.758 20.8683 186.546 19.9063 186.121 19.213C185.705 18.511 185.125 18.16 184.379 18.16C183.625 18.16 183.036 18.511 182.611 19.213C182.195 19.9063 181.987 20.8683 181.987 22.099C181.987 23.347 182.2 24.3263 182.624 25.037C183.049 25.739 183.634 26.09 184.379 26.09C185.125 26.09 185.705 25.739 186.121 25.037C186.546 24.3263 186.758 23.347 186.758 22.099ZM196.751 22.099C196.751 23.6417 196.434 24.8637 195.802 25.765C195.169 26.6577 194.315 27.104 193.241 27.104C192.166 27.104 191.312 26.6577 190.68 25.765C190.047 24.8637 189.731 23.6417 189.731 22.099C189.731 20.5737 190.047 19.369 190.68 18.485C191.312 17.5923 192.166 17.146 193.241 17.146C194.315 17.146 195.169 17.5923 195.802 18.485C196.434 19.369 196.751 20.5737 196.751 22.099ZM195.62 22.099C195.62 20.8683 195.407 19.9063 194.983 19.213C194.567 18.511 193.986 18.16 193.241 18.16C192.487 18.16 191.897 18.511 191.473 19.213C191.057 19.9063 190.849 20.8683 190.849 22.099C190.849 23.347 191.061 24.3263 191.486 25.037C191.91 25.739 192.495 26.09 193.241 26.09C193.986 26.09 194.567 25.739 194.983 25.037C195.407 24.3263 195.62 23.347 195.62 22.099ZM205.612 22.099C205.612 23.6417 205.296 24.8637 204.663 25.765C204.03 26.6577 203.177 27.104 202.102 27.104C201.027 27.104 200.174 26.6577 199.541 25.765C198.908 24.8637 198.592 23.6417 198.592 22.099C198.592 20.5737 198.908 19.369 199.541 18.485C200.174 17.5923 201.027 17.146 202.102 17.146C203.177 17.146 204.03 17.5923 204.663 18.485C205.296 19.369 205.612 20.5737 205.612 22.099ZM204.481 22.099C204.481 20.8683 204.269 19.9063 203.844 19.213C203.428 18.511 202.847 18.16 202.102 18.16C201.348 18.16 200.759 18.511 200.334 19.213C199.918 19.9063 199.71 20.8683 199.71 22.099C199.71 23.347 199.922 24.3263 200.347 25.037C200.772 25.739 201.357 26.09 202.102 26.09C202.847 26.09 203.428 25.739 203.844 25.037C204.269 24.3263 204.481 23.347 204.481 22.099ZM212.39 27H211.285V25.518H209.66V24.543H211.285V23.061H209.66V22.047H211.285V17.25H214.873C215.817 17.25 216.58 17.5187 217.161 18.056C217.741 18.5847 218.032 19.278 218.032 20.136C218.032 20.9853 217.737 21.6873 217.148 22.242C216.567 22.788 215.809 23.061 214.873 23.061H212.39V24.543H215.237V25.518H212.39V27ZM216.901 20.136C216.901 19.5553 216.719 19.1003 216.355 18.771C215.999 18.433 215.505 18.264 214.873 18.264H212.39V22.047H214.873C215.497 22.047 215.991 21.8737 216.355 21.527C216.719 21.1803 216.901 20.7167 216.901 20.136Z" fill="white"/>
<mask id="mask0_65057_3242" style="mask-type:alpha" maskUnits="userSpaceOnUse" x="292" y="14" width="16" height="16">
<path fill-rule="evenodd" clip-rule="evenodd" d="M304.5 22L298.658 16L297.316 17.4234L301.816 22L297.316 26.5766L298.658 28L304.5 22Z" fill="black"/>
</mask>
<g mask="url(#mask0_65057_3242)">
<rect x="292" y="14" width="16" height="16" fill="white" fill-opacity="0.5"/>
</g>
<defs>
<clipPath id="clip0_65057_3242">
<rect width="56" height="8" fill="white" transform="translate(18 18)"/>
</clipPath>
</defs>
</svg>
