<svg width="320" height="44" fill="none" xmlns="http://www.w3.org/2000/svg"><rect width="320" height="44" rx="8" fill="#000"/><rect x="12" y="12" width="68" height="20" rx="4" fill="#fff"/><g clip-path="url(#a)" fill="#000"><path d="M27.94 18h-1.336v6.769h1.335V18zM25.071 18.379h-1.335v6.768h1.335V18.38zM22.203 18.802h-1.335v6.77h1.335v-6.77zM19.335 19.23H18V26h1.335v-6.77zM63.194 21.606l-2.15-2.39h-1.256v5.533H61.1v-3.53l1.962 2.092h.243l1.928-2.092v3.53h1.312v-5.532H65.29l-2.095 2.39zM72.795 19.217l-3.252 3.596v-3.596h-1.311v5.532h1.201l3.252-3.596v3.596h1.312v-5.532h-1.202zM52.722 21.241c0 .881.482 1.575 1.221 1.866l-1.386 1.642h1.606l1.26-1.494h1.366v1.494H58.1v-5.532h-3.34c-1.245 0-2.039.852-2.039 2.024zm4.067-.806v1.636h-1.785c-.596 0-.915-.332-.915-.819 0-.486.33-.818.915-.818l1.785.001zM46.626 20.323c-.08 1.903-.482 3.131-1.268 3.131h-.196v1.328l.21.012c1.575.088 2.446-1.295 2.59-4.316h2.072v4.271h1.31v-5.532H46.67l-.044 1.106zM41.688 19.14c-1.775 0-3.051 1.228-3.051 2.843 0 1.67 1.389 2.855 3.05 2.855 1.732 0 3.077-1.25 3.077-2.855s-1.345-2.844-3.076-2.844zm0 4.37c-1.003 0-1.686-.653-1.686-1.527 0-.896.684-1.532 1.686-1.532 1.002 0 1.708.665 1.708 1.532s-.716 1.527-1.708 1.527zM37.246 19.227h-4.63l-.045 1.107c-.065 1.594-.481 3.11-1.267 3.131l-.364.012V26l1.323-.003V24.75h4.596v1.247h1.335v-2.532h-.948v-4.238zm-1.312 4.238h-2.8c.474-.718.728-1.759.772-2.976h2.028v2.976z"/></g><path d="M96.175 27h-1.092v-2.353h-4.745v-.949l4.407-6.448h1.43v6.396h1.339v1.001h-1.339V27zm-1.092-8.554-3.588 5.2h3.588v-5.2zM102.782 27h-1.014v-6.396h5.33V27h-1.027v-5.512h-3.289V27zm5.424.013.13-.871c.052.009.095.017.13.026h.104c.364 0 .624-.26.78-.78.165-.52.269-1.36.312-2.522l.091-2.262h4.485V27h-1.027v-5.512h-2.496l-.052 1.482c-.061 1.456-.238 2.509-.533 3.159-.295.65-.771.975-1.43.975a1.03 1.03 0 0 1-.247-.026 1.167 1.167 0 0 1-.247-.065zM121.269 27h-.936l-.026-1.274c-.252.442-.59.784-1.014 1.027a2.814 2.814 0 0 1-1.404.351c-.616 0-1.105-.16-1.469-.481-.364-.32-.546-.75-.546-1.287 0-.52.19-.945.572-1.274.381-.33 1.044-.615 1.989-.858l1.846-.442c-.052-.45-.221-.793-.507-1.027-.278-.243-.659-.364-1.144-.364-.486 0-.88.108-1.183.325-.304.217-.512.537-.624.962l-.962-.182c.147-.615.468-1.096.962-1.443.494-.355 1.1-.533 1.82-.533.814 0 1.456.221 1.924.663.468.442.702 1.053.702 1.833V27zm-4.329-1.755c0 .303.099.546.299.728.199.173.468.26.806.26.641 0 1.174-.23 1.599-.689.433-.468.65-1.07.65-1.807v-.143l-1.846.455c-.546.139-.936.303-1.17.494a.86.86 0 0 0-.338.702zM125.718 27h-1.027v-5.512h-2.223v-.884h5.473v.884h-2.223V27zm6.139.104c-.979 0-1.772-.308-2.379-.923-.598-.624-.897-1.43-.897-2.418 0-.945.304-1.725.91-2.34.607-.615 1.374-.923 2.301-.923.902 0 1.638.282 2.21.845.572.563.858 1.287.858 2.171 0 .07-.008.169-.026.299-.008.121-.013.195-.013.221h-5.174c.061.667.286 1.196.676 1.586.399.381.91.572 1.534.572.503 0 .919-.113 1.248-.338.33-.225.564-.555.702-.988l.988.182a2.526 2.526 0 0 1-1.027 1.508c-.52.364-1.157.546-1.911.546zm-.065-5.72c-.537 0-.996.165-1.378.494-.381.32-.624.754-.728 1.3h4.082c-.034-.529-.238-.958-.611-1.287-.364-.338-.819-.507-1.365-.507zm3.803-.78h1.157l1.807 2.587h.845v-2.587h.975v2.587h.832l1.833-2.587h1.144l-2.197 2.99L144.357 27h-1.17l-2.015-2.899h-.793V27h-.975v-2.899h-.806L136.57 27h-1.131l2.34-3.341-2.184-3.055zM150.417 27h-.936l-.026-1.274a2.68 2.68 0 0 1-1.014 1.027 2.814 2.814 0 0 1-1.404.351c-.615 0-1.105-.16-1.469-.481-.364-.32-.546-.75-.546-1.287 0-.52.191-.945.572-1.274.382-.33 1.045-.615 1.989-.858l1.846-.442c-.052-.45-.221-.793-.507-1.027-.277-.243-.658-.364-1.144-.364-.485 0-.879.108-1.183.325-.303.217-.511.537-.624.962l-.962-.182c.148-.615.468-1.096.962-1.443.494-.355 1.101-.533 1.82-.533.815 0 1.456.221 1.924.663.468.442.702 1.053.702 1.833V27zm-4.329-1.755c0 .303.1.546.299.728.2.173.468.26.806.26.642 0 1.175-.23 1.599-.689.434-.468.65-1.07.65-1.807v-.143l-1.846.455c-.546.139-.936.303-1.17.494a.863.863 0 0 0-.338.702zM156.293 27h-1.014v-6.396h5.33V27h-1.027v-5.512h-3.289V27zm5.944-3.211c0-.953.312-1.738.936-2.353.624-.624 1.412-.936 2.366-.936.953 0 1.742.312 2.366.936.624.615.936 1.4.936 2.353 0 .962-.312 1.755-.936 2.379-.624.624-1.413.936-2.366.936-.954 0-1.742-.312-2.366-.936-.624-.624-.936-1.417-.936-2.379zm5.538 0c0-.693-.208-1.257-.624-1.69-.416-.442-.954-.663-1.612-.663-.659 0-1.196.221-1.612.663-.416.433-.624.997-.624 1.69 0 .702.208 1.274.624 1.716.416.442.953.663 1.612.663.658 0 1.196-.221 1.612-.663.416-.442.624-1.014.624-1.716zM175.581 27h-1.079v-7.579h-1.768v-.637c.572-.035 1.036-.182 1.391-.442a1.72 1.72 0 0 0 .663-1.092h.793V27zm12.308-4.901c0 1.543-.316 2.765-.949 3.666-.632.893-1.486 1.339-2.561 1.339-1.074 0-1.928-.446-2.561-1.339-.632-.901-.949-2.123-.949-3.666 0-1.525.317-2.73.949-3.614.633-.893 1.487-1.339 2.561-1.339 1.075 0 1.929.446 2.561 1.339.633.884.949 2.089.949 3.614zm-1.131 0c0-1.23-.212-2.193-.637-2.886-.416-.702-.996-1.053-1.742-1.053-.754 0-1.343.351-1.768 1.053-.416.693-.624 1.655-.624 2.886 0 1.248.213 2.227.637 2.938.425.702 1.01 1.053 1.755 1.053.746 0 1.326-.351 1.742-1.053.425-.71.637-1.69.637-2.938zm9.993 0c0 1.543-.317 2.765-.949 3.666-.633.893-1.487 1.339-2.561 1.339-1.075 0-1.929-.446-2.561-1.339-.633-.901-.949-2.123-.949-3.666 0-1.525.316-2.73.949-3.614.632-.893 1.486-1.339 2.561-1.339 1.074 0 1.928.446 2.561 1.339.632.884.949 2.089.949 3.614zm-1.131 0c0-1.23-.213-2.193-.637-2.886-.416-.702-.997-1.053-1.742-1.053-.754 0-1.344.351-1.768 1.053-.416.693-.624 1.655-.624 2.886 0 1.248.212 2.227.637 2.938.424.702 1.009 1.053 1.755 1.053.745 0 1.326-.351 1.742-1.053.424-.71.637-1.69.637-2.938zm9.992 0c0 1.543-.316 2.765-.949 3.666-.633.893-1.486 1.339-2.561 1.339s-1.928-.446-2.561-1.339c-.633-.901-.949-2.123-.949-3.666 0-1.525.316-2.73.949-3.614.633-.893 1.486-1.339 2.561-1.339s1.928.446 2.561 1.339c.633.884.949 2.089.949 3.614zm-1.131 0c0-1.23-.212-2.193-.637-2.886-.416-.702-.997-1.053-1.742-1.053-.754 0-1.343.351-1.768 1.053-.416.693-.624 1.655-.624 2.886 0 1.248.212 2.227.637 2.938.425.702 1.01 1.053 1.755 1.053.745 0 1.326-.351 1.742-1.053.425-.71.637-1.69.637-2.938zM212.39 27h-1.105v-1.482h-1.625v-.975h1.625v-1.482h-1.625v-1.014h1.625V17.25h3.588c.944 0 1.707.269 2.288.806.58.529.871 1.222.871 2.08 0 .85-.295 1.551-.884 2.106-.581.546-1.339.819-2.275.819h-2.483v1.482h2.847v.975h-2.847V27zm4.511-6.864c0-.58-.182-1.036-.546-1.365-.356-.338-.85-.507-1.482-.507h-2.483v3.783h2.483c.624 0 1.118-.173 1.482-.52.364-.347.546-.81.546-1.391z" fill="#fff"/><mask id="b" style="mask-type:alpha" maskUnits="userSpaceOnUse" x="292" y="14" width="16" height="16"><path fill-rule="evenodd" clip-rule="evenodd" d="m304.5 22-5.842-6-1.342 1.423 4.5 4.577-4.5 4.577L298.658 28l5.842-6z" fill="#000"/></mask><g mask="url(#b)"><path fill="#fff" fill-opacity=".5" d="M292 14h16v16h-16z"/></g><defs><clipPath id="a"><path fill="#fff" transform="translate(18 18)" d="M0 0h56v8H0z"/></clipPath></defs></svg>