<svg xmlns="http://www.w3.org/2000/svg" width="100" height="100" version="1.0" viewBox="0 0 75 75"><defs><clipPath id="a"><path d="M.664 1h73.5v73.316H.664Zm0 0"/></clipPath></defs><g clip-path="url(#a)"><path fill="#f9a92c" d="M.898 37.684c0-20.23 16.403-36.633 36.633-36.633 20.235 0 36.633 16.402 36.633 36.633 0 20.23-16.398 36.632-36.633 36.632-20.23 0-36.633-16.402-36.633-36.632"/></g><path fill="#1f4482" d="M52.676 20.86c.996 0 1.988.382 2.746 1.14a3.883 3.883 0 0 1 0 5.496L45.238 37.684l10.184 10.183a3.885 3.885 0 1 1-5.492 5.5L34.246 37.684 49.93 22a3.879 3.879 0 0 1 2.746-1.14"/><path fill="#1f4482" d="M31.953 20.86a3.89 3.89 0 0 1 2.754 6.637L24.516 37.683l10.191 10.183a3.895 3.895 0 0 1 0 5.5 3.895 3.895 0 0 1-5.5 0L13.523 37.684 29.207 22a3.879 3.879 0 0 1 2.746-1.14"/></svg>