<svg xmlns="http://www.w3.org/2000/svg" width="100" viewBox="0 0 75 75" height="100" version="1.0"><defs><clipPath id="a"><path d="M1.617 10.281H73.32v53.903H1.617zm0 0"/></clipPath><clipPath id="b"><path d="M9 1.352h6V7H9zm0 0"/></clipPath><clipPath id="c"><path d="M56 68h5v5.352h-5zm0 0"/></clipPath></defs><g clip-path="url(#a)"><path fill="#f9a92c" d="M70.973 58.059a3.643 3.643 0 0 1-3.637 3.636H7.602A3.643 3.643 0 0 1 3.96 58.06V16.395a3.64 3.64 0 0 1 3.64-3.637h59.735a3.64 3.64 0 0 1 3.637 3.637zM67.336 10.41H7.602a5.99 5.99 0 0 0-5.985 5.985v41.664a5.99 5.99 0 0 0 5.985 5.984h59.734a5.99 5.99 0 0 0 5.984-5.984V16.395a5.99 5.99 0 0 0-5.984-5.985"/></g><path fill="#f9a92c" d="M65.02 55.8H9.918V18.649H65.02zm1.171-39.5H8.742c-.644 0-1.172.528-1.172 1.177v39.5c0 .648.528 1.171 1.172 1.171h57.45c.648 0 1.175-.523 1.175-1.171v-39.5c0-.649-.527-1.176-1.176-1.176"/><path fill="#f9a92c" d="M18.977 38.2c.843 0 1.675.218 2.398.64.07.039.14.07.219.097a.978.978 0 0 0 .113.032.721.721 0 0 0 .117.02.587.587 0 0 0 .078.007h.04c.007 0 .015.004.023.004h22.12a10.877 10.877 0 0 0 0 8H21.919c-.031.004-.066.004-.098.008 0 0-.004.004-.008.004a1.14 1.14 0 0 0-.437.148 4.814 4.814 0 0 1-2.398.64 4.807 4.807 0 0 1-4.801-4.8c0-2.648 2.156-4.8 4.8-4.8zm35.289-3.794c2.125 0 4.132.778 5.683 2.153h-3.312a1.17 1.17 0 0 0-1.04.625l-2.777 5.27c-.18.339-.18.75 0 1.093l2.778 5.27c.203.382.601.624 1.039.624h3.312a8.566 8.566 0 0 1-5.683 2.153c-4.739 0-8.594-3.856-8.594-8.594 0-4.738 3.855-8.594 8.594-8.594zm-35.29 15.742a7.208 7.208 0 0 0 3.286-.8h23.101c1.985 2.777 5.235 4.593 8.903 4.593 3.734 0 7.175-1.886 9.203-5.039a1.174 1.174 0 0 0-.988-1.809h-5.137L55.187 43l2.157-4.098h5.136a1.171 1.171 0 0 0 .988-1.805 10.9 10.9 0 0 0-9.202-5.038c-3.668 0-6.918 1.816-8.903 4.593H22.262a7.159 7.159 0 0 0-3.285-.8c-3.942 0-7.149 3.207-7.149 7.148s3.207 7.148 7.149 7.148"/><path fill="#f9a92c" d="M18.977 46.652A3.657 3.657 0 0 0 22.629 43a3.658 3.658 0 0 0-3.652-3.656 1.174 1.174 0 0 0 0 2.347A1.308 1.308 0 1 1 17.672 43a1.174 1.174 0 1 0-2.348 0 3.657 3.657 0 0 0 3.653 3.652m16.05-19.277c-3.918 0-7.105 3.184-7.105 7.102a1.174 1.174 0 1 0 2.348 0 4.761 4.761 0 0 1 4.757-4.758 4.76 4.76 0 0 1 4.754 4.758 1.174 1.174 0 1 0 2.348 0c0-3.918-3.188-7.102-7.102-7.102"/><path fill="#f9a92c" d="M22.293 34.957a1.17 1.17 0 0 0 1.172-1.172v-1.351h.683a1.38 1.38 0 0 0 1.317-.97 9.923 9.923 0 0 1 .668-1.624 1.37 1.37 0 0 0-.246-1.613l-.48-.48 2.89-2.888.48.48c.43.427 1.078.524 1.614.247a10.099 10.099 0 0 1 1.62-.672 1.37 1.37 0 0 0 .973-1.316v-.684h4.086v.684c0 .609.39 1.136.965 1.316.574.18 1.121.406 1.621.668a1.379 1.379 0 0 0 1.621-.242l.48-.485 2.888 2.891-.48.48a1.376 1.376 0 0 0-.247 1.614c.266.512.492 1.058.672 1.625.18.578.71.969 1.312.969h1.86a1.173 1.173 0 0 0 0-2.348h-1.168c-.086-.23-.184-.461-.282-.688l.82-.82a1.17 1.17 0 0 0 .345-.832c0-.308-.122-.61-.344-.828l-4.547-4.55c-.441-.438-1.219-.438-1.66 0l-.824.823a10.458 10.458 0 0 0-.684-.28v-1.169c0-.648-.527-1.172-1.176-1.172H31.81a1.17 1.17 0 0 0-1.172 1.172v1.168c-.235.086-.461.18-.688.281l-.82-.824a1.17 1.17 0 0 0-1.66 0l-4.551 4.551c-.219.219-.344.52-.344.828 0 .313.125.61.344.832l.824.82a15.81 15.81 0 0 0-.285.688h-1.164a1.17 1.17 0 0 0-1.172 1.172v2.527a1.17 1.17 0 0 0 1.172 1.172"/><g clip-path="url(#b)"><path fill="#f9a92c" d="M10.941 4.973h.106v.105a1.173 1.173 0 0 0 2.348 0v-.105h.105a1.173 1.173 0 0 0 0-2.344h-.105v-.106a1.174 1.174 0 0 0-2.348 0v.106h-.106A1.17 1.17 0 0 0 9.77 3.8a1.17 1.17 0 0 0 1.171 1.172"/></g><path fill="#f9a92c" d="M39.516 6.25h.105v.105a1.173 1.173 0 0 0 2.348 0V6.25h.105a1.173 1.173 0 0 0 0-2.344h-.105v-.105a1.174 1.174 0 0 0-2.348 0v.105h-.105a1.173 1.173 0 0 0 0 2.344M31.52 68.215h-.106v-.106a1.174 1.174 0 0 0-2.348 0v.106h-.101a1.174 1.174 0 1 0 0 2.347h.101v.102a1.174 1.174 0 1 0 2.348 0v-.102h.106a1.174 1.174 0 0 0 0-2.347"/><g clip-path="url(#c)"><path fill="#f9a92c" d="M59.793 69.492h-.105v-.105a1.17 1.17 0 0 0-1.172-1.172 1.17 1.17 0 0 0-1.172 1.172v.105h-.106a1.174 1.174 0 1 0 0 2.348h.106v.101a1.173 1.173 0 1 0 2.344 0v-.101h.105a1.174 1.174 0 0 0 0-2.348"/></g><path fill="#f9a92c" d="M22.293 6.781h3.758a1.174 1.174 0 1 0 0-2.348h-3.758a1.174 1.174 0 0 0 0 2.348m36.43-2.144h3.757a1.174 1.174 0 1 0 0-2.348h-3.757a1.174 1.174 0 0 0 0 2.348M46.379 66.938h-3.762a1.173 1.173 0 0 0 0 2.347h3.762a1.174 1.174 0 0 0 0-2.347m-31.496 2.554h-3.758a1.174 1.174 0 1 0 0 2.348h3.758a1.174 1.174 0 0 0 0-2.348"/></svg>