<svg xmlns="http://www.w3.org/2000/svg" width="100" viewBox="0 0 75 75" height="100" version="1.0"><defs><clipPath id="a"><path d="M69 25h4.5v7H69Zm0 0"/></clipPath><clipPath id="b"><path d="M71 34h2.5v7H71Zm0 0"/></clipPath></defs><path fill="#f9a92c" d="M41.102 38.188a.646.646 0 0 1-.2.476.655.655 0 0 1-.48.2.652.652 0 0 1-.477-.2.646.646 0 0 1-.199-.477c0-.187.066-.347.2-.48a.649.649 0 0 1 .476-.195c.187 0 .348.062.48.195.133.133.2.293.2.48ZM63.09 58.652a30.964 30.964 0 0 1-35.012 6.934c-15.14-6.68-22.41-24.102-16.492-39.492l2.367 10.062c.086.594.676 1.016 1.27.848.59-.172.93-.68.761-1.27l-3.3-13.953c-.082-.34-.336-.676-.758-.761-.34-.086-.762 0-1.016.253L.422 31.93a1.07 1.07 0 0 0 0 1.52 1.068 1.068 0 0 0 1.523 0l7.528-7.61c-6.258 17.25 2.62 36.281 19.87 42.539 12.348 4.48 26.22 1.266 35.352-8.203a1.167 1.167 0 0 0 .086-1.524c-.847-.675-1.523-.086-1.691 0ZM55.39 9.855c.508.254 1.102.086 1.438-.421.254-.508.086-1.184-.422-1.438 0 0-3.465-1.605-3.972-1.777-.508-.254-1.184 0-1.438.508-.254.507 0 1.183.508 1.437.082-.082 3.21 1.27 3.887 1.691ZM33.742 6.813c.086 0 2.875-.508 4.23-.594.59-.082 1.012-.59.93-1.098 0-.594-.593-1.016-1.183-1.016 0 0-2.875.34-4.313.676-.593.168-.933.676-.761 1.27.167.422.59.761 1.097.761ZM62.582 15.184c.168.168.844.593 1.52 0a1.068 1.068 0 0 0 0-1.524c-1.012-1.012-2.114-1.945-3.297-2.875-.508-.336-1.098-.254-1.524.172-.336.504-.254 1.098.172 1.52 1.184.847 2.195 1.777 3.129 2.707ZM47.02 6.727s1.015.253 1.27-.844c.167-.762-.34-1.184-.763-1.27-1.437-.254-2.875-.508-4.312-.593-.594-.082-1.102.34-1.184.93-.086.593.336 1.1.93 1.187-.086 0 2.707.336 4.059.59ZM25.625 9.941c1.184-.675 2.453-1.183 3.719-1.691.508-.254.847-.848.593-1.355-.253-.504-.847-.844-1.351-.59-1.356.508-2.707 1.183-3.977 1.86-.507.253-.761.929-.422 1.437.508.761 1.266.421 1.438.34Zm0 0"/><g clip-path="url(#a)"><path fill="#f9a92c" d="M71.04 30.746c.081.504.503 1.012 1.265.844.593-.086.93-.676.847-1.27 0 0-.675-2.875-1.183-4.226-.172-.594-.762-.848-1.356-.676-.508.168-.843.758-.675 1.266 0 .086.847 2.707 1.101 4.062Zm0 0"/></g><path fill="#f9a92c" d="M72.137 43.77c-.594-.172-1.098.167-1.27.757-.336 1.356-.762 2.625-1.183 3.891-.168.508.086 1.184.593 1.355.676.254 1.184-.171 1.352-.593.508-1.352.93-2.79 1.27-4.145.167-.59-.169-1.097-.762-1.265ZM68.922 52.477c-.508-.25-1.184-.082-1.438.34-.675 1.183-1.437 2.285-2.28 3.382-.34.508-.255 1.102.167 1.524.422.422 1.098.254 1.524-.172.93-1.184 1.69-2.367 2.453-3.633.254-.508.082-1.188-.426-1.441Zm0 0"/><g clip-path="url(#b)"><path fill="#f9a92c" d="M73.828 35.48c0-.593-.508-1.015-1.098-1.015-.593 0-1.015.508-1.015 1.101 0 .504 0 3.297-.086 4.141-.086.594.422 1.102.93 1.102 0 0 1.101.168 1.183-1.016.086-.762.086-3.723.086-4.313Zm0 0"/></g><path fill="#f9a92c" d="M67.992 22.371c.168.34.848.676 1.438.426.93-.426.507-1.27.422-1.442-.676-1.265-1.438-2.535-2.368-3.718-.336-.508-1.097-.594-1.52-.168-.425.336-.507.93-.171 1.437 0 0 1.523 2.282 2.2 3.465ZM51.84 20.004c.34 0 .676-.168.93-.508l.847-1.437c.254-.508 0-1.184-.508-1.438-.422-.254-1.015-.086-1.355.34l-.844 1.437c-.508.676 0 1.52.93 1.606ZM41.102 16.875c.59 0 1.011-.422 1.011-1.016v-1.691c0-.59-.504-1.016-1.011-1.016-.508 0-1.016.508-1.016 1.016v1.691c0 .508.422 1.016 1.016 1.016ZM28.922 16.113c-.508.254-.676.93-.422 1.438l.844 1.437c.172.34.761.762 1.437.426.508-.254.68-.934.426-1.441l-.848-1.438c-.422-.844-1.27-.504-1.437-.422ZM20.887 49.434l1.437-.844c.508-.254.68-.934.426-1.438-.254-.507-.93-.68-1.438-.425l-1.437.847c-.508.254-.68.93-.426 1.438.172.422.68.843 1.438.422ZM27.824 56.621c-.34.508-.086 1.524.93 1.61.336 0 .676-.172.93-.508l.843-1.438c.34-.508.172-1.183-.336-1.437-.507-.34-1.101-.172-1.437.336-.086 0-.93 1.437-.93 1.437ZM39.238 58.82v1.692c0 .593.426 1.101 1.016 1.101.594 0 1.016-.425 1.016-1.015v-1.692c.085-1.523-2.032-1.605-2.032-.086ZM50.57 55.27c-.508.253-.675.93-.422 1.437l.848 1.438c.168.34.508.593.93.593.168 0 .336-.086.508-.172.507-.254.675-.93.421-1.437l-.847-1.438c-.254-.507-.93-.675-1.438-.421ZM61.059 48.418l-1.438-.844c-.508-.34-1.184-.168-1.437.336-.254.508-.168 1.102.336 1.438h.085l1.438.847c.508.34 1.184.168 1.437-.34v-.082c.254-.425.086-1.101-.421-1.355ZM62.242 36.664c-.594 0-1.015.422-1.097 1.016 0 .59.421 1.097 1.011 1.097h1.692c.593 0 1.015-.507 1.015-1.015 0-.504-.508-1.012-1.015-1.012h-1.606ZM59.535 28.04c.172 0 .34-.087.508-.173l1.437-.844c.508-.253.676-.93.422-1.437-.254-.508-.93-.676-1.437-.422l-1.438.844c-.507.254-.675.93-.422 1.437.168.34.508.508.93.594ZM40.848 38.441c.082-.086.082-.254.082-.34 0-.085-.082-.253-.168-.34-.086-.081-.254-.081-.34-.081-.082 0-.25.082-.336.168-.168.168-.168.507 0 .675.254.172.508.172.762-.082Zm0 0"/><path fill="#f9a92c" d="M40.594 56.453c10.656 0 19.195-8.625 19.195-19.195 0-10.574-8.539-19.2-19.195-19.2a19.132 19.132 0 0 0-19.2 19.2c0 10.57 8.63 19.195 19.2 19.195ZM28.5 27.445c.422-.422 1.098-.508 1.523-.082l9.387 8.371c.254-.168.59-.168.93-.254.336 0 .59 0 .93.086l10.062-11.25c.34-.421 1.016-.59 1.523-.168.422.34.59 1.016.168 1.524l-10.23 11.414c.168.254.168.594.254.93 0 1.437-1.102 2.625-2.54 2.625-1.437 0-2.62-1.102-2.62-2.54 0-.253 0-.507.086-.761l-9.387-8.457c-.426-.336-.426-1.016-.086-1.438Zm0 0"/></svg>