<svg xmlns="http://www.w3.org/2000/svg" width="100" height="100" version="1.0" viewBox="0 0 75 75"><defs><clipPath id="a"><path d="M9.68.434h57.75v74.25H9.68Zm0 0"/></clipPath><clipPath id="b"><path d="M17.55 34.441H58v40.5H17.55Zm0 0"/></clipPath><clipPath id="c"><path d="M28 44h30v30.941H28Zm0 0"/></clipPath></defs><g clip-path="url(#a)"><path fill="#f9a92c" d="M38.527.46a22.329 22.329 0 0 0-4.344.434 21.86 21.86 0 0 0-4.18 1.27 22.773 22.773 0 0 0-3.847 2.063 22.163 22.163 0 0 0-3.371 2.777 21.842 21.842 0 0 0-2.766 3.375c-.406.61-.78 1.234-1.124 1.879a22.78 22.78 0 0 0-1.665 4.035c-.21.7-.386 1.406-.53 2.121a22.386 22.386 0 0 0-.423 4.344v11.176h-.914c-.351 0-.703.035-1.047.101a5.436 5.436 0 0 0-1.934.8 5.317 5.317 0 0 0-.812.669c-.25.246-.472.516-.668.809a5.314 5.314 0 0 0-.8 1.93c-.07.347-.106.694-.106 1.046v29.875c0 .352.035.7.106 1.047a5.314 5.314 0 0 0 .8 1.93 5.317 5.317 0 0 0 1.48 1.476 5.437 5.437 0 0 0 1.934.801c.344.066.696.102 1.047.102h46.328c.352 0 .7-.036 1.047-.102.344-.07.68-.172 1.004-.305a5.55 5.55 0 0 0 1.742-1.16 5.531 5.531 0 0 0 1.164-1.738c.133-.324.235-.66.305-1.004.07-.348.106-.695.106-1.047V39.238c0-.351-.036-.699-.106-1.043a5.656 5.656 0 0 0-.305-1.008 5.5 5.5 0 0 0-1.164-1.734 5.347 5.347 0 0 0-1.742-1.16 5.043 5.043 0 0 0-1.004-.305 5.259 5.259 0 0 0-1.047-.105h-.914V22.758c0-.727-.035-1.457-.105-2.18-.07-.726-.176-1.45-.32-2.164a22.128 22.128 0 0 0-2.196-6.156 22.273 22.273 0 0 0-1.12-1.88 20.984 20.984 0 0 0-1.302-1.753c-.46-.566-.949-1.105-1.464-1.621a22.163 22.163 0 0 0-3.372-2.777 22.67 22.67 0 0 0-3.847-2.063 24.381 24.381 0 0 0-2.059-.738c-.699-.211-1.406-.39-2.12-.531A22.329 22.329 0 0 0 38.526.46ZM18.785 22.759c0-.645.031-1.29.098-1.934.062-.644.156-1.281.281-1.914a19.775 19.775 0 0 1 2.95-7.117 19.714 19.714 0 0 1 2.453-2.992 19.714 19.714 0 0 1 4.656-3.45 20.301 20.301 0 0 1 3.574-1.484 19.415 19.415 0 0 1 1.879-.469 19.735 19.735 0 0 1 5.785-.285 19.915 19.915 0 0 1 3.797.754 20.301 20.301 0 0 1 3.574 1.485c.57.304 1.125.636 1.66.996A19.563 19.563 0 0 1 52.484 8.8c.457.457.891.937 1.301 1.437.41.496.797 1.016 1.156 1.555.36.535.692 1.09.996 1.66a19.775 19.775 0 0 1 1.48 3.574c.188.621.345 1.246.47 1.883.129.633.222 1.27.285 1.914.062.645.094 1.29.094 1.934v11.176h-4.688V22.758c0-.988-.098-1.965-.289-2.934A15.2 15.2 0 0 0 52.43 17a14.597 14.597 0 0 0-1.39-2.602 14.949 14.949 0 0 0-4.152-4.152 14.853 14.853 0 0 0-2.602-1.39A14.776 14.776 0 0 0 41.465 8c-.973-.195-1.95-.29-2.938-.29-.988 0-1.968.095-2.937.29a14.9 14.9 0 0 0-2.824.855 14.96 14.96 0 0 0-4.879 3.262c-.7.7-1.325 1.461-1.875 2.281A15.118 15.118 0 0 0 24.622 17a15.09 15.09 0 0 0-1.145 5.758v11.176h-4.692Zm7.2 11.125V22.758a12.568 12.568 0 0 1 2.113-6.965c.457-.688.98-1.32 1.562-1.902a12.517 12.517 0 0 1 6.422-3.43 12.215 12.215 0 0 1 2.445-.242 12.69 12.69 0 0 1 4.8.953 12.517 12.517 0 0 1 5.625 4.621c.462.684.845 1.406 1.161 2.168a12.568 12.568 0 0 1 .957 4.797v11.176Zm38.542 5.355v29.926a2.89 2.89 0 0 1-.222 1.09 2.783 2.783 0 0 1-.621.922c-.27.27-.579.472-.926.617a2.842 2.842 0 0 1-1.09.219H15.363c-.379 0-.742-.075-1.093-.219a2.828 2.828 0 0 1-.926-.617 2.907 2.907 0 0 1-.621-.922 2.813 2.813 0 0 1-.22-1.09V39.238c0-.379.075-.742.22-1.09.148-.347.355-.656.62-.921.27-.27.579-.473.927-.618a2.847 2.847 0 0 1 1.093-.218h46.328c.38 0 .743.074 1.09.218.352.145.66.348.926.618.27.265.477.574.621.921.149.348.223.711.223 1.09Zm0 0"/></g><path fill="#f9a92c" d="M43.367 53.36h-8.703v-7.422h8.703c.168 0 .328-.032.48-.098a1.242 1.242 0 0 0 .773-1.156c.001-.168-.03-.329-.093-.48a1.202 1.202 0 0 0-.273-.407 1.242 1.242 0 0 0-.887-.367h-3.586l-.101-3.766a1.249 1.249 0 0 0-.774-1.156 1.257 1.257 0 0 0-.48-.098 1.288 1.288 0 0 0-.887.367 1.247 1.247 0 0 0-.27.41 1.183 1.183 0 0 0-.097.477l.101 3.766h-3.761c-.168 0-.328.03-.48.093-.157.063-.29.157-.407.274-.121.117-.21.25-.273.406a1.254 1.254 0 0 0-.094.48v9.934a1.249 1.249 0 0 0 .773 1.156c.153.063.313.098.48.098h8.778l.2 7.524-8.977.25c-.168 0-.328.03-.48.097-.157.063-.29.153-.407.27-.121.117-.21.254-.273.406a1.283 1.283 0 0 0 0 .96c.062.153.152.29.273.407.117.117.25.211.406.274.153.062.313.093.48.093l3.688-.113v3.54c0 .163.031.323.094.48.062.152.152.289.273.406.118.117.25.207.407.27.152.066.312.097.48.097.164 0 .324-.031.477-.098a1.208 1.208 0 0 0 .68-.675c.066-.157.097-.317.097-.48v-3.65l4.04-.113c.163 0 .323-.03.476-.097a1.208 1.208 0 0 0 .68-.68c.062-.152.097-.312.097-.477l-.277-9.933a1.193 1.193 0 0 0-.102-.508 1.258 1.258 0 0 0-.738-.695 1.287 1.287 0 0 0-.516-.067ZM27.113 45.11a1.23 1.23 0 0 0 .371-.325c.106-.133.18-.281.223-.441.043-.16.055-.324.035-.492a1.356 1.356 0 0 0-.156-.47 1.264 1.264 0 0 0-1.258-.625c-.168.02-.324.075-.469.157-.652.375-6.457 3.762-7.25 10.672a14.408 14.408 0 0 0 .184 4.137 14.218 14.218 0 0 0 1.36 3.91 14.238 14.238 0 0 0 2.417 3.36 14.21 14.21 0 0 0 3.278 2.527c.195.113.402.164.625.164.484.004.847-.2 1.093-.614.079-.14.125-.289.145-.449.023-.16.012-.316-.027-.469a1.235 1.235 0 0 0-.543-.75 11.823 11.823 0 0 1-4.72-4.843 11.801 11.801 0 0 1-1.288-6.633c.133-.914.367-1.797.703-2.656a12.301 12.301 0 0 1 3.07-4.524 12.059 12.059 0 0 1 2.207-1.637ZM50.766 42.914a1.237 1.237 0 0 0-.957-.121 1.231 1.231 0 0 0-.442.219 1.23 1.23 0 0 0-.324.37 1.279 1.279 0 0 0-.121.962 1.264 1.264 0 0 0 .59.765 12.261 12.261 0 0 1 5.281 6.133c.336.856.574 1.738.715 2.645a11.834 11.834 0 0 1-3.273 9.426 11.83 11.83 0 0 1-2.708 2.09 1.17 1.17 0 0 0-.367.324 1.163 1.163 0 0 0-.215.441 1.243 1.243 0 0 0 .129.953c.242.406.602.613 1.078.613.223 0 .434-.054.63-.164a14.319 14.319 0 0 0 7.05-9.797 14.27 14.27 0 0 0 .184-4.136c-.778-6.899-6.582-10.348-7.25-10.723Zm0 0"/><g clip-path="url(#b)"><path fill="#f9a92c" d="M57.676 54.504c0 .656-.031 1.312-.098 1.965-.062.652-.16 1.304-.289 1.945-.129.645-.289 1.281-.477 1.91a20.54 20.54 0 0 1-.664 1.856 20.57 20.57 0 0 1-.843 1.78 19.47 19.47 0 0 1-1.012 1.688 19.241 19.241 0 0 1-1.172 1.582c-.418.508-.86.993-1.324 1.457a19.527 19.527 0 0 1-3.04 2.497c-.546.363-1.109.703-1.687 1.011a20.63 20.63 0 0 1-1.78.844c-.606.25-1.224.473-1.852.66a20.086 20.086 0 0 1-3.86.77c-.652.062-1.308.097-1.965.097a20.76 20.76 0 0 1-1.968-.097 20.086 20.086 0 0 1-3.855-.77 19.771 19.771 0 0 1-1.856-.66c-.606-.254-1.2-.535-1.778-.844a19.939 19.939 0 0 1-1.691-1.011 21.992 21.992 0 0 1-1.578-1.172c-.508-.418-.996-.86-1.461-1.325a20.23 20.23 0 0 1-2.496-3.04c-.364-.545-.7-1.108-1.012-1.686a20.534 20.534 0 0 1-1.504-3.637 20.085 20.085 0 0 1-.48-1.91 20.291 20.291 0 0 1 0-7.824 20.085 20.085 0 0 1 1.144-3.766c.25-.605.531-1.199.84-1.781.312-.578.648-1.14 1.012-1.688a20.23 20.23 0 0 1 3.957-4.363 21.992 21.992 0 0 1 1.578-1.172c.547-.363 1.11-.703 1.691-1.011.578-.309 1.172-.59 1.778-.844.609-.25 1.226-.473 1.855-.66a20.085 20.085 0 0 1 3.856-.77 20.754 20.754 0 0 1 3.933 0 20.085 20.085 0 0 1 3.86.77c.628.187 1.246.41 1.851.66.61.254 1.203.535 1.781.844.578.308 1.14.648 1.688 1.011a19.527 19.527 0 0 1 3.04 2.496c.464.465.905.95 1.323 1.457a19.24 19.24 0 0 1 1.172 1.582c.367.547.703 1.11 1.012 1.688.312.582.59 1.176.843 1.781.25.606.473 1.227.664 1.856.188.629.348 1.265.477 1.91.129.64.227 1.293.29 1.945.066.653.097 1.309.097 1.969Zm0 0"/></g><g clip-path="url(#c)"><path fill="#f9a92c" fill-rule="evenodd" d="M57.355 58.078 45.051 45.773l-4.54-1.703-8.667.055v9.848l-3.399-.008v2.574l2.117 2.117h-2.007v2.696l12.851 12.851c8.11-1.55 14.485-7.984 15.95-16.125Zm0 0"/></g><path fill="#fff" fill-rule="evenodd" d="m31.844 44.125 9.285-.059c3.11 0 5.652 2.727 5.652 6.051v.344c0 3.324-2.547 6.05-5.652 6.05h-6.035v2.145h7.968v2.696h-7.968v3.378h-3.25v-3.378h-3.29v-2.696h3.29V56.54h-3.399v-2.574l3.399.008Zm3.25 2.863v6.965h5.148a3.401 3.401 0 0 0 3.387-3.387v-.195a3.398 3.398 0 0 0-3.387-3.383Zm0 0"/></svg>