<svg width="32" height="32" viewBox="0 0 32 32" fill="none" xmlns="http://www.w3.org/2000/svg">
<path d="M28 13.3333C28 22.6666 16 30.6666 16 30.6666C16 30.6666 4 22.6666 4 13.3333C4 10.1507 5.26428 7.09841 7.51472 4.84797C9.76515 2.59753 12.8174 1.33325 16 1.33325C19.1826 1.33325 22.2348 2.59753 24.4853 4.84797C26.7357 7.09841 28 10.1507 28 13.3333Z" fill="#005AAA"/>
<path d="M16 17.3333C18.2091 17.3333 20 15.5424 20 13.3333C20 11.1241 18.2091 9.33325 16 9.33325C13.7909 9.33325 12 11.1241 12 13.3333C12 15.5424 13.7909 17.3333 16 17.3333Z" stroke="#FFD66B" stroke-width="2" stroke-linecap="round" stroke-linejoin="round"/>
</svg>
