<svg width="84" height="58" fill="none" xmlns="http://www.w3.org/2000/svg"><rect x=".5" y=".5" width="83" height="57" rx="3.5" fill="#fff" stroke="#F3F3F3"/><path fill-rule="evenodd" clip-rule="evenodd" d="M13.685 20.302c.69-.012 2.376-.04 3.11 2.441.52 1.757 1.348 4.635 2.485 8.634h.462a1720.33 1720.33 0 0 1 2.512-8.634c.733-2.477 2.5-2.453 3.358-2.441l.152.001h6.017v18.74h-6.133V27.999h-.411l-3.419 11.044h-4.614L13.785 27.99h-.41v11.052H7.24v-18.74h6.347l.097-.001zm26.902.001v11.052h.49l4.158-9.088c.807-1.808 2.528-1.964 2.528-1.964h5.934v18.74h-6.26V27.99h-.49L42.87 37.08c-.807 1.8-2.609 1.964-2.609 1.964h-5.935v-18.74h6.261zm28.098 13.158c3.036 0 5.779-1.775 6.652-4.253H56.165v9.835h5.954V33.46h6.566z" fill="#40A548"/><path d="M68.972 20.303H55.853c.313 4.172 3.901 7.744 7.616 7.744h12.282c.709-3.468-1.731-7.744-6.779-7.744z" fill="#1291D0"/></svg>