<svg xmlns="http://www.w3.org/2000/svg" width="200" viewBox="0 0 150 150" height="200" version="1.0"><defs><clipPath id="a"><path d="M1.387 2.305h147v145.5h-147zm0 0"/></clipPath></defs><g clip-path="url(#a)"><path fill="#f9a92c" d="M148.586 141.438a6.265 6.265 0 0 1-6.266 6.265H7.676a6.268 6.268 0 0 1-6.27-6.266zM13.004 82.504V10.527A8.206 8.206 0 0 1 21.21 2.32h107.574a8.206 8.206 0 0 1 8.207 8.207v71.977a8.206 8.206 0 0 1-8.207 8.207H21.211a8.206 8.206 0 0 1-8.207-8.207zM73.668 5.656c0 .73.594 1.328 1.328 1.328a1.327 1.327 0 1 0-1.328-1.328zM20.047 80.277A4.223 4.223 0 0 0 24.27 84.5h101.457a4.223 4.223 0 0 0 4.222-4.223V12.754a4.223 4.223 0 0 0-4.222-4.223H24.27a4.223 4.223 0 0 0-4.223 4.223zM148.363 140.2H1.633l12.219-44.187a5.219 5.219 0 0 1 5.027-3.825h112.238a5.214 5.214 0 0 1 5.024 3.825zM12.461 122.922h125.07L131.176 97.5H19.086zm73.129 5.93c0-.895-.727-1.622-1.621-1.622H66.023c-.894 0-1.617.727-1.617 1.622v5.71c0 .895.723 1.622 1.617 1.622H83.97c.894 0 1.62-.727 1.62-1.621zm5.742-81.782-4.18 1.399c.008.207.016.414.016.62 0 .153-.004.306-.008.458l4.172 1.394-.539 3.043-4.367-.113c-.114.352-.235.695-.371 1.035l3.414 2.719-1.543 2.672-4.047-1.594c-.227.297-.465.582-.711.856l2.27 3.707-2.368 1.984-3.242-2.867c-.316.199-.64.39-.973.566l.864 4.235-2.903 1.058-2.062-3.793c-.367.078-.738.145-1.113.196L73 68.915h-3.086l-.64-4.27c-.376-.051-.747-.118-1.118-.196l-2.058 3.793-2.903-1.058.864-4.235a16.248 16.248 0 0 1-.977-.566l-3.238 2.867-2.367-1.984 2.27-3.707a13.752 13.752 0 0 1-.712-.856l-4.047 1.594-1.543-2.672 3.414-2.719c-.136-.34-.257-.683-.37-1.035l-4.372.113-.535-3.043 4.172-1.394c-.004-.152-.008-.305-.008-.457 0-.207.008-.414.016-.621l-4.18-1.399.535-3.043 4.426.118c.11-.336.234-.668.367-.997l-3.465-2.757 1.543-2.676 4.145 1.633c.215-.274.441-.54.676-.797l-2.332-3.801 2.367-1.988 3.347 2.965c.293-.18.594-.352.899-.516l-.895-4.383 2.903-1.058 2.14 3.94c.332-.07.672-.128 1.012-.175l.664-4.437H73l.664 4.437c.34.047.68.106 1.012.176l2.14-3.941 2.903 1.058-.895 4.383c.305.164.606.336.899.516l3.347-2.965 2.368 1.988-2.333 3.8c.235.259.461.524.676.798l4.145-1.633 1.543 2.676-3.465 2.757c.133.329.258.66.367.997l4.422-.118zm-12.996-7.953-3.781 6.551a4.885 4.885 0 0 1 1.812 3.086h7.203a12.114 12.114 0 0 0-5.234-9.637zm-1.3-.785a12.074 12.074 0 0 0-5.579-1.36c-2.012 0-3.906.493-5.578 1.36l3.84 6.652a4.92 4.92 0 0 1 1.832-.355c.59 0 1.152.105 1.676.297zM59.343 48.754h7.386a4.885 4.885 0 0 1 1.688-2.984l-3.84-6.653a12.114 12.114 0 0 0-5.234 9.637zm.054 1.516a12.13 12.13 0 0 0 5.532 9.027l3.496-6.05a4.882 4.882 0 0 1-1.692-2.977zm6.86 9.765c1.578.75 3.34 1.172 5.199 1.172 1.86 0 3.621-.422 5.195-1.172l-3.433-5.95a4.91 4.91 0 0 1-1.668.294 4.77 4.77 0 0 1-1.82-.356zm17.258-9.765h-7.153a4.88 4.88 0 0 1-1.816 3.074l3.433 5.953a12.124 12.124 0 0 0 5.536-9.027zm12.609-23.422a7.328 7.328 0 0 1-1.766 2.5l.891 1.824-1.191.816-1.38-1.476a7.262 7.262 0 0 1-2.976.773l-.488 1.957-1.438-.137-.105-2.011a7.276 7.276 0 0 1-2.777-1.332l-1.633 1.191-1.012-1.027 1.219-1.625a7.33 7.33 0 0 1-1.262-2.79l-2.035-.14-.117-1.441 2.004-.461.015-.215c.094-.977.38-1.89.809-2.711l-1.488-1.438.835-1.171 1.852.941a7.385 7.385 0 0 1 2.492-1.7l-.222-2.081 1.398-.36.82 1.926a7.506 7.506 0 0 1 1.512-.012 7.37 7.37 0 0 1 1.48.301l1.172-1.738 1.301.621-.61 2a7.37 7.37 0 0 1 2.118 2.14l2.004-.57.598 1.313-1.735 1.125a7.352 7.352 0 0 1 .25 3.027l1.88.836-.388 1.39zm-6.105-8.516-.188 3.605a2.285 2.285 0 0 1 1.39.868l3.11-1.586a5.659 5.659 0 0 0-4.312-2.887zm3.796 9.133-2.726-1.77c-.395.438-.93.696-1.492.746l-.168 3.176a5.67 5.67 0 0 0 4.386-2.152zm-5.093 2.11.168-3.184c-.254-.055-.5-.16-.73-.309a2.241 2.241 0 0 1-.626-.602l-2.937 1.497a5.643 5.643 0 0 0 4.125 2.597zm-3.989-8.848 2.97 1.925a2.29 2.29 0 0 1 1.417-.738l.192-3.617a5.668 5.668 0 0 0-4.579 2.43zm-.988 2.687a5.609 5.609 0 0 0 .512 2.941l2.965-1.511a2.293 2.293 0 0 1 .093-1.594l-2.949-1.918a5.566 5.566 0 0 0-.62 2.082zm11.27 1.082a5.682 5.682 0 0 0-.38-2.637l-3.085 1.575a2.264 2.264 0 0 1-.074 1.668l2.746 1.785c.43-.707.707-1.516.793-2.39zM82.562 74.152H49.669v1.72h32.895zm19.196-.746v3.211h-53.52v-3.21zm-.883.461H49.121v2.29h51.754v-2.29" fill-rule="evenodd"/></g></svg>