<svg xmlns="http://www.w3.org/2000/svg" width="100" viewBox="0 0 75 75" height="100" version="1.0"><defs><clipPath id="a"><path d="M1.012 16H27v43H1.012zm0 0"/></clipPath><clipPath id="b"><path d="M48 16h25.762v43H48zm0 0"/></clipPath><clipPath id="c"><path d="M9 59h57v14.762H9zm0 0"/></clipPath><clipPath id="d"><path d="M9 1.012h57V16H9zm0 0"/></clipPath></defs><path fill="#f9a92c" d="M15.266 51.18h-3.422a1.1 1.1 0 0 0-.438.09c-.136.054-.261.14-.367.246-.11.105-.191.23-.25.37a1.175 1.175 0 0 0-.086.434 1.131 1.131 0 0 0 .336.809 1.12 1.12 0 0 0 .805.332h3.422a1.12 1.12 0 0 0 .804-.332 1.131 1.131 0 0 0 .25-1.242 1.092 1.092 0 0 0-.25-.371 1.104 1.104 0 0 0-.367-.246 1.124 1.124 0 0 0-.437-.09zm0-29.645h-3.422a1.115 1.115 0 0 0-.805.336 1.115 1.115 0 0 0-.336.805 1.131 1.131 0 0 0 .336.809 1.12 1.12 0 0 0 .805.332h3.422a1.12 1.12 0 0 0 .804-.333 1.131 1.131 0 0 0 .336-.808 1.115 1.115 0 0 0-.336-.805 1.115 1.115 0 0 0-.804-.336zM59.734 53.46h3.418c.153 0 .297-.026.438-.085.14-.059.262-.14.37-.246.106-.11.188-.23.247-.371a1.12 1.12 0 0 0 .086-.438 1.14 1.14 0 0 0-.332-.805 1.12 1.12 0 0 0-.371-.245 1.124 1.124 0 0 0-.438-.09h-3.418c-.152 0-.297.03-.437.09a1.12 1.12 0 0 0-.617.617 1.101 1.101 0 0 0-.086.433 1.152 1.152 0 0 0 .332.808 1.12 1.12 0 0 0 .809.332zm0-29.644h3.418a1.152 1.152 0 0 0 .808-.332 1.12 1.12 0 0 0 .332-.809 1.12 1.12 0 0 0-.331-.804 1.131 1.131 0 0 0-.809-.336h-3.418a1.131 1.131 0 0 0-.809.336 1.12 1.12 0 0 0-.332.805 1.167 1.167 0 0 0 .333.808c.11.106.23.188.37.246.142.06.286.086.438.086zm0 0"/><g clip-path="url(#a)"><path fill="#f9a92c" d="M26.098 53.46V35.22h-2.282v18.24c0 .305-.058.594-.171.875a2.297 2.297 0 0 1-1.235 1.234c-.281.114-.57.172-.875.172H5.575c-.305 0-.595-.058-.876-.172a2.297 2.297 0 0 1-1.234-1.234 2.313 2.313 0 0 1-.172-.875V21.535a2.272 2.272 0 0 1 1.406-2.105c.281-.117.57-.176.875-.176h15.961c.305 0 .594.058.875.176a2.272 2.272 0 0 1 1.406 2.105v6.844h2.282v-6.844a4.69 4.69 0 0 0-.348-1.746 4.603 4.603 0 0 0-1.68-2.047 4.619 4.619 0 0 0-.789-.418 4.413 4.413 0 0 0-1.746-.347H5.575a4.413 4.413 0 0 0-1.746.348 4.4 4.4 0 0 0-1.48.988 4.603 4.603 0 0 0-.99 1.476 4.69 4.69 0 0 0-.347 1.746v31.926a4.69 4.69 0 0 0 .348 1.746 4.603 4.603 0 0 0 .988 1.48 4.602 4.602 0 0 0 1.48.989 4.69 4.69 0 0 0 1.746.347h15.961a4.69 4.69 0 0 0 1.746-.348 4.602 4.602 0 0 0 1.48-.988 4.603 4.603 0 0 0 .989-1.48 4.69 4.69 0 0 0 .348-1.746zm0 0"/></g><path fill="#f9a92c" d="M16.977 31.797a1.127 1.127 0 0 0 .332.808 1.12 1.12 0 0 0 .809.332h22.894l-1.301.708a1.141 1.141 0 0 0 .227 2.093c.144.043.292.059.44.04.153-.016.294-.06.427-.133l5.222-2.848c.395-.219.594-.55.594-1 0-.453-.2-.785-.594-1.004l-5.222-2.848a1.16 1.16 0 0 0-.426-.136c-.149-.016-.297 0-.441.039a1.158 1.158 0 0 0-.395.207c-.117.093-.215.21-.285.343a1.088 1.088 0 0 0-.133.422c-.02.153-.004.301.04.446.042.144.108.277.202.394.098.117.211.211.344.285l1.3.711H18.118c-.152 0-.297.032-.437.09-.14.055-.262.137-.371.246a1.14 1.14 0 0 0-.332.805zm0 0"/><g clip-path="url(#b)"><path fill="#f9a92c" d="M69.426 16.977H53.46a4.413 4.413 0 0 0-1.746.348 4.4 4.4 0 0 0-1.477.988 4.4 4.4 0 0 0-.57.69 4.893 4.893 0 0 0-.422.786 4.587 4.587 0 0 0-.344 1.746v18.242h2.278V21.535c0-.3.058-.594.175-.87a2.26 2.26 0 0 1 .493-.743 2.324 2.324 0 0 1 1.613-.668h15.965c.3 0 .594.058.87.176a2.265 2.265 0 0 1 1.235 1.234c.117.277.172.57.172.871v31.926a2.24 2.24 0 0 1-.668 1.613c-.21.215-.457.38-.738.496-.277.114-.57.172-.871.172H53.46a2.272 2.272 0 0 1-2.105-1.406 2.244 2.244 0 0 1-.176-.875v-6.84h-2.278v6.84a4.529 4.529 0 0 0 1.336 3.227 4.602 4.602 0 0 0 1.477.988 4.69 4.69 0 0 0 1.746.347h15.965c.297 0 .594-.03.886-.09a4.512 4.512 0 0 0 1.645-.68 4.538 4.538 0 0 0 1.68-2.046 4.414 4.414 0 0 0 .347-1.746V21.535a4.414 4.414 0 0 0-.348-1.746 4.345 4.345 0 0 0-.421-.785 4.376 4.376 0 0 0-.567-.692 4.4 4.4 0 0 0-1.48-.988 4.518 4.518 0 0 0-1.742-.348zm0 0"/></g><path fill="#f9a92c" d="M58.352 43.2a1.12 1.12 0 0 0-.332-.805 1.092 1.092 0 0 0-.372-.25 1.195 1.195 0 0 0-.437-.086H34.316l1.301-.707c.133-.07.246-.168.344-.286.094-.117.16-.25.203-.394.043-.145.059-.293.043-.442a1.16 1.16 0 0 0-.137-.425 1.147 1.147 0 0 0-.285-.344 1.15 1.15 0 0 0-1.262-.11l-5.222 2.852c-.395.215-.594.547-.594 1 0 .45.2.785.594 1l5.222 2.852a1.154 1.154 0 0 0 .868.093 1.158 1.158 0 0 0 .68-.546c.074-.133.117-.274.132-.426a1.126 1.126 0 0 0-.246-.836 1.099 1.099 0 0 0-.34-.29l-1.3-.71H57.21a1.14 1.14 0 0 0 .809-.332c.105-.11.187-.23.246-.371a1.12 1.12 0 0 0 .086-.438zm-11.731 9.437v-2.75a15.32 15.32 0 0 1-11.555 2.809 15.1 15.1 0 0 1-4.617-1.52 15.274 15.274 0 0 1-2.07-1.29v2.75a17.536 17.536 0 0 0 4.387 1.887c1.547.434 3.125.649 4.734.649a17.5 17.5 0 0 0 4.734-.649 17.66 17.66 0 0 0 4.387-1.886zM28.379 22.355v2.75a15.274 15.274 0 0 1 2.07-1.289 15.1 15.1 0 0 1 4.617-1.52 14.927 14.927 0 0 1 2.434-.194c.816 0 1.625.062 2.43.195a15.32 15.32 0 0 1 6.691 2.809v-2.743a17.65 17.65 0 0 0-9.121-2.535c-1.61 0-3.188.215-4.734.645a17.405 17.405 0 0 0-4.387 1.89zm0 0"/><g clip-path="url(#c)"><path fill="#f9a92c" d="M60.258 63.117a1.947 1.947 0 0 1-1.39.625 1.11 1.11 0 0 1-.806-.297l-3.128-3.14H53.46a6.748 6.748 0 0 1-2.48-.477 25.677 25.677 0 0 1-7.891 3.16l-1.79.395v7c0 .719-.816 1.32-1.777 1.32h-4.046c-.965 0-1.782-.601-1.782-1.32v-7l-1.789-.395a25.619 25.619 0 0 1-7.89-3.16 6.748 6.748 0 0 1-2.48.477H20.07l-3.129 3.133c-.23.21-.5.312-.808.304a1.94 1.94 0 0 1-1.39-.625l-2.813-2.812H9.25a4.426 4.426 0 0 0 1.016 1.566l2.851 2.852c.828.84 1.832 1.27 3.016 1.28a3.247 3.247 0 0 0 2.414-.968l3.656-3.66a28.05 28.05 0 0 0 9.211 3.82v5.164c0 1.989 1.816 3.602 4.063 3.602h4.046c2.239 0 4.059-1.613 4.059-3.602v-5.164a28.056 28.056 0 0 0 9.219-3.82l3.652 3.66a3.26 3.26 0 0 0 2.418.969c1.176-.02 2.176-.45 3-1.29l2.852-2.85c.449-.45.785-.973 1.011-1.567h-2.671zm0 0"/></g><g clip-path="url(#d)"><path fill="#f9a92c" d="M14.742 11.879c.38-.39.844-.59 1.39-.606.31-.007.575.094.802.305l3.136 3.133h1.465a6.81 6.81 0 0 1 2.48.473 25.707 25.707 0 0 1 7.891-3.157l1.797-.394V4.617c-.008-.719.809-1.324 1.774-1.324h4.046c.961 0 1.778.605 1.778 1.324v7.004l1.797.395a25.737 25.737 0 0 1 7.89 3.152 6.689 6.689 0 0 1 2.473-.473h1.465l3.136-3.136c.227-.207.497-.309.805-.301.547.02 1.008.226 1.383.62l2.816 2.817h2.676a4.41 4.41 0 0 0-1.015-1.562l-2.852-2.852c-.824-.844-1.828-1.273-3.008-1.289a3.263 3.263 0 0 0-2.418.973l-3.656 3.652a28.022 28.022 0 0 0-9.219-3.82v-5.18c0-1.996-1.816-3.605-4.058-3.605h-4.047c-2.246 0-4.059 1.61-4.059 3.605v5.164a27.898 27.898 0 0 0-9.21 3.82l-3.657-3.656a3.256 3.256 0 0 0-2.41-.953c-1.18.02-2.18.45-3.004 1.29l-2.852 2.85a4.406 4.406 0 0 0-1.027 1.563h2.68zm0 0"/></g></svg>