<svg xmlns="http://www.w3.org/2000/svg" width="100" height="100" version="1.0" viewBox="0 0 75 75"><defs><clipPath id="a"><path d="M4.543 53h66v21h-66Zm0 0"/></clipPath><clipPath id="b"><path d="M4.543 0H46v35H4.543Zm0 0"/></clipPath></defs><path fill="#f9a92c" d="M10.227 49.84c1.085-.063 2.484.45 3.98 2.289l4.719 5.797c.23.285.097.57-.02.683l-.797.715-4.14-.972c-.989-.227-1.04-.32-1.656-1.094l-4.157-5.219c-.226-.281-.238-.543-.066-.922.168-.375.574-.797 1.152-1.043a2.96 2.96 0 0 1 .985-.234Zm0 0"/><g clip-path="url(#a)"><path fill="#f9a92c" d="M56.684 53.773c2.62-.058 5.187.754 9.277 2.254.266.098.488.153.762.2l2.656.457c.55.093 1.094.437 1.094 1.351v10.836c0 .61-.254.98-1.38.785l-3.222-.558c-1.707-.293-3.379-.672-6.871-.008-3.176.605-6.297 1.656-9.273 2.492-2.047.57-4.102 1.066-5.68 1.57-2.504.801-5.211.868-7.457.102L5.87 62.746c-1.316-.453-1.21-1.281-.71-2.184.562-1.027 2.327-1.886 5.437-1.16l6.187 1.45c.52.12.457.289.582.761.281 1.075 1.067 2.016 1.961 2.336l18.02 5.336c1.207.363 1.539-.625.34-1.031l-17.782-6.008c-1.093-.367-.879-1.101-.441-1.754.586-.89 2.539-1.62 5.64-.824l13.297 3.512c1.227.324 1.989.27 2.942.035 2.574-.63 8.597-2.106 12-2.942 3.695-.906 6.082-.742 11.742 1.122 1.152.406 1.394-.536.266-.989-5.586-2.226-8.497-2.832-12.434-1.863-4.332 1.062-12.352 2.996-12.652 3.078-.836.223-2.047-.309-.395-1.14l6.246-3.16c4.942-2.497 7.883-3.497 10.567-3.548Zm0 0"/></g><g clip-path="url(#b)"><path fill="#f9a92c" fill-rule="evenodd" d="m14.938 1.082 1.417 1.578c2.145 2.38 3.415 3.574 6.883 4.38l15.575 3.608c1.488.344 2.273.778 2.816 1.278.539.492.875 1.129 1.293 2.031l2.668 5.68c.433.93.2 1.066-.93.93-.695-.087-1.394-.063-2.09 0-2.242.206-4.457 1.042-6.218 2.597-.536.473-.461.418-.997.164l-5.453-2.637c-1.164-.566-1.629-1.66-1.449-2.613.262-1.36-.82-1.894-1.183-.808-.715 2.168-.02 4.132 1.64 4.988l7.676 3.984c1.613.801 3.027 1.852 3.875 3.035.848 1.176 1.164 2.407.766 3.926-.485 1.848-1.524 1.606-2.676 1.07-5.832-2.695-8.953-4.562-14.961-5.562-3.426-.574-6.527-1.516-8.293-3.727l-5.055-6.324c-.902-1.133-1.492-2.8-2.152-4.508-.88-2.27-1.094-1.8-2.719-3.554-.691-.754-.797-1.68.086-2.578l6.813-6.993c.886-.914 1.988-.687 2.668.055Zm0 0"/></g><path fill="#f9a92c" fill-rule="evenodd" d="M43.512 22.531A9.219 9.219 0 0 1 48.602 24a9.218 9.218 0 0 1 3.742 10.742 9.216 9.216 0 0 1-9.532 6.215c-2.933-.258-5.492-1.863-6.98-4.238-.645-1.035-.719-1.828.973-1.028.285.137.578.27.894.414 1.344.625 2.516.93 3.578.442 1.063-.488 1.547-1.555 1.895-2.805.582-2.105.05-4.086-1.074-5.64-.766-1.07-1.754-2.024-2.942-2.711-1.011-.582-1.117-1.07.137-1.786 1.289-.73 2.758-1.054 4.219-1.074ZM28.598 32.027c1.199.371 2.254.883 3.465 1.41.511.227.48.458.609.895.066.242.14.488.21.73.126.485-.015.626-.804.38l-2.39-.758c-1.29-.41-2.032-.914-2.157-1.422-.246-1.02.485-1.414 1.067-1.235Zm0 0"/></svg>