<svg width="32" height="32" viewBox="0 0 32 32" fill="none" xmlns="http://www.w3.org/2000/svg">
<path d="M29.3333 22.56V26.56C29.3348 26.9313 29.2587 27.2989 29.11 27.6391C28.9612 27.9793 28.743 28.2847 28.4694 28.5358C28.1958 28.7868 27.8727 28.9779 27.5209 29.0969C27.1692 29.2159 26.7964 29.2601 26.4266 29.2266C22.3237 28.7808 18.3826 27.3788 14.9199 25.1333C11.6984 23.0862 8.96707 20.3549 6.91995 17.1333C4.66659 13.6549 3.26428 9.69462 2.82662 5.5733C2.7933 5.20459 2.83712 4.83298 2.95529 4.48213C3.07345 4.13128 3.26338 3.80889 3.51297 3.53546C3.76257 3.26204 4.06636 3.04358 4.40501 2.894C4.74365 2.74441 5.10974 2.66698 5.47995 2.66663H9.47995C10.127 2.66026 10.7543 2.8894 11.245 3.31134C11.7356 3.73328 12.0561 4.31923 12.1466 4.95997C12.3154 6.24005 12.6285 7.49693 13.08 8.70663C13.2593 9.18386 13.2982 9.70252 13.1918 10.2011C13.0855 10.6998 12.8384 11.1574 12.4799 11.52L10.7866 13.2133C12.6847 16.5514 15.4486 19.3152 18.7866 21.2133L20.4799 19.52C20.8425 19.1615 21.3002 18.9144 21.7988 18.8081C22.2974 18.7017 22.816 18.7406 23.2933 18.92C24.503 19.3714 25.7599 19.6845 27.0399 19.8533C27.6876 19.9447 28.2792 20.2709 28.702 20.77C29.1248 21.269 29.3495 21.9061 29.3333 22.56Z" fill="#005AAA"/>
<path d="M20.0667 6.66659C21.369 6.92067 22.5658 7.5576 23.5041 8.49583C24.4423 9.43407 25.0792 10.6309 25.3333 11.9333M20.0667 1.33325C22.7723 1.63383 25.2954 2.84548 27.2216 4.76926C29.1478 6.69304 30.3627 9.2146 30.6666 11.9199" stroke="#FFD66B" stroke-width="2" stroke-linecap="round" stroke-linejoin="round"/>
</svg>
