<svg width="24" height="16" viewBox="0 0 24 16" fill="none" xmlns="http://www.w3.org/2000/svg">
<g clip-path="url(#clip0_9_1657)">
<path d="M0 2C0 0.895431 0.895431 0 2 0H22C23.1046 0 24 0.895431 24 2V14C24 15.1046 23.1046 16 22 16H2C0.89543 16 0 15.1046 0 14V2Z" fill="#102310"/>
<path d="M12.7353 5.85294H11.2941V7.88235H12.7353C13.0588 7.88235 13.3235 7.79412 13.5 7.61765C13.7059 7.44118 13.7941 7.17647 13.7941 6.88235C13.7941 6.58824 13.7059 6.35294 13.5 6.14706C13.3235 5.97059 13.0588 5.85294 12.7353 5.85294Z" fill="#4FAD50"/>
<path d="M12 2C8.67647 2 6 4.67647 6 8C6 11.3235 8.67647 14 12 14C15.3235 14 18 11.3235 18 8C17.9706 4.67647 15.2941 2 12 2ZM14.2941 8.29411C13.9118 8.64705 13.4118 8.85294 12.8235 8.85294H11.2941V9.38235H13.5588C13.5882 9.38235 13.6471 9.38235 13.6765 9.41176C13.7059 9.44118 13.7059 9.47059 13.7059 9.52941V10.1176C13.7059 10.1471 13.7059 10.2059 13.6765 10.2353C13.6471 10.2647 13.6176 10.2647 13.5588 10.2647H11.2941V11.1176C11.2941 11.1471 11.2941 11.2059 11.2647 11.2353C11.2353 11.2647 11.2059 11.2647 11.1765 11.2647H10.4118C10.3824 11.2647 10.3235 11.2647 10.2941 11.2353C10.2647 11.2059 10.2647 11.1765 10.2647 11.1176V10.2647H9.26471C9.23529 10.2647 9.17647 10.2647 9.14706 10.2353C9.11765 10.2059 9.11765 10.1765 9.11765 10.1176V9.52941C9.11765 9.5 9.11765 9.44118 9.14706 9.41176C9.17647 9.38235 9.20588 9.38235 9.26471 9.38235H10.2647V8.85294H9.26471C9.23529 8.85294 9.17647 8.85294 9.14706 8.82353C9.11765 8.79412 9.11765 8.76471 9.11765 8.70588V8.02941C9.11765 8 9.11765 7.97059 9.14706 7.94118C9.17647 7.91177 9.20588 7.91176 9.26471 7.91176H10.2647V5.08823C10.2647 5.05882 10.2647 5 10.2941 4.97059C10.3235 4.94118 10.3529 4.94117 10.4118 4.94117H12.8529C13.4412 4.94117 13.9412 5.11765 14.3235 5.5C14.7059 5.85294 14.8824 6.35294 14.8824 6.91177C14.8824 7.44118 14.6765 7.91176 14.2941 8.29411Z" fill="#4FAD50"/>
</g>
<defs>
<clipPath id="clip0_9_1657">
<rect width="24" height="16" fill="white"/>
</clipPath>
</defs>
</svg>
