<svg width="24" height="16" fill="none" xmlns="http://www.w3.org/2000/svg"><g clip-path="url(#a)"><path d="M0 2a2 2 0 0 1 2-2h20a2 2 0 0 1 2 2v12a2 2 0 0 1-2 2H2a2 2 0 0 1-2-2V2z" fill="#102310"/><path d="M12.735 5.853h-1.44v2.03h1.44c.324 0 .588-.089.765-.265.206-.177.294-.442.294-.736a.975.975 0 0 0-.294-.735 1.065 1.065 0 0 0-.765-.294z" fill="#4FAD50"/><path d="M12 2C8.676 2 6 4.676 6 8c0 3.323 2.676 6 6 6 3.323 0 6-2.677 6-6-.03-3.324-2.706-6-6-6zm2.294 6.294a2.12 2.12 0 0 1-1.47.559h-1.53v.53h2.265c.03 0 .088 0 .118.029.029.03.029.059.029.117v.589c0 .03 0 .088-.03.117-.029.03-.058.03-.117.03h-2.265v.853c0 .03 0 .088-.03.117-.029.03-.058.03-.087.03h-.765c-.03 0-.089 0-.118-.03-.03-.03-.03-.058-.03-.117v-.853h-1c-.029 0-.088 0-.117-.03-.03-.03-.03-.058-.03-.117v-.589c0-.029 0-.088.03-.117.03-.03.059-.03.118-.03h1v-.53h-1c-.03 0-.089 0-.118-.028-.03-.03-.03-.06-.03-.118v-.677c0-.029 0-.058.03-.088.03-.03.059-.03.118-.03h1V5.089c0-.03 0-.088.03-.117.028-.03.058-.03.117-.03h2.44c.59 0 1.09.177 1.471.559.383.353.56.853.56 1.412 0 .53-.206 1-.589 1.382z" fill="#4FAD50"/></g><defs><clipPath id="a"><path fill="#fff" d="M0 0h24v16H0z"/></clipPath></defs></svg>