<svg xmlns="http://www.w3.org/2000/svg" width="100" viewBox="0 0 75 75" height="100" version="1.0"><defs><clipPath id="a"><path d="M1.512 25h72.75v48.348H1.512Zm0 0"/></clipPath><clipPath id="b"><path d="M39 1.348h16V19H39Zm0 0"/></clipPath><clipPath id="c"><path d="M7.922 45.3h60v25.5h-60Zm0 0"/></clipPath></defs><g clip-path="url(#a)"><path fill="#f9a92c" d="M73.23 36.355a4.028 4.028 0 0 0-3.16-1.52H44.613l-1.87-8.92a.573.573 0 0 0-.68-.446l-10.18 2.133a.576.576 0 0 0-.445.68l1.375 6.558H20.53a4.019 4.019 0 0 0-3.937 3.133l-.532 2.32-.18-.633a3.221 3.221 0 0 0-3.085-2.328h-.34v-3.906a.573.573 0 0 0-.574-.574H7.789a.57.57 0 0 0-.574.574v3.906H4.934a3.171 3.171 0 0 0-2.555 1.273 3.157 3.157 0 0 0-.527 2.801l8.02 28.407a5.182 5.182 0 0 0 4.964 3.757h50.973a.57.57 0 0 0 .289-.086.66.66 0 0 0 .14-.117c.008-.012.02-.015.032-.027.003-.004.003-.012.007-.016a.648.648 0 0 0 .094-.203l7.64-33.348a4.034 4.034 0 0 0-.78-3.418Zm-31.492-9.644 1.844 8.82.488 2.309-9.058 1.894-2.332-11.129ZM8.363 34h2.946v3.332H8.363Zm6.473 38.422a4.028 4.028 0 0 1-3.86-2.922L2.958 41.094a2.041 2.041 0 0 1 .336-1.797c.394-.52.988-.817 1.64-.817h7.864c.914 0 1.73.618 1.98 1.497l.786 2.796c.011.04.035.07.05.106l.024.05c.039.06.086.11.14.15.012.007.024.01.036.019a.54.54 0 0 0 .152.07c.012 0 .015.008.023.008a.485.485 0 0 0 .13.015h37.277a4.508 4.508 0 0 1 4.324 3.278l7.332 25.953Zm0 0"/></g><path fill="#f9a92c" d="M41.793 64.91c-.016-.047-.043-.086-.07-.125-.016-.023-.024-.05-.043-.07-.02-.024-.051-.04-.075-.059-.035-.027-.062-.054-.101-.074-.016-.008-.04-.012-.059-.016-.05-.02-.101-.039-.156-.043h-.008l-3.554-.183.062-2.637 2.164.067a.468.468 0 0 0 .18-.028h.015a.56.56 0 0 0 .301-.242c.012-.02.028-.031.035-.05.016-.032.02-.067.028-.102.011-.04.027-.078.027-.121.004-.004.004-.008.004-.012.004-.04-.012-.067-.016-.102-.004-.031 0-.066-.011-.097l-1.036-3.16a.571.571 0 0 0-.542-.395h-11.79l-1.23-4.555a2.722 2.722 0 0 1-.098-.707c0-1.469 1.2-2.664 2.672-2.664a4.219 4.219 0 0 1 4.07 3.113l.708 2.614c.066.25.292.425.554.425h3.14c.18 0 .349-.085.458-.226a.583.583 0 0 0 .098-.5l-.852-3.164a.563.563 0 0 0-.406-.406l-.621-.164.347-.754a.571.571 0 0 0-.011-.504 8.342 8.342 0 0 0-7.446-4.528h-.988a6.152 6.152 0 0 0-4.914 2.426 6.146 6.146 0 0 0-1.059 5.371l1.145 4.223h-1.067a.569.569 0 0 0-.464.238.59.59 0 0 0-.082.516l2.843 8.683a5.32 5.32 0 0 0 5.07 3.672H37.7a4.266 4.266 0 0 0 3.492-1.78 4.27 4.27 0 0 0 .606-3.872c0-.004-.004-.004-.004-.008Zm-1.531 3.203a3.128 3.128 0 0 1-2.563 1.309h-4.402l-.828-3.621a2.522 2.522 0 0 0 1.418-2.254 2.525 2.525 0 0 0-2.524-2.524 2.525 2.525 0 0 0-2.523 2.524 2.527 2.527 0 0 0 2.512 2.52l.765 3.355h-3.105a4.169 4.169 0 0 1-3.973-2.879l-2.598-7.934H38.52l.648 1.985-1.922-.059a.543.543 0 0 0-.41.156.566.566 0 0 0-.18.403l-.082 3.293-1.496.215a.575.575 0 0 0-.437.328l-.79 1.707a.576.576 0 0 0 .524.816.57.57 0 0 0 .52-.336l.656-1.422 1.613-.234 3.64.187a3.13 3.13 0 0 1-.542 2.465ZM6.176 18.047l4.832 12.851a.571.571 0 0 0 .738.336l10.031-3.77a.564.564 0 0 0 .32-.3.567.567 0 0 0 .016-.437l-4.836-12.86a.59.59 0 0 0-.3-.32.595.595 0 0 0-.442-.016L6.512 17.31a.57.57 0 0 0-.336.738Zm10.226-3.235 4.434 11.778-8.957 3.367L7.453 18.18Zm0 0"/><g clip-path="url(#b)"><path fill="#f9a92c" d="m39.469 15.555 10.207 3.25a.562.562 0 0 0 .438-.035.577.577 0 0 0 .284-.336l4.164-13.09a.57.57 0 0 0-.37-.719L43.98 1.371a.57.57 0 0 0-.718.375l-4.168 13.086a.576.576 0 0 0 .375.723Zm4.71-12.914 9.114 2.906-3.816 11.992-9.114-2.906Zm0 0"/></g><path fill="#f9a92c" d="M56.148 26.977a.59.59 0 0 0 .301.32.62.62 0 0 0 .239.05.536.536 0 0 0 .203-.038l2.894-1.09a.576.576 0 0 0 .336-.739l-1.418-3.78a.577.577 0 0 0-.742-.336l-2.902 1.093a.57.57 0 0 0-.332.738Zm1.68-4.336 1.016 2.703-1.82.687-1.02-2.703ZM64.832 10.855a.57.57 0 0 0 .8-.133l2.34-3.292a.572.572 0 0 0-.136-.801l-2.52-1.793a.572.572 0 0 0-.8.137l-2.344 3.289a.564.564 0 0 0-.098.43c.024.152.11.285.23.374Zm.285-4.75 1.586 1.125-1.672 2.36-1.59-1.13ZM24.223 10.855c.101.075.218.11.332.11.18 0 .36-.086.468-.242l2.344-3.293a.56.56 0 0 0 .098-.43.57.57 0 0 0-.23-.371l-2.532-1.793a.575.575 0 0 0-.8.137l-2.337 3.289a.571.571 0 0 0 .137.8Zm.285-4.75 1.59 1.125-1.676 2.356-1.586-1.125ZM4.29 8.242a.568.568 0 0 0 .722.371l2.945-.945a.577.577 0 0 0 .371-.727l-1.242-3.84a.574.574 0 0 0-.723-.37l-2.945.945a.579.579 0 0 0-.371.727ZM6.171 4l.887 2.75-1.856.594-.887-2.75Zm0 0"/><g clip-path="url(#c)"><path fill="#f9a92c" d="M55.04 70.934H20.796a12.763 12.763 0 0 1-2.496-.254 12.825 12.825 0 0 1-4.617-1.918c-.7-.469-1.344-1-1.938-1.594a12.845 12.845 0 0 1-2.781-4.152 12.914 12.914 0 0 1-.985-4.899 12.914 12.914 0 0 1 .984-4.898 12.845 12.845 0 0 1 4.72-5.746c.699-.47 1.437-.864 2.214-1.188.778-.32 1.575-.566 2.403-.73.824-.168 1.656-.25 2.496-.254h34.242c.844.004 1.676.086 2.5.254a12.787 12.787 0 0 1 4.613 1.918 12.792 12.792 0 0 1 3.531 3.531 12.845 12.845 0 0 1 2.172 7.113 12.76 12.76 0 0 1-.984 4.899 12.845 12.845 0 0 1-4.719 5.746 12.845 12.845 0 0 1-7.113 2.172Zm0 0"/></g><path fill="#fff" d="M29.629 60.105c.027.747-.254 1.344-.84 1.801-.559.438-1.324.657-2.3.66a5.512 5.512 0 0 1-2.403-.457v-1.34c.402.192.824.336 1.258.438.406.105.82.156 1.238.16.563 0 .973-.105 1.242-.32.278-.215.41-.5.399-.856a1.02 1.02 0 0 0-.368-.82c-.242-.226-.75-.492-1.511-.8-.766-.31-1.348-.684-1.668-1.094a2.241 2.241 0 0 1-.488-1.48c-.032-.7.226-1.267.769-1.704.512-.414 1.2-.625 2.063-.625a6.003 6.003 0 0 1 2.472.547l-.445 1.152a5.457 5.457 0 0 0-2.059-.484 1.54 1.54 0 0 0-1.043.3.941.941 0 0 0-.355.801c-.004.203.043.395.14.575.125.187.282.34.47.453.374.218.765.406 1.171.562.5.188.965.434 1.402.739.278.207.497.468.649.777.148.324.215.66.207 1.015Zm7.043 2.348-.867-2.398H32.5l-.848 2.398H30.16l3.23-8.695h1.536l3.238 8.687Zm-1.238-3.621-.813-2.352a11.65 11.65 0 0 1-.242-.746c-.106-.343-.18-.59-.219-.746a12.735 12.735 0 0 1-.469 1.602l-.777 2.25Zm8.804-5.027h1.469l-3.023 8.64H41.19l-3.02-8.648h1.458l1.8 5.375c.094.258.196.59.301 1.004.106.398.176.703.2.902.05-.3.129-.648.234-1.043.11-.394.203-.687.262-.875Zm7.504 8.648h-4.887v-8.656h4.891v1.2h-3.48v2.347h3.261v1.187h-3.261v2.715h3.48Zm0 0"/></svg>