<svg xmlns="http://www.w3.org/2000/svg" xmlns:xlink="http://www.w3.org/1999/xlink" width="1366" zoomAndPan="magnify" viewBox="0 0 1024.5 605.999999" height="768" preserveAspectRatio="xMidYMid meet" version="1.0"><defs><g/><clipPath id="ae017e463e"><path d="M 403 85.597656 L 624.898438 85.597656 L 624.898438 175 L 403 175 Z M 403 85.597656 " clip-rule="nonzero"/></clipPath><clipPath id="023f191aeb"><path d="M 513 130 L 624.898438 130 L 624.898438 296 L 513 296 Z M 513 130 " clip-rule="nonzero"/></clipPath><clipPath id="d7cd29d209"><path d="M 513 242 L 624.898438 242 L 624.898438 350 L 513 350 Z M 513 242 " clip-rule="nonzero"/></clipPath><clipPath id="f783014b7c"><path d="M 416.367188 245 L 463 245 L 463 249 L 416.367188 249 Z M 416.367188 245 " clip-rule="nonzero"/></clipPath><clipPath id="a48be985b0"><path d="M 451 220 L 496.578125 220 L 496.578125 229 L 451 229 Z M 451 220 " clip-rule="nonzero"/></clipPath><clipPath id="3a6cc85565"><path d="M 420 195.003906 L 494 195.003906 L 494 256 L 420 256 Z M 420 195.003906 " clip-rule="nonzero"/></clipPath><clipPath id="5f90b97933"><path d="M 488.019531 136.730469 L 540.839844 136.730469 L 540.839844 153.847656 L 488.019531 153.847656 Z M 488.019531 136.730469 " clip-rule="nonzero"/></clipPath><clipPath id="fd87d69e68"><path d="M 496 104.371094 L 540.839844 104.371094 L 540.839844 141 L 496 141 Z M 496 104.371094 " clip-rule="nonzero"/></clipPath><clipPath id="f9fab10fc8"><path d="M 554.078125 186.621094 L 597.554688 186.621094 L 597.554688 267.582031 L 554.078125 267.582031 Z M 554.078125 186.621094 " clip-rule="nonzero"/></clipPath></defs><g clip-path="url(#ae017e463e)"><path fill="#f9a928" d="M 513.886719 85.578125 L 624.722656 130.203125 L 513.886719 174.824219 L 403.050781 130.203125 Z M 513.886719 85.578125 " fill-opacity="1" fill-rule="evenodd"/></g><g clip-path="url(#023f191aeb)"><path fill="#f9a928" d="M 624.722656 130.199219 L 522.109375 183.21875 L 513.886719 295.394531 L 624.722656 250.84375 Z M 624.722656 130.199219 " fill-opacity="1" fill-rule="evenodd"/></g><path fill="#f9a928" d="M 403.050781 130.199219 L 505.667969 183.21875 L 513.886719 295.394531 L 403.050781 250.84375 Z M 403.050781 130.199219 " fill-opacity="1" fill-rule="evenodd"/><path fill="#f9a928" d="M 403.050781 250.84375 C 401.957031 271.195312 428.371094 276.789062 424.652344 295.171875 C 421.769531 309.40625 404.484375 317.9375 402.109375 331.734375 C 399.261719 348.3125 406.960938 364.933594 429.644531 366.742188 C 454.84375 368.746094 467.800781 350.128906 467.515625 337.917969 C 467.109375 320.515625 460.800781 312.84375 459.691406 305.667969 C 456.871094 287.503906 471.339844 279.902344 483.347656 283.117188 C 492.476562 285.5625 485.269531 256.4375 485.269531 256.4375 Z M 403.050781 250.84375 " fill-opacity="1" fill-rule="evenodd"/><g clip-path="url(#d7cd29d209)"><path fill="#f9a928" d="M 513.886719 295.394531 C 513.886719 295.394531 544.660156 289.304688 547.855469 304.582031 C 551.050781 319.859375 543.039062 326.027344 546.324219 338.9375 C 548.011719 345.589844 558.515625 350.664062 566.332031 349.007812 C 577.21875 346.703125 583.539062 338.703125 582.054688 329.15625 C 578.992188 309.460938 564.046875 299.328125 574.988281 291.890625 C 585.933594 284.449219 591.066406 305.042969 609.128906 300.207031 C 622.300781 296.671875 624.726562 277.863281 624.726562 250.84375 L 613.503906 242.871094 Z M 513.886719 295.394531 " fill-opacity="1" fill-rule="evenodd"/></g><path fill="#ffffff" d="M 457.800781 216.914062 C 457.808594 215.832031 458.691406 214.957031 459.773438 214.964844 C 460.855469 214.96875 461.730469 215.851562 461.722656 216.933594 C 461.71875 218.019531 460.835938 218.890625 459.753906 218.886719 C 458.667969 218.878906 457.796875 218 457.800781 216.914062 Z M 462.128906 216.9375 C 462.136719 215.628906 461.082031 214.5625 459.773438 214.558594 C 458.46875 214.550781 457.402344 215.605469 457.394531 216.914062 C 457.386719 218.222656 458.441406 219.285156 459.75 219.292969 C 461.058594 219.300781 462.125 218.246094 462.128906 216.9375 " fill-opacity="1" fill-rule="nonzero"/><path fill="#ffffff" d="M 465.351562 231.871094 C 465.355469 230.789062 466.238281 229.914062 467.320312 229.917969 C 468.40625 229.925781 469.277344 230.808594 469.273438 231.890625 C 469.265625 232.972656 468.386719 233.847656 467.300781 233.84375 C 466.21875 233.835938 465.347656 232.953125 465.351562 231.871094 Z M 469.679688 231.894531 C 469.6875 230.585938 468.632812 229.519531 467.324219 229.511719 C 466.015625 229.507812 464.949219 230.5625 464.945312 231.867188 C 464.9375 233.175781 465.992188 234.242188 467.300781 234.25 C 468.605469 234.253906 469.671875 233.199219 469.679688 231.894531 " fill-opacity="1" fill-rule="nonzero"/><path fill="#ffffff" d="M 450.648438 241.148438 L 425.339844 241.148438 L 425.339844 216.933594 C 424.316406 215.53125 423.40625 214.167969 422.621094 212.851562 L 422.621094 244.121094 L 454.9375 244.121094 C 453.519531 243.175781 452.085938 242.183594 450.648438 241.148438 " fill-opacity="1" fill-rule="nonzero"/><g clip-path="url(#f783014b7c)"><path fill="#ffffff" d="M 446.210938 245.941406 C 445.816406 245.941406 445.496094 245.625 445.496094 245.230469 L 416.371094 245.230469 C 416.371094 247.242188 418 248.871094 420.011719 248.871094 L 462.703125 248.871094 C 461.082031 247.96875 459.433594 246.988281 457.761719 245.941406 L 446.210938 245.941406 " fill-opacity="1" fill-rule="nonzero"/></g><g clip-path="url(#a48be985b0)"><path fill="#ffffff" d="M 493.835938 223.199219 C 494.023438 223.199219 494.175781 223.351562 494.175781 223.539062 L 494.175781 223.855469 C 494.175781 224.046875 494.023438 224.199219 493.835938 224.199219 L 483.996094 224.191406 C 483.804688 224.191406 483.652344 224.035156 483.652344 223.847656 L 483.652344 223.53125 C 483.65625 223.34375 483.808594 223.191406 483.996094 223.191406 Z M 493.832031 225.65625 C 494.019531 225.65625 494.175781 225.808594 494.175781 225.996094 L 494.171875 226.3125 C 494.171875 226.503906 494.019531 226.65625 493.832031 226.65625 L 483.992188 226.644531 C 483.804688 226.644531 483.652344 226.492188 483.652344 226.304688 L 483.652344 225.988281 C 483.652344 225.800781 483.804688 225.648438 483.992188 225.648438 Z M 475.554688 220.902344 C 474.632812 220.902344 473.886719 221.648438 473.886719 222.570312 L 473.882812 224.011719 L 455.777344 223.996094 C 455.601562 223.996094 455.429688 223.964844 455.265625 223.902344 L 454.824219 223.730469 L 451.847656 224.363281 L 451.847656 225.355469 L 454.824219 225.996094 L 455.261719 225.828125 C 455.425781 225.761719 455.601562 225.730469 455.777344 225.730469 L 473.882812 225.746094 L 473.882812 227.191406 C 473.878906 228.113281 474.628906 228.859375 475.550781 228.859375 L 478.886719 228.863281 C 481.199219 226.8125 483.25 228.867188 483.25 228.867188 L 492.691406 228.875 C 494.878906 228.878906 496.703125 227.140625 496.734375 224.953125 C 496.765625 222.730469 494.972656 220.917969 492.757812 220.917969 L 483.257812 220.90625 C 483.257812 220.90625 481.203125 222.960938 478.894531 220.902344 L 475.554688 220.902344 " fill-opacity="1" fill-rule="nonzero"/></g><path fill="#ffffff" d="M 456.789062 216.910156 C 456.800781 215.269531 458.136719 213.945312 459.777344 213.953125 C 461.417969 213.960938 462.742188 215.296875 462.734375 216.941406 C 462.726562 218.582031 461.386719 219.90625 459.746094 219.898438 C 458.105469 219.886719 456.78125 218.550781 456.789062 216.910156 Z M 460.117188 221.902344 L 460.773438 220.773438 L 461.902344 221.4375 C 462.132812 221.328125 462.351562 221.203125 462.558594 221.0625 L 462.5625 219.753906 L 463.871094 219.761719 C 464.011719 219.554688 464.140625 219.335938 464.25 219.109375 L 463.601562 217.976562 L 464.738281 217.328125 C 464.75 217.203125 464.753906 217.078125 464.753906 216.949219 C 464.753906 216.824219 464.75 216.695312 464.742188 216.570312 L 463.613281 215.914062 L 464.273438 214.785156 C 464.164062 214.554688 464.039062 214.339844 463.898438 214.128906 L 462.589844 214.125 L 462.597656 212.816406 C 462.394531 212.675781 462.175781 212.546875 461.949219 212.4375 L 460.8125 213.085938 L 460.167969 211.949219 C 460.042969 211.941406 459.914062 211.933594 459.789062 211.933594 C 459.660156 211.933594 459.535156 211.9375 459.410156 211.945312 L 458.75 213.074219 L 457.621094 212.414062 C 457.394531 212.523438 457.175781 212.648438 456.96875 212.789062 L 456.964844 214.097656 L 455.65625 214.089844 C 455.511719 214.292969 455.382812 214.511719 455.273438 214.738281 L 455.921875 215.875 L 454.789062 216.523438 C 454.777344 216.644531 454.773438 216.773438 454.769531 216.898438 C 454.769531 217.027344 454.773438 217.152344 454.78125 217.277344 L 455.914062 217.9375 L 455.25 219.066406 C 455.359375 219.292969 455.484375 219.511719 455.625 219.71875 L 456.933594 219.722656 L 456.925781 221.03125 C 457.132812 221.175781 457.351562 221.304688 457.578125 221.414062 L 458.710938 220.765625 L 459.359375 221.902344 C 459.484375 221.910156 459.609375 221.914062 459.738281 221.917969 C 459.863281 221.917969 459.992188 221.914062 460.117188 221.902344 " fill-opacity="1" fill-rule="nonzero"/><path fill="#ffffff" d="M 464.339844 231.867188 C 464.347656 230.222656 465.6875 228.902344 467.328125 228.910156 C 468.96875 228.917969 470.292969 230.253906 470.285156 231.894531 C 470.273438 233.535156 468.9375 234.859375 467.296875 234.851562 C 465.65625 234.84375 464.332031 233.507812 464.339844 231.867188 Z M 467.664062 236.859375 L 468.324219 235.730469 L 469.453125 236.390625 C 469.679688 236.28125 469.898438 236.15625 470.105469 236.015625 L 470.109375 234.707031 L 471.417969 234.71875 C 471.5625 234.511719 471.691406 234.292969 471.800781 234.066406 L 471.152344 232.929688 L 472.289062 232.285156 C 472.296875 232.160156 472.300781 232.035156 472.304688 231.90625 C 472.304688 231.777344 472.300781 231.652344 472.292969 231.527344 L 471.160156 230.871094 L 471.824219 229.742188 C 471.714844 229.511719 471.589844 229.292969 471.449219 229.085938 L 470.140625 229.082031 L 470.148438 227.773438 C 469.941406 227.628906 469.726562 227.503906 469.496094 227.390625 L 468.363281 228.042969 L 467.714844 226.90625 C 467.589844 226.894531 467.464844 226.890625 467.335938 226.890625 C 467.210938 226.886719 467.082031 226.894531 466.957031 226.902344 L 466.300781 228.03125 L 465.171875 227.371094 C 464.945312 227.480469 464.726562 227.605469 464.515625 227.746094 L 464.511719 229.054688 L 463.203125 229.042969 C 463.0625 229.25 462.933594 229.46875 462.824219 229.695312 L 463.472656 230.832031 L 462.335938 231.476562 C 462.328125 231.601562 462.320312 231.726562 462.320312 231.855469 C 462.320312 231.984375 462.324219 232.109375 462.332031 232.234375 L 463.460938 232.890625 L 462.800781 234.019531 C 462.910156 234.25 463.035156 234.46875 463.175781 234.675781 L 464.484375 234.679688 L 464.476562 235.988281 C 464.679688 236.132812 464.898438 236.257812 465.125 236.371094 L 466.261719 235.71875 L 466.90625 236.855469 C 467.035156 236.867188 467.160156 236.871094 467.285156 236.871094 C 467.414062 236.871094 467.539062 236.867188 467.664062 236.859375 " fill-opacity="1" fill-rule="nonzero"/><path fill="#ffffff" d="M 458.757812 241.496094 L 458.753906 241.5 L 458.765625 241.488281 Z M 458.757812 241.496094 " fill-opacity="1" fill-rule="nonzero"/><path fill="#ffffff" d="M 461.0625 238.515625 L 461.058594 238.523438 L 461.0625 238.511719 Z M 461.0625 238.515625 " fill-opacity="1" fill-rule="nonzero"/><path fill="#ffffff" d="M 485.046875 247.730469 C 486.703125 247.730469 487.933594 247.378906 488.714844 246.679688 C 488.835938 246.238281 488.894531 245.753906 488.890625 245.230469 L 475.023438 245.230469 C 478.960938 246.839844 482.417969 247.730469 485.046875 247.730469 " fill-opacity="1" fill-rule="nonzero"/><path fill="#ffffff" d="M 472.480469 244.121094 L 486.160156 244.121094 L 486.160156 229.621094 L 483.445312 229.617188 L 483.445312 241.148438 L 466.691406 241.148438 C 468.683594 242.265625 470.625 243.261719 472.480469 244.121094 " fill-opacity="1" fill-rule="nonzero"/><path fill="#ffffff" d="M 454.386719 204.46875 C 454.984375 204.46875 455.46875 204.957031 455.46875 205.554688 C 455.46875 206.15625 454.984375 206.640625 454.386719 206.640625 C 453.785156 206.640625 453.300781 206.15625 453.300781 205.554688 C 453.300781 204.957031 453.785156 204.46875 454.386719 204.46875 Z M 430.21875 207.660156 L 483.445312 207.660156 L 483.445312 220.15625 L 486.160156 220.160156 L 486.160156 205.066406 C 486.160156 204.222656 485.476562 203.539062 484.632812 203.539062 L 428.664062 203.539062 C 428.917969 204.742188 429.4375 206.125 430.21875 207.660156 " fill-opacity="1" fill-rule="nonzero"/><g clip-path="url(#3a6cc85565)"><path fill="#ffffff" d="M 439.085938 198.554688 C 433.992188 197.066406 430.183594 197.1875 428.5625 199.273438 C 424.621094 204.34375 435.105469 219.085938 451.976562 232.199219 C 468.847656 245.3125 485.722656 251.832031 489.664062 246.761719 C 491.28125 244.679688 490.460938 240.957031 487.761719 236.386719 C 492.90625 243.683594 494.863281 249.855469 492.363281 253.074219 C 487.511719 259.3125 467.785156 252.085938 448.292969 236.9375 C 428.800781 221.789062 416.929688 204.453125 421.777344 198.214844 C 424.28125 195 430.746094 195.371094 439.085938 198.554688 " fill-opacity="1" fill-rule="nonzero"/></g><g clip-path="url(#5f90b97933)"><path fill="#ffffff" d="M 530.683594 147.035156 L 526.621094 147.035156 L 526.621094 138.910156 L 530.683594 138.910156 Z M 529.667969 151.101562 L 527.636719 151.101562 L 527.636719 149.070312 L 529.667969 149.070312 Z M 520.527344 147.035156 L 516.460938 147.035156 L 516.460938 138.910156 L 520.527344 138.910156 Z M 519.511719 151.101562 L 517.476562 151.101562 L 517.476562 149.070312 L 519.511719 149.070312 Z M 510.367188 151.101562 L 494.113281 151.101562 L 494.113281 147.542969 L 496.144531 147.542969 L 496.144531 148.050781 C 496.144531 148.613281 496.601562 149.070312 497.160156 149.070312 L 507.316406 149.070312 C 507.878906 149.070312 508.335938 148.613281 508.335938 148.050781 L 508.335938 147.542969 L 510.367188 147.542969 Z M 498.175781 146.527344 L 498.175781 145.003906 L 506.304688 145.003906 L 506.304688 147.035156 L 498.175781 147.035156 Z M 539.828125 151.101562 L 531.699219 151.101562 L 531.699219 149.070312 C 532.257812 149.070312 532.714844 148.613281 532.714844 148.050781 L 532.714844 137.894531 C 532.714844 137.332031 532.257812 136.875 531.699219 136.875 L 525.605469 136.875 C 525.042969 136.875 524.589844 137.332031 524.589844 137.894531 L 524.589844 148.050781 C 524.589844 148.613281 525.042969 149.070312 525.605469 149.070312 L 525.605469 151.101562 L 521.542969 151.101562 L 521.542969 149.070312 C 522.101562 149.070312 522.554688 148.613281 522.554688 148.050781 L 522.554688 137.894531 C 522.554688 137.332031 522.101562 136.875 521.542969 136.875 L 515.445312 136.875 C 514.886719 136.875 514.429688 137.332031 514.429688 137.894531 L 514.429688 148.050781 C 514.429688 148.613281 514.886719 149.070312 515.445312 149.070312 L 515.445312 151.101562 L 512.398438 151.101562 L 512.398438 146.527344 C 512.398438 145.96875 511.941406 145.511719 511.382812 145.511719 L 508.335938 145.511719 L 508.335938 143.988281 C 508.335938 143.425781 507.878906 142.972656 507.316406 142.972656 L 497.160156 142.972656 C 496.601562 142.972656 496.144531 143.425781 496.144531 143.988281 L 496.144531 145.511719 L 493.097656 145.511719 C 492.535156 145.511719 492.082031 145.96875 492.082031 146.527344 L 492.082031 151.101562 L 489.035156 151.101562 C 488.472656 151.101562 488.019531 151.554688 488.019531 152.113281 C 488.019531 152.675781 488.472656 153.132812 489.035156 153.132812 L 492.082031 153.132812 C 492.082031 153.695312 492.535156 154.148438 493.097656 154.148438 C 493.660156 154.148438 494.113281 153.695312 494.113281 153.132812 L 510.367188 153.132812 C 510.367188 153.695312 510.824219 154.148438 511.382812 154.148438 C 511.941406 154.148438 512.398438 153.695312 512.398438 153.132812 L 515.445312 153.132812 C 515.445312 153.695312 515.902344 154.148438 516.460938 154.148438 C 517.023438 154.148438 517.476562 153.695312 517.476562 153.132812 L 519.511719 153.132812 C 519.511719 153.695312 519.964844 154.148438 520.527344 154.148438 C 521.085938 154.148438 521.542969 153.695312 521.542969 153.132812 L 525.605469 153.132812 C 525.605469 153.695312 526.0625 154.148438 526.621094 154.148438 C 527.179688 154.148438 527.636719 153.695312 527.636719 153.132812 L 529.667969 153.132812 C 529.667969 153.695312 530.125 154.148438 530.683594 154.148438 C 531.246094 154.148438 531.699219 153.695312 531.699219 153.132812 L 539.828125 153.132812 C 540.386719 153.132812 540.84375 152.675781 540.84375 152.113281 C 540.84375 151.554688 540.386719 151.101562 539.828125 151.101562 " fill-opacity="1" fill-rule="nonzero"/></g><g clip-path="url(#fd87d69e68)"><path fill="#ffffff" d="M 511.527344 119.8125 L 512.964844 118.375 L 518.710938 124.121094 L 517.273438 125.558594 Z M 527.117188 108.238281 C 527.613281 107.835938 528.320312 107.871094 528.765625 108.320312 C 529.214844 108.765625 529.25 109.476562 528.839844 109.976562 L 519.34375 121.882812 L 515.203125 117.746094 Z M 497.160156 140.941406 C 497.421875 140.941406 497.679688 140.84375 497.878906 140.644531 L 501.253906 137.269531 L 504.542969 136.613281 C 504.742188 136.570312 504.921875 136.476562 505.0625 136.332031 L 515.117188 126.277344 L 516.554688 127.714844 C 516.753906 127.910156 517.015625 128.011719 517.273438 128.011719 C 517.535156 128.011719 517.792969 127.910156 517.992188 127.714844 L 520.867188 124.839844 C 521.054688 124.648438 521.164062 124.390625 521.164062 124.121094 C 521.164062 123.855469 521.054688 123.59375 520.867188 123.40625 L 520.789062 123.328125 L 530.421875 111.253906 C 531.261719 110.226562 531.378906 108.84375 530.804688 107.714844 L 531.078125 107.445312 C 531.75 106.773438 532.644531 106.402344 533.597656 106.402344 C 534.550781 106.402344 535.445312 106.773438 536.117188 107.445312 L 536.289062 107.613281 C 536.957031 108.289062 537.332031 109.183594 537.332031 110.136719 C 537.332031 111.085938 536.957031 111.980469 536.289062 112.652344 L 526.679688 122.261719 C 525.621094 123.320312 525.039062 124.722656 525.039062 126.21875 C 525.039062 127.714844 525.621094 129.117188 526.679688 130.175781 C 527.769531 131.265625 529.199219 131.808594 530.632812 131.808594 C 532.066406 131.808594 533.5 131.265625 534.59375 130.175781 L 540.546875 124.222656 C 540.941406 123.824219 540.941406 123.179688 540.546875 122.785156 C 540.148438 122.386719 539.503906 122.386719 539.109375 122.785156 L 533.15625 128.738281 C 531.765625 130.128906 529.503906 130.128906 528.117188 128.738281 C 527.441406 128.066406 527.070312 127.171875 527.070312 126.21875 C 527.070312 125.265625 527.441406 124.371094 528.117188 123.699219 L 537.722656 114.089844 C 538.78125 113.03125 539.363281 111.628906 539.363281 110.136719 C 539.363281 108.640625 538.78125 107.234375 537.726562 106.179688 L 537.554688 106.007812 C 536.496094 104.953125 535.09375 104.371094 533.597656 104.371094 C 532.101562 104.371094 530.699219 104.953125 529.640625 106.007812 L 529.371094 106.28125 C 528.246094 105.710938 526.859375 105.824219 525.84375 106.660156 L 513.757812 116.296875 L 513.683594 116.21875 C 513.300781 115.839844 512.628906 115.839844 512.246094 116.21875 L 509.371094 119.09375 C 508.976562 119.492188 508.976562 120.132812 509.371094 120.53125 L 510.808594 121.96875 L 509.222656 123.558594 C 508.824219 123.953125 508.824219 124.59375 509.222656 124.992188 C 509.617188 125.386719 510.261719 125.386719 510.65625 124.992188 L 512.246094 123.402344 L 513.683594 124.839844 L 503.84375 134.679688 L 502.046875 135.039062 L 502.40625 133.242188 L 507.785156 127.867188 C 508.179688 127.46875 508.179688 126.828125 507.785156 126.429688 C 507.386719 126.03125 506.746094 126.03125 506.347656 126.429688 L 500.753906 132.023438 C 500.609375 132.167969 500.515625 132.347656 500.476562 132.542969 L 499.816406 135.832031 L 496.441406 139.207031 C 496.046875 139.601562 496.046875 140.246094 496.441406 140.644531 C 496.640625 140.84375 496.902344 140.941406 497.160156 140.941406 " fill-opacity="1" fill-rule="nonzero"/></g><path fill="#ffffff" d="M 589.554688 219.9375 C 589.402344 220.054688 589.285156 220.203125 589.210938 220.363281 C 589.042969 220.726562 589.074219 221.167969 589.332031 221.511719 L 593.726562 227.363281 C 594.097656 227.859375 594.800781 227.957031 595.296875 227.585938 C 595.792969 227.214844 595.890625 226.511719 595.519531 226.015625 L 591.125 220.164062 C 590.753906 219.667969 590.050781 219.566406 589.554688 219.9375 " fill-opacity="1" fill-rule="nonzero"/><g clip-path="url(#f9fab10fc8)"><path fill="#ffffff" d="M 575.871094 259.289062 C 577.644531 259.289062 579.085938 260.730469 579.085938 262.503906 C 579.085938 264.28125 577.644531 265.722656 575.871094 265.722656 C 574.09375 265.722656 572.652344 264.28125 572.652344 262.503906 C 572.652344 260.730469 574.09375 259.289062 575.871094 259.289062 Z M 569.429688 190.84375 L 582.308594 190.84375 C 582.597656 190.84375 582.835938 191.078125 582.835938 191.371094 C 582.835938 191.664062 582.597656 191.898438 582.308594 191.898438 L 569.429688 191.898438 C 569.140625 191.898438 568.902344 191.664062 568.902344 191.371094 C 568.902344 191.078125 569.140625 190.84375 569.429688 190.84375 Z M 585.601562 190.378906 C 586.148438 190.378906 586.59375 190.824219 586.59375 191.371094 C 586.59375 191.921875 586.148438 192.363281 585.601562 192.363281 C 585.050781 192.363281 584.605469 191.921875 584.605469 191.371094 C 584.605469 190.824219 585.050781 190.378906 585.601562 190.378906 Z M 597.660156 195.605469 L 597.660156 192.535156 C 597.660156 189.285156 595.023438 186.648438 591.773438 186.648438 L 559.964844 186.648438 C 556.714844 186.648438 554.078125 189.285156 554.078125 192.535156 L 554.078125 261.796875 C 554.078125 265.046875 556.714844 267.683594 559.964844 267.683594 L 591.773438 267.683594 C 595.023438 267.683594 597.660156 265.046875 597.660156 261.796875 L 597.660156 246.078125 C 597.660156 242.371094 596.457031 238.761719 594.234375 235.796875 L 583.140625 220.988281 C 581.777344 219.171875 579.835938 217.894531 577.671875 217.390625 C 576.96875 217.226562 576.304688 216.933594 575.699219 216.523438 C 574.875 215.960938 574.210938 215.203125 573.761719 214.332031 L 574.207031 214.632812 C 576.5625 216.234375 579.796875 215.667969 581.414062 213.367188 C 582.238281 212.203125 582.539062 210.785156 582.265625 209.382812 C 581.996094 208.015625 581.164062 206.820312 580.007812 206.039062 L 579.582031 205.746094 C 580.523438 205.835938 581.433594 206.152344 582.25 206.683594 C 583.929688 207.78125 584.929688 209.648438 584.921875 211.675781 C 584.914062 213.683594 585.40625 215.640625 586.34375 217.347656 C 586.632812 217.871094 587.285156 218.101562 587.824219 217.84375 C 588.410156 217.558594 588.632812 216.847656 588.320312 216.285156 C 587.558594 214.910156 587.160156 213.320312 587.164062 211.6875 C 587.175781 208.894531 585.796875 206.320312 583.476562 204.804688 C 581.617188 203.589844 579.308594 203.1875 577.144531 203.699219 C 576.464844 203.859375 575.96875 204.457031 575.960938 205.175781 C 575.957031 205.703125 576.238281 206.1875 576.671875 206.484375 L 578.828125 207.949219 C 579.488281 208.398438 579.925781 209.074219 580.070312 209.855469 C 580.210938 210.636719 580.039062 211.425781 579.582031 212.078125 C 578.664062 213.378906 576.820312 213.695312 575.46875 212.777344 L 573.371094 211.351562 C 572.875 211.015625 572.222656 210.960938 571.699219 211.261719 C 571.417969 211.425781 571.203125 211.664062 571.074219 211.945312 C 570.953125 212.207031 570.90625 212.507812 570.949219 212.804688 C 571.277344 215.066406 572.550781 217.097656 574.4375 218.378906 C 575.269531 218.945312 576.1875 219.347656 577.160156 219.574219 C 578.8125 219.960938 580.296875 220.941406 581.34375 222.335938 L 592.492188 237.183594 C 594.410156 239.738281 595.445312 242.847656 595.445312 246.042969 L 595.445312 257.820312 L 556.292969 257.820312 L 556.292969 195.605469 L 597.660156 195.605469 " fill-opacity="1" fill-rule="nonzero"/></g><g fill="#043878" fill-opacity="1"><g transform="translate(90.501914, 482.020072)"><g><path d="M 47.328125 2.019531 C 71.28125 2.019531 86 -9.378906 86 -28.425781 C 86 -44.445312 75.46875 -53.96875 50.359375 -59.882812 C 34.917969 -63.492188 29.582031 -67.386719 29.582031 -73.589844 C 29.582031 -80.230469 35.496094 -84.269531 45.164062 -84.269531 C 55.699219 -84.269531 62.046875 -78.785156 62.046875 -69.695312 L 84.125 -69.695312 C 84.125 -90.042969 68.828125 -103.027344 44.875 -103.027344 C 21.644531 -103.027344 7.214844 -91.628906 7.214844 -73.160156 C 7.214844 -56.707031 18.324219 -46.898438 41.992188 -41.847656 C 56.277344 -38.816406 62.769531 -34.632812 62.769531 -27.5625 C 62.769531 -20.777344 56.707031 -16.882812 47.183594 -16.882812 C 36.074219 -16.882812 28.859375 -22.511719 28.859375 -32.179688 L 6.347656 -32.179688 C 6.347656 -11.253906 21.933594 2.019531 47.328125 2.019531 Z M 47.328125 2.019531 "/></g></g></g><g fill="#043878" fill-opacity="1"><g transform="translate(178.664524, 482.020072)"><g><path d="M 46.753906 2.019531 C 65.367188 2.019531 80.085938 -7.503906 86.722656 -23.519531 L 64.5 -23.519531 C 60.894531 -18.46875 54.398438 -15.585938 47.183594 -15.585938 C 37.230469 -15.585938 29.4375 -21.210938 27.417969 -31.601562 L 88.164062 -31.601562 C 89.464844 -59.304688 73.015625 -77.777344 47.039062 -77.777344 C 22.511719 -77.777344 5.628906 -61.46875 5.628906 -37.949219 C 5.628906 -14.285156 22.367188 2.019531 46.753906 2.019531 Z M 27.5625 -45.453125 C 30.015625 -54.6875 37.515625 -60.316406 47.183594 -60.316406 C 57.285156 -60.316406 64.5 -54.6875 66.953125 -45.453125 Z M 27.5625 -45.453125 "/></g></g></g><g fill="#043878" fill-opacity="1"><g transform="translate(267.981473, 482.020072)"><g><path d="M 10.964844 0 L 32.898438 0 L 32.898438 -33.476562 C 32.898438 -49.78125 40.546875 -55.84375 53.101562 -55.84375 L 61.46875 -55.84375 L 61.46875 -75.757812 L 53.246094 -75.757812 C 42.132812 -75.757812 35.0625 -72.726562 30.15625 -65.65625 L 27.273438 -75.757812 L 10.964844 -75.757812 Z M 10.964844 0 "/></g></g></g><g fill="#043878" fill-opacity="1"><g transform="translate(330.02708, 482.020072)"><g><path d="M 32.753906 0 L 54.6875 0 L 86.289062 -75.757812 L 62.480469 -75.757812 L 53.824219 -51.945312 L 43.867188 -26.261719 L 33.765625 -51.945312 L 25.253906 -75.757812 L 1.296875 -75.757812 Z M 32.753906 0 "/></g></g></g><g fill="#f9a928" fill-opacity="1"><g transform="translate(413.289682, 482.020072)"><g><path d="M 10.964844 0 L 32.898438 0 L 32.898438 -75.757812 L 10.964844 -75.757812 Z M 7.792969 -100.285156 C 7.792969 -92.207031 13.5625 -86.578125 21.933594 -86.578125 C 30.300781 -86.578125 36.074219 -92.207031 36.074219 -100.285156 C 36.074219 -108.367188 30.300781 -113.996094 21.933594 -113.996094 C 13.5625 -113.996094 7.792969 -108.367188 7.792969 -100.285156 Z M 7.792969 -100.285156 "/></g></g></g><g fill="#043878" fill-opacity="1"><g transform="translate(452.832882, 482.020072)"><g><path d="M 47.039062 2.019531 C 68.398438 2.019531 84.414062 -10.535156 88.453125 -30.445312 L 67.097656 -30.445312 C 64.066406 -22.222656 56.566406 -16.882812 47.328125 -16.882812 C 35.496094 -16.882812 27.273438 -25.539062 27.273438 -37.949219 C 27.273438 -50.359375 35.496094 -59.015625 47.328125 -59.015625 C 55.988281 -59.015625 63.058594 -54.398438 66.664062 -46.753906 L 87.734375 -46.753906 C 84.269531 -65.511719 68.109375 -77.777344 47.039062 -77.777344 C 22.800781 -77.777344 5.628906 -61.183594 5.628906 -37.949219 C 5.628906 -14.574219 22.65625 2.019531 47.039062 2.019531 Z M 47.039062 2.019531 "/></g></g></g><g fill="#043878" fill-opacity="1"><g transform="translate(542.294129, 482.020072)"><g><path d="M 46.753906 2.019531 C 65.367188 2.019531 80.085938 -7.503906 86.722656 -23.519531 L 64.5 -23.519531 C 60.894531 -18.46875 54.398438 -15.585938 47.183594 -15.585938 C 37.230469 -15.585938 29.4375 -21.210938 27.417969 -31.601562 L 88.164062 -31.601562 C 89.464844 -59.304688 73.015625 -77.777344 47.039062 -77.777344 C 22.511719 -77.777344 5.628906 -61.46875 5.628906 -37.949219 C 5.628906 -14.285156 22.367188 2.019531 46.753906 2.019531 Z M 27.5625 -45.453125 C 30.015625 -54.6875 37.515625 -60.316406 47.183594 -60.316406 C 57.285156 -60.316406 64.5 -54.6875 66.953125 -45.453125 Z M 27.5625 -45.453125 "/></g></g></g><g fill="#043878" fill-opacity="1"><g transform="translate(631.611078, 482.020072)"><g/></g></g><g fill="#043878" fill-opacity="1"><g transform="translate(661.190787, 482.020072)"><g><path d="M 56.851562 2.019531 C 79.507812 2.019531 95.523438 -14.429688 95.523438 -37.949219 C 95.523438 -61.183594 79.507812 -77.777344 56.851562 -77.777344 C 47.472656 -77.777344 39.25 -74.890625 32.898438 -69.839844 L 32.898438 -106.78125 L 10.964844 -106.78125 L 10.964844 0 L 27.273438 0 L 29.726562 -8.65625 C 36.507812 -1.875 45.886719 2.019531 56.851562 2.019531 Z M 32.035156 -37.949219 C 32.035156 -50.214844 40.691406 -59.015625 52.957031 -59.015625 C 65.367188 -59.015625 73.878906 -50.214844 73.878906 -37.949219 C 73.878906 -25.539062 65.367188 -16.882812 52.957031 -16.882812 C 40.691406 -16.882812 32.035156 -25.539062 32.035156 -37.949219 Z M 32.035156 -37.949219 "/></g></g></g><g fill="#043878" fill-opacity="1"><g transform="translate(758.01097, 482.020072)"><g><path d="M 48.195312 2.019531 C 73.304688 2.019531 90.617188 -14.285156 90.617188 -37.949219 C 90.617188 -61.46875 73.304688 -77.777344 48.195312 -77.777344 C 22.941406 -77.777344 5.628906 -61.46875 5.628906 -37.949219 C 5.628906 -14.285156 22.941406 2.019531 48.195312 2.019531 Z M 27.273438 -37.949219 C 27.273438 -50.359375 35.929688 -59.015625 48.195312 -59.015625 C 60.460938 -59.015625 68.972656 -50.359375 68.972656 -37.949219 C 68.972656 -25.539062 60.460938 -16.882812 48.195312 -16.882812 C 35.929688 -16.882812 27.273438 -25.539062 27.273438 -37.949219 Z M 27.273438 -37.949219 "/></g></g></g><g fill="#043878" fill-opacity="1"><g transform="translate(849.9252, 482.020072)"><g><path d="M 3.464844 0 L 28.714844 0 L 36.941406 -12.121094 L 44.300781 -22.941406 L 51.515625 -12.121094 L 59.738281 0 L 84.992188 0 L 58.152344 -38.527344 L 83.835938 -75.757812 L 59.015625 -75.757812 L 51.226562 -64.210938 L 44.15625 -53.390625 L 29.4375 -75.757812 L 4.617188 -75.757812 L 30.445312 -38.527344 Z M 3.464844 0 "/></g></g></g><g fill="#043878" fill-opacity="1"><g transform="translate(118.688003, 521.585615)"><g><path d="M 2.5625 0 L 7.410156 0 L 7.410156 -5.945312 L 10.917969 -5.945312 C 16.070312 -5.945312 19.394531 -8.964844 19.394531 -13.632812 C 19.394531 -18.328125 16.070312 -21.347656 10.917969 -21.347656 L 2.5625 -21.347656 Z M 7.378906 -10.125 L 7.378906 -17.109375 L 10.519531 -17.109375 C 13.050781 -17.109375 14.453125 -15.828125 14.453125 -13.601562 C 14.453125 -11.375 13.050781 -10.125 10.519531 -10.125 Z M 7.378906 -10.125 "/></g></g></g><g fill="#043878" fill-opacity="1"><g transform="translate(152.474281, 521.585615)"><g><path d="M 2.5625 0 L 16.925781 0 L 16.925781 -4.117188 L 7.378906 -4.117188 L 7.378906 -8.78125 L 15.765625 -8.78125 L 15.765625 -12.839844 L 7.378906 -12.839844 L 7.378906 -17.261719 L 16.589844 -17.261719 L 16.589844 -21.347656 L 2.5625 -21.347656 Z M 2.5625 0 "/></g></g></g><g fill="#043878" fill-opacity="1"><g transform="translate(184.461705, 521.585615)"><g><path d="M 2.5625 0 L 7.378906 0 L 7.378906 -12.867188 L 12.5625 -5.277344 L 15.917969 -5.277344 L 21.101562 -12.839844 L 21.101562 0 L 25.921875 0 L 25.921875 -21.347656 L 21.835938 -21.347656 L 14.273438 -10.277344 L 6.679688 -21.347656 L 2.5625 -21.347656 Z M 2.5625 0 "/></g></g></g><g fill="#043878" fill-opacity="1"><g transform="translate(226.44952, 521.585615)"><g><path d="M 12.6875 0.425781 C 19.363281 0.425781 24.089844 -4.148438 24.089844 -10.671875 C 24.089844 -17.199219 19.363281 -21.773438 12.6875 -21.773438 C 6.007812 -21.773438 1.3125 -17.199219 1.3125 -10.671875 C 1.3125 -4.148438 6.007812 0.425781 12.6875 0.425781 Z M 6.25 -10.671875 C 6.25 -14.515625 8.90625 -17.167969 12.6875 -17.167969 C 16.496094 -17.167969 19.121094 -14.515625 19.121094 -10.671875 C 19.121094 -6.832031 16.496094 -4.179688 12.6875 -4.179688 C 8.90625 -4.179688 6.25 -6.832031 6.25 -10.671875 Z M 6.25 -10.671875 "/></g></g></g><g fill="#043878" fill-opacity="1"><g transform="translate(265.35794, 521.585615)"><g><path d="M 15.765625 0 L 20.613281 0 L 20.613281 -21.347656 L 15.765625 -21.347656 L 15.765625 -13.144531 L 7.410156 -13.144531 L 7.410156 -21.347656 L 2.5625 -21.347656 L 2.5625 0 L 7.410156 0 L 7.410156 -8.601562 L 15.765625 -8.601562 Z M 15.765625 0 "/></g></g></g><g fill="#043878" fill-opacity="1"><g transform="translate(302.040666, 521.585615)"><g><path d="M 7.683594 0 L 12.535156 0 L 12.535156 -16.804688 L 19.304688 -16.804688 L 19.304688 -21.347656 L 0.914062 -21.347656 L 0.914062 -16.804688 L 7.683594 -16.804688 Z M 7.683594 0 "/></g></g></g><g fill="#043878" fill-opacity="1"><g transform="translate(335.765965, 521.585615)"><g/></g></g><g fill="#043878" fill-opacity="1"><g transform="translate(356.441962, 521.585615)"><g><path d="M 19 4.390625 L 23.753906 4.390625 L 23.753906 -4.605469 L 20.613281 -4.605469 L 20.613281 -21.347656 L 15.765625 -21.347656 L 15.765625 -4.542969 L 7.410156 -4.542969 L 7.410156 -21.347656 L 2.5625 -21.347656 L 2.5625 0 L 19 0 Z M 19 4.390625 "/></g></g></g><g fill="#043878" fill-opacity="1"><g transform="translate(394.496691, 521.585615)"><g><path d="M 2.5625 0 L 6.707031 0 L 16.070312 -13.144531 L 16.070312 0 L 20.917969 0 L 20.917969 -21.347656 L 16.742188 -21.347656 L 7.410156 -8.292969 L 7.410156 -21.347656 L 2.5625 -21.347656 Z M 2.5625 0 "/></g></g></g><g fill="#043878" fill-opacity="1"><g transform="translate(431.484322, 521.585615)"><g><path d="M 11.160156 1.554688 L 15.734375 1.554688 L 15.734375 -1.097656 C 21.710938 -1.28125 25.675781 -5.125 25.675781 -10.671875 C 25.675781 -16.222656 21.710938 -20.097656 15.734375 -20.277344 L 15.734375 -22.871094 L 11.160156 -22.871094 L 11.160156 -20.277344 C 5.183594 -20.097656 1.21875 -16.222656 1.21875 -10.671875 C 1.21875 -5.125 5.183594 -1.28125 11.160156 -1.097656 Z M 6.097656 -10.671875 C 6.097656 -13.632812 8.050781 -15.613281 11.222656 -15.796875 L 11.222656 -5.550781 C 8.050781 -5.734375 6.097656 -7.714844 6.097656 -10.671875 Z M 15.675781 -5.550781 L 15.675781 -15.796875 C 18.847656 -15.613281 20.828125 -13.632812 20.828125 -10.671875 C 20.828125 -7.714844 18.847656 -5.734375 15.675781 -5.550781 Z M 15.675781 -5.550781 "/></g></g></g><g fill="#043878" fill-opacity="1"><g transform="translate(471.886691, 521.585615)"><g><path d="M 2.5625 0 L 7.410156 0 L 7.410156 -5.945312 L 10.917969 -5.945312 C 16.070312 -5.945312 19.394531 -8.964844 19.394531 -13.632812 C 19.394531 -18.328125 16.070312 -21.347656 10.917969 -21.347656 L 2.5625 -21.347656 Z M 7.378906 -10.125 L 7.378906 -17.109375 L 10.519531 -17.109375 C 13.050781 -17.109375 14.453125 -15.828125 14.453125 -13.601562 C 14.453125 -11.375 13.050781 -10.125 10.519531 -10.125 Z M 7.378906 -10.125 "/></g></g></g><g fill="#043878" fill-opacity="1"><g transform="translate(505.672981, 521.585615)"><g><path d="M 12.6875 0.425781 C 19.363281 0.425781 24.089844 -4.148438 24.089844 -10.671875 C 24.089844 -17.199219 19.363281 -21.773438 12.6875 -21.773438 C 6.007812 -21.773438 1.3125 -17.199219 1.3125 -10.671875 C 1.3125 -4.148438 6.007812 0.425781 12.6875 0.425781 Z M 6.25 -10.671875 C 6.25 -14.515625 8.90625 -17.167969 12.6875 -17.167969 C 16.496094 -17.167969 19.121094 -14.515625 19.121094 -10.671875 C 19.121094 -6.832031 16.496094 -4.179688 12.6875 -4.179688 C 8.90625 -4.179688 6.25 -6.832031 6.25 -10.671875 Z M 6.25 -10.671875 "/></g></g></g><g fill="#043878" fill-opacity="1"><g transform="translate(544.581389, 521.585615)"><g><path d="M 2.5625 0 L 12.59375 0 C 16.925781 0 19.851562 -2.378906 19.851562 -5.976562 C 19.851562 -8.265625 18.664062 -10.09375 16.648438 -10.976562 C 18.265625 -11.921875 19.210938 -13.601562 19.210938 -15.613281 C 19.210938 -19.121094 16.4375 -21.347656 12.105469 -21.347656 L 2.5625 -21.347656 Z M 7.347656 -3.84375 L 7.347656 -8.964844 L 11.863281 -8.964844 C 13.785156 -8.964844 14.882812 -8.019531 14.882812 -6.402344 C 14.882812 -4.789062 13.785156 -3.84375 11.863281 -3.84375 Z M 7.347656 -12.65625 L 7.347656 -17.503906 L 11.375 -17.503906 C 13.234375 -17.503906 14.273438 -16.648438 14.273438 -15.09375 C 14.273438 -13.539062 13.234375 -12.65625 11.375 -12.65625 Z M 7.347656 -12.65625 "/></g></g></g><g fill="#043878" fill-opacity="1"><g transform="translate(579.099423, 521.585615)"><g><path d="M 12.6875 0.425781 C 19.363281 0.425781 24.089844 -4.148438 24.089844 -10.671875 C 24.089844 -17.199219 19.363281 -21.773438 12.6875 -21.773438 C 6.007812 -21.773438 1.3125 -17.199219 1.3125 -10.671875 C 1.3125 -4.148438 6.007812 0.425781 12.6875 0.425781 Z M 6.25 -10.671875 C 6.25 -14.515625 8.90625 -17.167969 12.6875 -17.167969 C 16.496094 -17.167969 19.121094 -14.515625 19.121094 -10.671875 C 19.121094 -6.832031 16.496094 -4.179688 12.6875 -4.179688 C 8.90625 -4.179688 6.25 -6.832031 6.25 -10.671875 Z M 6.25 -10.671875 "/></g></g></g><g fill="#043878" fill-opacity="1"><g transform="translate(618.007831, 521.585615)"><g><path d="M 2.5625 0 L 6.707031 0 L 16.070312 -13.144531 L 16.070312 0 L 20.917969 0 L 20.917969 -21.347656 L 16.742188 -21.347656 L 7.410156 -8.292969 L 7.410156 -21.347656 L 2.5625 -21.347656 Z M 7.226562 -27.292969 C 7.226562 -24.855469 8.933594 -23.238281 11.769531 -23.238281 C 14.730469 -23.238281 16.316406 -24.855469 16.316406 -27.292969 L 16.316406 -27.84375 L 13.296875 -27.84375 L 13.296875 -27.476562 C 13.296875 -26.5 12.746094 -25.953125 11.769531 -25.953125 C 10.796875 -25.953125 10.214844 -26.5 10.214844 -27.476562 L 10.214844 -27.84375 L 7.226562 -27.84375 Z M 7.226562 -27.292969 "/></g></g></g><g fill="#043878" fill-opacity="1"><g transform="translate(654.995438, 521.585615)"><g/></g></g><g fill="#043878" fill-opacity="1"><g transform="translate(675.671458, 521.585615)"><g><path d="M 7.683594 0 L 12.535156 0 L 12.535156 -16.804688 L 19.304688 -16.804688 L 19.304688 -21.347656 L 0.914062 -21.347656 L 0.914062 -16.804688 L 7.683594 -16.804688 Z M 7.683594 0 "/></g></g></g><g fill="#043878" fill-opacity="1"><g transform="translate(709.396758, 521.585615)"><g><path d="M 2.5625 0 L 16.925781 0 L 16.925781 -4.117188 L 7.378906 -4.117188 L 7.378906 -8.78125 L 15.765625 -8.78125 L 15.765625 -12.839844 L 7.378906 -12.839844 L 7.378906 -17.261719 L 16.589844 -17.261719 L 16.589844 -21.347656 L 2.5625 -21.347656 Z M 2.5625 0 "/></g></g></g><g fill="#043878" fill-opacity="1"><g transform="translate(741.384181, 521.585615)"><g><path d="M 0.824219 0 L 6.527344 0 L 9.453125 -4.511719 L 11.253906 -7.226562 L 13.019531 -4.511719 L 15.949219 0 L 21.652344 0 L 14.394531 -10.949219 L 21.285156 -21.347656 L 15.765625 -21.347656 L 11.222656 -14.425781 L 9.269531 -17.382812 L 6.707031 -21.347656 L 1.160156 -21.347656 L 8.082031 -10.917969 Z M 0.824219 0 "/></g></g></g><g fill="#043878" fill-opacity="1"><g transform="translate(777.365658, 521.585615)"><g><path d="M 15.765625 0 L 20.613281 0 L 20.613281 -21.347656 L 15.765625 -21.347656 L 15.765625 -13.144531 L 7.410156 -13.144531 L 7.410156 -21.347656 L 2.5625 -21.347656 L 2.5625 0 L 7.410156 0 L 7.410156 -8.601562 L 15.765625 -8.601562 Z M 15.765625 0 "/></g></g></g><g fill="#043878" fill-opacity="1"><g transform="translate(814.048407, 521.585615)"><g><path d="M 2.5625 0 L 6.707031 0 L 16.070312 -13.144531 L 16.070312 0 L 20.917969 0 L 20.917969 -21.347656 L 16.742188 -21.347656 L 7.410156 -8.292969 L 7.410156 -21.347656 L 2.5625 -21.347656 Z M 2.5625 0 "/></g></g></g><g fill="#043878" fill-opacity="1"><g transform="translate(851.036014, 521.585615)"><g><path d="M 2.5625 0 L 7.410156 0 L 7.410156 -8.628906 L 9.972656 -8.628906 C 10.367188 -8.628906 10.703125 -8.628906 11.070312 -8.660156 L 15.644531 0 L 21.285156 0 L 15.523438 -10.460938 C 16.375 -11.28125 17.015625 -12.351562 17.566406 -13.753906 L 20.523438 -21.347656 L 15.277344 -21.347656 L 13.265625 -15.796875 C 12.535156 -13.785156 11.648438 -13.144531 9.238281 -13.144531 L 7.410156 -13.144531 L 7.410156 -21.347656 L 2.5625 -21.347656 Z M 2.5625 0 "/></g></g></g><g fill="#043878" fill-opacity="1"><g transform="translate(886.712586, 521.585615)"><g><path d="M 2.5625 0 L 6.707031 0 L 16.070312 -13.144531 L 16.070312 0 L 20.917969 0 L 20.917969 -21.347656 L 16.742188 -21.347656 L 7.410156 -8.292969 L 7.410156 -21.347656 L 2.5625 -21.347656 Z M 2.5625 0 "/></g></g></g></svg>