<svg xmlns="http://www.w3.org/2000/svg" width="1366" viewBox="0 0 1024.5 606" height="768" version="1.0"><defs><clipPath id="a"><path d="M403 85.598h221.898V175H403zm0 0"/></clipPath><clipPath id="b"><path d="M513 130h111.898v166H513zm0 0"/></clipPath><clipPath id="c"><path d="M513 242h111.898v108H513zm0 0"/></clipPath><clipPath id="d"><path d="M416.367 245H463v4h-46.633zm0 0"/></clipPath><clipPath id="e"><path d="M451 220h45.578v9H451zm0 0"/></clipPath><clipPath id="f"><path d="M420 195.004h74V256h-74zm0 0"/></clipPath><clipPath id="g"><path d="M488.02 136.73h52.82v17.118h-52.82zm0 0"/></clipPath><clipPath id="h"><path d="M496 104.371h44.84V141H496zm0 0"/></clipPath><clipPath id="i"><path d="M554.078 186.621h43.477v80.961h-43.477zm0 0"/></clipPath></defs><g clip-path="url(#a)"><path fill="#f9a928" d="m513.887 85.578 110.836 44.625-110.836 44.621-110.836-44.62zm0 0" fill-rule="evenodd"/></g><g clip-path="url(#b)"><path fill="#f9a928" d="m624.723 130.2-102.614 53.019-8.222 112.176 110.836-44.551zm0 0" fill-rule="evenodd"/></g><path fill="#f9a928" d="m403.05 130.2 102.618 53.019 8.219 112.176-110.836-44.551zm0 0" fill-rule="evenodd"/><path fill="#f9a928" d="M403.05 250.844c-1.093 20.351 25.321 25.945 21.602 44.328-2.882 14.234-20.168 22.765-22.543 36.562-2.847 16.579 4.852 33.2 27.536 35.008 25.199 2.004 38.156-16.613 37.87-28.824-.406-17.402-6.714-25.074-7.824-32.25-2.82-18.164 11.649-25.766 23.657-22.55 9.129 2.445 1.922-26.68 1.922-26.68zm0 0" fill-rule="evenodd"/><g clip-path="url(#c)"><path fill="#f9a928" d="M513.887 295.395s30.773-6.09 33.968 9.187c3.196 15.277-4.816 21.445-1.53 34.356 1.687 6.652 12.19 11.726 20.007 10.07 10.887-2.305 17.207-10.305 15.723-19.852-3.063-19.695-18.008-29.828-7.067-37.265 10.946-7.442 16.078 13.152 34.14 8.316 13.173-3.535 15.599-22.344 15.599-49.363l-11.223-7.973zm0 0" fill-rule="evenodd"/></g><path fill="#fff" d="M457.8 216.914a1.962 1.962 0 1 1 3.925.026 1.962 1.962 0 0 1-3.924-.026zm4.329.024a2.368 2.368 0 1 0-4.733-.022 2.368 2.368 0 0 0 4.733.022m3.223 14.933a1.962 1.962 0 0 1 1.968-1.953 1.966 1.966 0 0 1 1.953 1.973 1.966 1.966 0 0 1-1.972 1.953 1.965 1.965 0 0 1-1.95-1.973zm4.328.024a2.368 2.368 0 1 0-4.732-.03 2.368 2.368 0 0 0 4.732.03m-19.032 9.253H425.34v-24.214a53.189 53.189 0 0 1-2.719-4.082v31.27h32.317a144.74 144.74 0 0 1-4.29-2.974"/><g clip-path="url(#d)"><path fill="#fff" d="M446.21 245.941a.712.712 0 0 1-.714-.71h-29.125a3.64 3.64 0 0 0 3.64 3.64h42.692a111.754 111.754 0 0 1-4.941-2.93H446.21"/></g><g clip-path="url(#e)"><path fill="#fff" d="M493.836 223.2a.34.34 0 0 1 .34.34v.315a.34.34 0 0 1-.34.344l-9.84-.008a.344.344 0 0 1-.344-.343v-.317a.346.346 0 0 1 .344-.34zm-.004 2.456c.188 0 .344.153.344.34l-.004.316a.34.34 0 0 1-.34.344l-9.84-.011a.34.34 0 0 1-.34-.34v-.317a.34.34 0 0 1 .34-.34zm-18.277-4.754c-.922 0-1.668.746-1.668 1.668l-.004 1.442-18.106-.016a1.43 1.43 0 0 1-.511-.094l-.442-.172-2.976.633v.992l2.976.641.438-.168c.164-.066.34-.098.515-.098l18.106.016v1.445a1.665 1.665 0 0 0 1.668 1.668l3.336.004c2.312-2.05 4.363.004 4.363.004l9.441.008c2.188.004 4.012-1.734 4.043-3.922a3.978 3.978 0 0 0-3.976-4.035l-9.5-.012s-2.055 2.055-4.363-.004h-3.34"/></g><path fill="#fff" d="M456.79 216.91a2.972 2.972 0 1 1 5.947.03 2.972 2.972 0 0 1-5.948-.03zm3.327 4.992.656-1.129 1.13.665c.23-.11.449-.235.656-.375l.003-1.31 1.31.009c.14-.207.269-.426.378-.653l-.648-1.132 1.136-.649a4.04 4.04 0 0 0 .016-.379c0-.125-.004-.254-.012-.379l-1.129-.656.66-1.129a5.179 5.179 0 0 0-.375-.656l-1.308-.004.008-1.309a4.852 4.852 0 0 0-.649-.379l-1.137.649-.644-1.137a6.142 6.142 0 0 0-.379-.015c-.129 0-.254.004-.379.011l-.66 1.13-1.129-.66a4.953 4.953 0 0 0-.652.374l-.004 1.309-1.309-.008a4.488 4.488 0 0 0-.383.648l.649 1.137-1.133.648c-.012.122-.016.25-.02.375 0 .13.004.254.012.38l1.133.66-.664 1.128c.11.227.234.446.375.653l1.309.004-.008 1.308c.207.145.426.274.652.383l1.133-.648.648 1.136c.125.008.25.012.38.016.124 0 .253-.004.378-.016m4.223 9.965a2.972 2.972 0 0 1 2.988-2.957 2.97 2.97 0 1 1-.031 5.942 2.97 2.97 0 0 1-2.957-2.985zm3.324 4.992.66-1.129 1.13.66c.226-.109.444-.234.651-.374l.004-1.309 1.309.012a4.75 4.75 0 0 0 .383-.653l-.649-1.136 1.137-.645c.008-.125.012-.25.016-.379 0-.129-.004-.254-.012-.379l-1.133-.656.664-1.129a4.92 4.92 0 0 0-.375-.656l-1.308-.004.007-1.309a4.92 4.92 0 0 0-.652-.382l-1.133.652-.648-1.137a4.04 4.04 0 0 0-.38-.015 4.092 4.092 0 0 0-.378.011l-.656 1.13-1.13-.66a5.26 5.26 0 0 0-.655.374l-.004 1.309-1.309-.012c-.14.207-.27.426-.379.652l.649 1.137-1.137.645c-.008.125-.016.25-.016.378 0 .13.004.254.012.38l1.129.656-.66 1.129c.11.23.234.449.375.656l1.308.004-.007 1.308c.203.145.421.27.648.383l1.137-.652.644 1.136c.13.012.254.016.38.016.128 0 .253-.004.378-.012m-8.906 4.637-.004.004.012-.012zm2.305-2.98-.004.007.003-.011zm23.984 9.214c1.656 0 2.887-.351 3.668-1.05.12-.442.18-.926.176-1.45h-13.868c3.938 1.61 7.395 2.5 10.024 2.5m-12.567-3.609h13.68v-14.5l-2.715-.004v11.531h-16.754a84.553 84.553 0 0 0 5.79 2.973"/><path fill="#fff" d="M454.387 204.469a1.085 1.085 0 0 1 0 2.172 1.086 1.086 0 0 1 0-2.172zm-24.168 3.191h53.226v12.496l2.715.004v-15.094c0-.843-.683-1.527-1.527-1.527h-55.969c.254 1.203.774 2.586 1.555 4.121"/><g clip-path="url(#f)"><path fill="#fff" d="M439.086 198.555c-5.094-1.489-8.902-1.368-10.524.718-3.94 5.07 6.543 19.813 23.415 32.926 16.87 13.113 33.746 19.633 37.687 14.563 1.617-2.082.797-5.805-1.902-10.375 5.144 7.297 7.101 13.468 4.601 16.687-4.851 6.238-24.578-.988-44.07-16.137-19.492-15.148-31.363-32.484-26.516-38.722 2.504-3.215 8.97-2.844 17.309.34"/></g><g clip-path="url(#g)"><path fill="#fff" d="M530.684 147.035h-4.063v-8.125h4.063zm-1.016 4.067h-2.031v-2.032h2.031zm-9.14-4.067h-4.067v-8.125h4.066zm-1.016 4.067h-2.035v-2.032h2.035zm-9.145 0h-16.254v-3.559h2.032v.508c0 .562.457 1.02 1.015 1.02h10.156a1.02 1.02 0 0 0 1.02-1.02v-.508h2.031zm-12.191-4.575v-1.523h8.129v2.031h-8.13zm41.652 4.575H531.7v-2.032a1.02 1.02 0 0 0 1.016-1.02v-10.155a1.02 1.02 0 0 0-1.016-1.02h-6.094c-.562 0-1.015.457-1.015 1.02v10.156c0 .562.453 1.02 1.015 1.02v2.03h-4.062v-2.03c.559 0 1.012-.458 1.012-1.02v-10.156c0-.563-.453-1.02-1.012-1.02h-6.098a1.02 1.02 0 0 0-1.015 1.02v10.156c0 .562.457 1.02 1.015 1.02v2.03h-3.047v-4.574c0-.558-.457-1.015-1.015-1.015h-3.047v-1.524c0-.562-.457-1.015-1.02-1.015H497.16c-.558 0-1.015.453-1.015 1.015v1.524h-3.047c-.563 0-1.016.457-1.016 1.015v4.575h-3.047c-.562 0-1.015.453-1.015 1.011 0 .563.453 1.02 1.015 1.02h3.047c0 .562.453 1.015 1.016 1.015.562 0 1.015-.453 1.015-1.015h16.254a1.016 1.016 0 0 0 2.031 0h3.047a1.016 1.016 0 0 0 2.032 0h2.035a1.016 1.016 0 0 0 2.031 0h4.062a1.016 1.016 0 0 0 2.032 0h2.031a1.016 1.016 0 0 0 2.031 0h8.13a1.015 1.015 0 1 0 0-2.031"/></g><g clip-path="url(#h)"><path fill="#fff" d="m511.527 119.813 1.438-1.438 5.746 5.746-1.438 1.438zm15.59-11.575a1.224 1.224 0 0 1 1.649.082c.449.446.484 1.157.074 1.657l-9.496 11.906-4.14-4.137zm-29.957 32.703c.262 0 .52-.097.719-.296l3.375-3.375 3.289-.657c.2-.043.379-.136.52-.281l10.054-10.055 1.438 1.438c.199.195.46.297.718.297.262 0 .52-.102.72-.297l2.874-2.875a1.03 1.03 0 0 0 .297-.719c0-.266-.11-.527-.297-.715l-.078-.078 9.633-12.074c.84-1.027.957-2.41.383-3.54l.273-.269a3.54 3.54 0 0 1 2.52-1.043 3.54 3.54 0 0 1 2.52 1.043l.171.168a3.572 3.572 0 0 1 1.043 2.524c0 .949-.375 1.843-1.043 2.515l-9.61 9.61a5.555 5.555 0 0 0-1.64 3.957c0 1.496.582 2.898 1.64 3.957a5.568 5.568 0 0 0 3.954 1.633 5.592 5.592 0 0 0 3.96-1.633l5.954-5.953a1.02 1.02 0 0 0 0-1.438 1.014 1.014 0 0 0-1.438 0l-5.953 5.953a3.565 3.565 0 0 1-5.039 0 3.527 3.527 0 0 1-1.047-2.52c0-.952.371-1.847 1.047-2.519l9.606-9.61a5.552 5.552 0 0 0 1.64-3.952 5.56 5.56 0 0 0-1.636-3.957l-.172-.172a5.567 5.567 0 0 0-3.957-1.637 5.567 5.567 0 0 0-3.957 1.637l-.27.273a3.24 3.24 0 0 0-3.527.38l-12.086 9.636-.074-.078a1.051 1.051 0 0 0-1.438 0l-2.875 2.875a1.02 1.02 0 0 0 0 1.437l1.438 1.438-1.586 1.59a1.01 1.01 0 0 0 0 1.433 1.015 1.015 0 0 0 1.433 0l1.59-1.59 1.438 1.438-9.84 9.84-1.797.36.36-1.798 5.378-5.375a1.02 1.02 0 0 0 0-1.437 1.014 1.014 0 0 0-1.437 0l-5.594 5.593a1.01 1.01 0 0 0-.277.52l-.66 3.289-3.376 3.375a1.014 1.014 0 0 0 .719 1.734"/></g><path fill="#fff" d="M589.555 219.938a1.124 1.124 0 0 0-.223 1.574l4.395 5.851a1.121 1.121 0 1 0 1.793-1.347l-4.395-5.852a1.122 1.122 0 0 0-1.57-.226"/><g clip-path="url(#i)"><path fill="#fff" d="M575.871 259.29a3.218 3.218 0 0 1 0 6.433 3.22 3.22 0 0 1-3.219-3.22 3.218 3.218 0 0 1 3.22-3.214zm-6.441-68.446h12.879a.528.528 0 0 1 0 1.054h-12.88a.528.528 0 0 1 0-1.054zm16.172-.465a.991.991 0 1 1 0 1.984.992.992 0 1 1 0-1.984zm12.058 5.226v-3.07a5.888 5.888 0 0 0-5.887-5.887h-31.808a5.888 5.888 0 0 0-5.887 5.887v69.262a5.888 5.888 0 0 0 5.887 5.887h31.808a5.888 5.888 0 0 0 5.887-5.887v-15.719c0-3.707-1.203-7.316-3.426-10.281l-11.093-14.809c-1.364-1.816-3.305-3.093-5.47-3.597a5.9 5.9 0 0 1-1.972-.868 5.967 5.967 0 0 1-1.937-2.191l.445.3c2.356 1.602 5.59 1.036 7.207-1.265a5.137 5.137 0 0 0 .852-3.984c-.27-1.367-1.102-2.563-2.258-3.344l-.426-.293a5.907 5.907 0 0 1 5.34 5.93 11.696 11.696 0 0 0 1.422 5.672c.289.523.941.754 1.48.496.586-.285.809-.996.496-1.559a9.459 9.459 0 0 1-1.156-4.597 8.142 8.142 0 0 0-3.687-6.883 8.184 8.184 0 0 0-6.332-1.106 1.53 1.53 0 0 0-1.184 1.477c-.004.527.277 1.012.71 1.308l2.157 1.465a2.929 2.929 0 0 1 1.242 1.906c.14.782-.03 1.57-.488 2.223-.918 1.3-2.762 1.617-4.113.7l-2.098-1.426c-.496-.336-1.148-.391-1.672-.09a1.529 1.529 0 0 0-.75 1.543 8.173 8.173 0 0 0 3.489 5.574c.832.566 1.75.969 2.722 1.195 1.653.387 3.137 1.367 4.184 2.762l11.148 14.848a14.755 14.755 0 0 1 2.953 8.859v11.777h-39.152v-62.215h41.367"/></g><path d="M137.83 484.04c23.953 0 38.672-11.399 38.672-30.446 0-16.02-10.531-25.543-35.64-31.457-15.442-3.61-20.778-7.504-20.778-13.707 0-6.64 5.914-10.68 15.582-10.68 10.535 0 16.883 5.485 16.883 14.575h22.078c0-20.348-15.297-33.332-39.25-33.332-23.23 0-37.66 11.398-37.66 29.867 0 16.453 11.11 26.262 34.777 31.312 14.285 3.032 20.777 7.215 20.777 14.286 0 6.785-6.062 10.68-15.585 10.68-11.11 0-18.325-5.63-18.325-15.298H96.85c0 20.926 15.586 34.2 40.98 34.2zm87.588 0c18.614 0 33.332-9.524 39.97-25.54h-22.223c-3.606 5.051-10.102 7.934-17.317 7.934-9.953 0-17.746-5.625-19.766-16.015h60.747c1.3-27.704-15.149-46.176-41.125-46.176-24.528 0-41.41 16.308-41.41 39.828 0 23.664 16.738 39.969 41.124 39.969zm-19.191-47.473c2.453-9.234 9.953-14.863 19.621-14.863 10.102 0 17.317 5.629 19.77 14.863zm72.719 45.453h21.934v-33.476c0-16.305 7.648-22.368 20.203-22.368h8.367v-19.914h-8.222c-11.114 0-18.184 3.032-23.09 10.102l-2.883-10.102h-16.309zm83.835 0h21.934l31.601-75.758h-23.808l-8.657 23.813-9.957 25.683-10.101-25.683-8.512-23.813h-23.957zm0 0" fill="#043878"/><path d="M424.255 482.02h21.933v-75.758h-21.933zm-3.172-100.285c0 8.078 5.77 13.707 14.14 13.707 8.367 0 14.14-5.629 14.14-13.707 0-8.082-5.773-13.711-14.14-13.711-8.37 0-14.14 5.629-14.14 13.71zm0 0" fill="#f9a928"/><path d="M499.872 484.04c21.36 0 37.375-12.555 41.414-32.465h-21.355c-3.032 8.222-10.532 13.562-19.77 13.562-11.832 0-20.055-8.656-20.055-21.066 0-12.41 8.223-21.067 20.055-21.067 8.66 0 15.73 4.618 19.336 12.262h21.07c-3.465-18.758-19.625-31.023-40.695-31.023-24.238 0-41.41 16.593-41.41 39.828 0 23.375 17.027 39.969 41.41 39.969zm89.176 0c18.613 0 33.332-9.524 39.969-25.54h-22.223c-3.605 5.051-10.101 7.934-17.316 7.934-9.953 0-17.746-5.625-19.766-16.015h60.746c1.301-27.704-15.148-46.176-41.125-46.176-24.527 0-41.41 16.308-41.41 39.828 0 23.664 16.738 39.969 41.125 39.969zm-19.191-47.473c2.453-9.234 9.953-14.863 19.62-14.863 10.102 0 17.317 5.629 19.77 14.863zm148.185 47.473c22.657 0 38.672-16.45 38.672-39.97 0-23.234-16.015-39.827-38.672-39.827-9.379 0-17.601 2.886-23.953 7.937v-36.94h-21.933v106.78h16.308l2.453-8.656c6.782 6.781 16.16 10.676 27.125 10.676zm-24.816-39.97c0-12.265 8.656-21.066 20.922-21.066 12.41 0 20.922 8.801 20.922 21.067 0 12.41-8.512 21.066-20.922 21.066-12.266 0-20.922-8.656-20.922-21.066zm112.98 39.97c25.11 0 42.422-16.305 42.422-39.97 0-23.519-17.312-39.827-42.422-39.827-25.254 0-42.566 16.308-42.566 39.828 0 23.664 17.312 39.969 42.566 39.969zm-20.922-39.97c0-12.41 8.657-21.066 20.922-21.066 12.266 0 20.778 8.657 20.778 21.067s-8.512 21.066-20.778 21.066c-12.265 0-20.922-8.656-20.922-21.066zm68.106 37.95h25.25l8.227-12.121 7.359-10.82 7.215 10.82 8.222 12.121h25.254l-26.84-38.527 25.684-37.23h-24.82l-7.79 11.546-7.07 10.82-14.718-22.367h-24.82l25.828 37.23zm-732.14 39.566h4.848v-5.946h3.508c5.152 0 8.477-3.02 8.477-7.687 0-4.696-3.325-7.715-8.477-7.715h-8.355zm4.817-10.125v-6.985h3.14c2.532 0 3.934 1.281 3.934 3.508 0 2.227-1.402 3.477-3.933 3.477zm28.97 10.125H169.4v-4.118h-9.547v-4.664h8.387v-4.058h-8.387v-4.422h9.211v-4.086h-14.027zm31.987 0h4.817v-12.868l5.183 7.59h3.356l5.183-7.562v12.84h4.82v-21.348h-4.085l-7.563 11.07-7.594-11.07h-4.117zm52.113.425c6.676 0 11.402-4.574 11.402-11.097 0-6.528-4.726-11.102-11.402-11.102-6.68 0-11.375 4.574-11.375 11.102 0 6.523 4.695 11.097 11.375 11.097zm-6.437-11.097c0-3.844 2.656-6.496 6.437-6.496 3.809 0 6.434 2.652 6.434 6.496 0 3.84-2.625 6.492-6.434 6.492-3.781 0-6.437-2.652-6.437-6.492zm48.424 10.672h4.847v-21.348h-4.847v8.203h-8.356v-8.203h-4.848v21.348h4.848v-8.602h8.356zm28.6 0h4.852V504.78h6.77v-4.543h-18.391v4.543h6.77zm65.718 4.39h4.754v-8.996h-3.14v-16.742h-4.848v16.805h-8.356v-16.805h-4.848v21.348h16.438zm21.618-4.39h4.144l9.363-13.145v13.145h4.848v-21.348h-4.176l-9.332 13.055v-13.055h-4.848zm45.584 1.554h4.575v-2.652c5.976-.184 9.941-4.027 9.941-9.574 0-5.551-3.965-9.426-9.941-9.606v-2.593h-4.575v2.593c-5.976.18-9.94 4.055-9.94 9.606 0 5.547 3.964 9.39 9.94 9.574zm-5.062-12.226c0-2.961 1.953-4.942 5.125-5.125v10.246c-3.172-.184-5.125-2.164-5.125-5.121zm9.578 5.12V505.79c3.172.183 5.152 2.164 5.152 5.125 0 2.957-1.98 4.937-5.152 5.12zm27.29 5.552h4.847v-5.946h3.508c5.152 0 8.476-3.02 8.476-7.687 0-4.696-3.324-7.715-8.476-7.715h-8.356zm4.816-10.125v-6.985h3.14c2.531 0 3.934 1.281 3.934 3.508 0 2.227-1.403 3.477-3.934 3.477zm39.094 10.55c6.676 0 11.403-4.574 11.403-11.097 0-6.528-4.727-11.102-11.403-11.102-6.68 0-11.375 4.574-11.375 11.102 0 6.523 4.696 11.097 11.375 11.097zm-6.437-11.097c0-3.844 2.656-6.496 6.437-6.496 3.81 0 6.434 2.652 6.434 6.496 0 3.84-2.625 6.492-6.434 6.492-3.78 0-6.437-2.652-6.437-6.492zm35.221 10.672h10.031c4.332 0 7.258-2.38 7.258-5.977 0-2.289-1.188-4.117-3.203-5 1.617-.945 2.562-2.625 2.562-4.637 0-3.507-2.773-5.734-7.105-5.734h-9.543zm4.785-3.844v-5.121h4.516c1.922 0 3.02.945 3.02 2.562 0 1.614-1.098 2.559-3.02 2.559zm0-8.813v-4.847h4.027c1.86 0 2.899.855 2.899 2.41 0 1.555-1.04 2.437-2.899 2.437zm39.858 13.082c6.676 0 11.402-4.574 11.402-11.097 0-6.528-4.726-11.102-11.402-11.102-6.68 0-11.375 4.574-11.375 11.102 0 6.523 4.695 11.097 11.375 11.097zm-6.438-11.097c0-3.844 2.657-6.496 6.438-6.496 3.809 0 6.434 2.652 6.434 6.496 0 3.84-2.625 6.492-6.434 6.492-3.781 0-6.438-2.652-6.438-6.492zm35.221 10.672h4.145l9.363-13.145v13.145h4.848v-21.348h-4.176l-9.332 13.055v-13.055h-4.848zm4.664-27.293c0 2.437 1.707 4.054 4.543 4.054 2.961 0 4.547-1.617 4.547-4.054v-.551h-3.02v.367c0 .977-.55 1.523-1.527 1.523-.972 0-1.554-.546-1.554-1.523v-.367h-2.989zm58.121 27.293h4.852V504.78h6.77v-4.543h-18.391v4.543h6.77zm28.605 0h14.363v-4.118h-9.547v-4.664h8.386v-4.058h-8.386v-4.422h9.21v-4.086H711.96zm30.248 0h5.704l2.925-4.512 1.801-2.715 1.766 2.715 2.93 4.512h5.703l-7.258-10.95 6.89-10.398h-5.52l-4.542 6.922-1.953-2.957-2.563-3.965h-5.547l6.922 10.43zm50.923 0h4.848v-21.348h-4.848v8.203h-8.355v-8.203h-4.848v21.348h4.848v-8.602h8.355zm23.479 0h4.145l9.364-13.145v13.145h4.847v-21.348h-4.175l-9.332 13.055v-13.055h-4.848zm36.989 0h4.847v-8.63h2.563c.394 0 .73 0 1.097-.03l4.575 8.66h5.64l-5.762-10.461c.852-.82 1.493-1.89 2.043-3.293l2.957-7.594h-5.246l-2.011 5.55c-.73 2.012-1.618 2.653-4.028 2.653h-1.828v-8.203H853.6zm35.676 0h4.145l9.363-13.145v13.145h4.848v-21.348h-4.176l-9.332 13.055v-13.055h-4.848zm0 0" fill="#043878"/></svg>