<svg xmlns="http://www.w3.org/2000/svg" width="600" viewBox="0 0 450 150" height="200" version="1.0"><defs><clipPath id="a"><path d="M0 17.906h447v113.25H0zm0 0"/></clipPath></defs><g clip-path="url(#a)"><path fill="#f9a92c" d="M57.246 21.95c-29.02 0-52.629 23.609-52.629 52.624 0 29.02 23.61 52.63 52.63 52.63h332.132c29.02 0 52.629-23.61 52.629-52.63 0-29.015-23.61-52.625-52.63-52.625zM389.38 131.245H57.246c-31.25 0-56.672-25.422-56.672-56.672 0-31.246 25.422-56.668 56.672-56.668H389.38c31.25 0 56.672 25.422 56.672 56.668 0 31.25-25.422 56.672-56.672 56.672"/></g><path fill="#f9a92c" d="M388.445 118.813H58.18c-24.43 0-44.235-19.805-44.235-44.239 0-24.43 19.805-44.234 44.235-44.234h330.265c24.434 0 44.239 19.805 44.239 44.234 0 24.434-19.805 44.239-44.239 44.239"/><path fill="#1f4482" d="M424.625 74.574c0 20.192-16.363 36.559-36.555 36.559-20.187 0-36.554-16.367-36.554-36.559 0-20.187 16.367-36.554 36.554-36.554 20.192 0 36.555 16.367 36.555 36.554"/><path fill="#f9a92c" d="M379 89.727a1.685 1.685 0 0 1-1.36-.684 1.695 1.695 0 0 1 .352-2.367l16.309-12.102-16.309-12.101a1.694 1.694 0 0 1-.351-2.368 1.699 1.699 0 0 1 2.367-.351l18.144 13.465c.43.316.684.82.684 1.355 0 .54-.254 1.043-.684 1.36l-18.144 13.46a1.675 1.675 0 0 1-1.008.333M66.766 77.684h8.507l-4.293-11.75zm11.418 7.902-1.356-3.574H65.254l-1.36 3.652c-.53 1.426-.984 2.387-1.359 2.883-.375.5-.992.75-1.844.75-.726 0-1.367-.266-1.925-.797-.555-.531-.832-1.133-.832-1.805 0-.39.062-.793.191-1.207.129-.414.344-.988.64-1.726l7.286-18.489c.207-.53.453-1.168.746-1.91.293-.746.601-1.363.933-1.855.329-.492.762-.89 1.301-1.196.535-.304 1.2-.457 1.989-.457.804 0 1.472.153 2.011.458.535.304.969.695 1.301 1.175.328.48.61.992.836 1.543.223.551.512 1.285.863 2.203l7.438 18.371c.582 1.399.87 2.415.87 3.051 0 .66-.273 1.262-.823 1.813-.551.55-1.215.828-1.989.828-.453 0-.843-.082-1.168-.246a2.306 2.306 0 0 1-.812-.66c-.223-.278-.457-.704-.711-1.282a73.75 73.75 0 0 1-.652-1.523M102.203 64.672H98.32v8.7h3.883c1.36 0 2.492-.142 3.406-.427.914-.285 1.61-.75 2.09-1.398.477-.649.719-1.496.719-2.543 0-1.258-.371-2.281-1.11-3.07-.828-.84-2.53-1.262-5.105-1.262zm1.399 13.05H98.32v8.06c0 1.152-.273 2.023-.816 2.62-.543.594-1.23.895-2.059.895-.867 0-1.566-.297-2.097-.887-.532-.586-.797-1.453-.797-2.59V63.875c0-1.266.293-2.172.875-2.719.582-.543 1.508-.812 2.777-.812h7.399c2.187 0 3.87.168 5.046.504 1.165.324 2.172.859 3.02 1.613a7.28 7.28 0 0 1 1.934 2.754c.437 1.09.66 2.312.66 3.672 0 2.898-.895 5.097-2.68 6.593-1.789 1.493-4.445 2.243-7.98 2.243M132.703 64.672h-3.883v8.7h3.883c1.36 0 2.496-.142 3.41-.427.914-.285 1.61-.75 2.086-1.398.48-.649.719-1.496.719-2.543 0-1.258-.367-2.281-1.106-3.07-.828-.84-2.53-1.262-5.109-1.262zm1.399 13.05h-5.282v8.06c0 1.152-.27 2.023-.816 2.62-.543.594-1.23.895-2.055.895-.87 0-1.57-.297-2.097-.887-.532-.586-.797-1.453-.797-2.59V63.875c0-1.266.289-2.172.87-2.719.587-.543 1.513-.812 2.778-.812h7.399c2.187 0 3.87.168 5.05.504 1.164.324 2.172.859 3.02 1.613a7.228 7.228 0 0 1 1.93 2.754c.441 1.09.66 2.312.66 3.672 0 2.898-.89 5.097-2.68 6.593-1.785 1.493-4.445 2.243-7.98 2.243M159.207 63.352V84.07h11.691c.93 0 1.645.227 2.145.68.496.453.746 1.023.746 1.71 0 .7-.246 1.267-.738 1.7-.492.434-1.211.649-2.153.649h-13.925c-1.254 0-2.157-.278-2.707-.836-.551-.555-.825-1.453-.825-2.7V63.352c0-1.164.262-2.04.786-2.622.523-.582 1.214-.875 2.066-.875.867 0 1.57.29 2.11.868.535.574.804 1.453.804 2.629M182.895 85.781V76.75l-6.954-10.777c-.609-.97-1.039-1.727-1.289-2.27-.254-.547-.379-1.016-.379-1.418 0-.66.254-1.23.766-1.71.512-.477 1.14-.72 1.895-.72.789 0 1.386.227 1.793.672.41.446 1.02 1.336 1.835 2.668l5.32 8.64 5.38-8.64c.324-.527.593-.976.816-1.34.219-.359.461-.699.727-1.02.265-.315.562-.558.886-.726.32-.168.715-.254 1.184-.254.723 0 1.328.239 1.816.711.485.473.727 1.02.727 1.641 0 .504-.125 1.008-.367 1.516-.246.504-.668 1.203-1.266 2.093L188.66 76.75v9.031c0 1.176-.27 2.059-.816 2.64-.543.583-1.235.876-2.078.876-.852 0-1.547-.29-2.078-.867-.532-.575-.793-1.457-.793-2.649M226.809 63.313l11.09 16.777V63.156c0-1.097.234-1.922.706-2.472.473-.551 1.11-.829 1.915-.829.828 0 1.484.278 1.96.829.48.55.72 1.375.72 2.472v22.39c0 2.5-1.036 3.75-3.11 3.75a4.11 4.11 0 0 1-1.395-.226 3.548 3.548 0 0 1-1.168-.707 6.797 6.797 0 0 1-1.007-1.136 86.016 86.016 0 0 1-.934-1.332L224.77 69.313v16.68c0 1.089-.25 1.91-.758 2.468-.504.555-1.149.836-1.942.836-.812 0-1.468-.281-1.96-.848-.493-.562-.739-1.379-.739-2.457v-21.96c0-.93.106-1.665.313-2.192a3.108 3.108 0 0 1 1.222-1.43 3.344 3.344 0 0 1 1.844-.555c.52 0 .96.086 1.332.254.367.168.691.395.969.68.281.285.566.652.855 1.106.293.453.594.925.903 1.417M274.207 74.5c0-2.086-.336-3.89-1.012-5.418-.672-1.527-1.632-2.684-2.882-3.469-1.25-.781-2.684-1.172-4.301-1.172-1.153 0-2.219.215-3.196.649a7.043 7.043 0 0 0-2.523 1.894c-.707.829-1.262 1.887-1.672 3.176-.406 1.285-.61 2.735-.61 4.34 0 1.617.204 3.078.61 4.387.41 1.308.984 2.39 1.73 3.254.743.859 1.598 1.504 2.563 1.93.965.429 2.024.64 3.176.64 1.476 0 2.832-.367 4.066-1.106 1.239-.738 2.223-1.875 2.953-3.418.73-1.539 1.098-3.437 1.098-5.687zm-8.195-14.645c2.953 0 5.484.602 7.601 1.797 2.117 1.2 3.719 2.903 4.809 5.11 1.086 2.207 1.629 4.797 1.629 7.777 0 2.2-.297 4.2-.89 6-.599 1.797-1.493 3.36-2.684 4.68-1.192 1.32-2.653 2.328-4.387 3.027-1.735.7-3.723 1.05-5.961 1.05-2.227 0-4.223-.359-5.98-1.077-1.762-.719-3.231-1.735-4.41-3.04-1.177-1.308-2.067-2.882-2.669-4.718-.601-1.84-.902-3.828-.902-5.961 0-2.188.312-4.195.941-6.02.625-1.828 1.536-3.378 2.727-4.66 1.191-1.285 2.64-2.265 4.351-2.945 1.708-.68 3.649-1.02 5.825-1.02M309.602 84.324 305 67.254l-4.66 17.07c-.363 1.293-.652 2.223-.863 2.785-.215.567-.586 1.07-1.118 1.516-.53.445-1.238.672-2.117.672-.71 0-1.3-.137-1.758-.399a3.038 3.038 0 0 1-1.117-1.128c-.285-.485-.515-1.06-.699-1.727a93.21 93.21 0 0 1-.484-1.856l-4.739-19.164c-.285-1.113-.425-1.96-.425-2.543 0-.738.257-1.359.777-1.867.515-.504 1.156-.758 1.922-.758 1.047 0 1.754.34 2.113 1.012.363.672.68 1.649.953 2.934l3.73 16.62 4.173-15.554c.312-1.191.59-2.097.835-2.719a3.946 3.946 0 0 1 1.204-1.613c.558-.453 1.312-.68 2.273-.68.969 0 1.723.239 2.262.711.539.473.91.989 1.117 1.543.207.559.484 1.477.836 2.758l4.215 15.555 3.726-16.621c.18-.867.352-1.547.512-2.04.164-.491.441-.933.836-1.32.394-.39.969-.586 1.719-.586.75 0 1.39.25 1.914.75.523.497.785 1.122.785 1.875 0 .528-.14 1.375-.426 2.543l-4.738 19.165c-.324 1.292-.594 2.242-.805 2.843a3.815 3.815 0 0 1-1.09 1.586c-.511.453-1.23.676-2.164.676-.879 0-1.586-.219-2.117-.66-.531-.438-.898-.934-1.105-1.485-.207-.55-.5-1.492-.875-2.824"/></svg>