<svg xmlns="http://www.w3.org/2000/svg" width="200" viewBox="0 0 150 150" height="200" version="1.0"><defs><clipPath id="a"><path d="M143 94h5.457v6H143zm0 0"/></clipPath><clipPath id="b"><path d="M2.957 35H103v86.957H2.957zm0 0"/></clipPath><clipPath id="c"><path d="M89 98h59.457v23.957H89zm0 0"/></clipPath><clipPath id="d"><path d="M89 13.207h59.457V91H89zm0 0"/></clipPath><clipPath id="e"><path d="M2.957 13.207H63V69H2.957zm0 0"/></clipPath></defs><path fill="#f9a92c" d="M24.535 108.598c-.3 0-.59.058-.87.175a2.17 2.17 0 0 0-.735.493 2.17 2.17 0 0 0-.492.734 2.24 2.24 0 0 0 0 1.738c.113.282.277.524.492.739.21.214.457.378.734.492.281.117.57.172.871.172h15.899c.3 0 .59-.055.867-.172.281-.114.527-.278.738-.492.215-.215.379-.457.492-.739.117-.277.172-.566.172-.867 0-.3-.055-.59-.172-.871a2.17 2.17 0 0 0-.492-.734 2.148 2.148 0 0 0-.738-.493 2.206 2.206 0 0 0-.867-.175zM62.012 97.242c0 .301-.059.594-.176.871a2.17 2.17 0 0 1-.492.735 2.17 2.17 0 0 1-.735.492 2.24 2.24 0 0 1-1.738 0 2.186 2.186 0 0 1-.738-.492 2.228 2.228 0 0 1-.492-.735 2.221 2.221 0 0 1-.172-.87c0-.302.054-.59.172-.868.113-.281.28-.523.492-.738a2.274 2.274 0 0 1 3.879 1.605zM108.57 110.871a2.274 2.274 0 0 0 1.403 2.098c.277.117.566.172.87.172h15.9c.3 0 .589-.055.866-.172.278-.114.524-.278.739-.492a2.274 2.274 0 0 0-1.605-3.879h-15.9c-.304 0-.593.058-.87.175a2.224 2.224 0 0 0-.739.493 2.29 2.29 0 0 0-.492.734c-.113.281-.172.57-.172.871zm0 0"/><g clip-path="url(#a)"><path fill="#f9a92c" d="M148.316 97.242c0 .301-.058.594-.171.871a2.29 2.29 0 0 1-.493.735 2.186 2.186 0 0 1-.738.492 2.24 2.24 0 0 1-1.738 0 2.17 2.17 0 0 1-.735-.492 2.17 2.17 0 0 1-.492-.735 2.225 2.225 0 0 1 0-1.738c.113-.281.278-.523.492-.738.211-.211.457-.375.735-.492a2.274 2.274 0 0 1 2.969 1.23c.113.277.171.566.171.867zm0 0"/></g><g clip-path="url(#b)"><path fill="#f9a92c" d="M59.738 104.059c-.3 0-.59.054-.867.171a2.186 2.186 0 0 0-.738.493c-.211.21-.38.457-.492.734-.118.281-.172.57-.172.871v4.133c0 .473-.047.945-.14 1.41-.09.465-.227.914-.411 1.352a7.23 7.23 0 0 1-.664 1.25c-.266.39-.563.757-.899 1.093a7.53 7.53 0 0 1-1.09.899 7.527 7.527 0 0 1-1.25.668c-.437.18-.886.316-1.35.41-.466.094-.935.14-1.407.14H14.71c-.473 0-.941-.046-1.406-.14a7.43 7.43 0 0 1-1.356-.41 7.49 7.49 0 0 1-1.246-.668 7.271 7.271 0 0 1-1.988-1.992 7.23 7.23 0 0 1-.664-1.25 6.828 6.828 0 0 1-.41-1.352 7.135 7.135 0 0 1-.141-1.41V42.074l8.777 3.645 2.703 2.183.91 2.575c.032.07.063.14.102.207l5.473 11.355c.238.52.613.898 1.137 1.137l20.203 8.855.191.082L57.22 75.52l.215.054v12.653a2.274 2.274 0 0 0 1.402 2.097c.277.117.566.172.867.172h32.445l-.418.238a2.29 2.29 0 0 0-.707.575 2.29 2.29 0 0 0-.496 1.714 2.282 2.282 0 0 0 .891 1.543c.25.184.523.317.824.387.301.074.602.086.91.035.305-.05.586-.156.848-.324l7.758-4.473a2.335 2.335 0 0 0 .828-.832 2.31 2.31 0 0 0 .227-.547c.05-.19.074-.386.074-.585 0-.2-.024-.395-.075-.586a2.31 2.31 0 0 0-.585-1.02 2.335 2.335 0 0 0-.47-.36l-7.745-4.472a2.265 2.265 0 0 0-3.301 1.691c-.043.29-.027.575.043.86a2.243 2.243 0 0 0 .988 1.375l.418.238H62.012v-14.09l-3.477-.738-10.015-3.406-19.305-8.473L24.16 48.81l-1.137-3.067a2.21 2.21 0 0 0-.714-1.012l-3.407-2.78a2.233 2.233 0 0 0-.558-.329L2.957 35.387v75.062c0 .774.074 1.54.227 2.297.152.758.375 1.492.668 2.207a11.796 11.796 0 0 0 8.566 7.043c.758.152 1.52.23 2.293.23h35.547c.77 0 1.535-.078 2.293-.23a11.846 11.846 0 0 0 4.234-1.758 11.843 11.843 0 0 0 3.242-3.246c.426-.64.79-1.32 1.086-2.031a11.889 11.889 0 0 0 .898-4.5v-4.133c0-.3-.058-.59-.175-.871a2.17 2.17 0 0 0-.492-.734 2.17 2.17 0 0 0-.735-.493 2.235 2.235 0 0 0-.87-.171zm0 0"/></g><g clip-path="url(#c)"><path fill="#f9a92c" d="M146.047 104.059c-.3 0-.59.054-.871.171a2.17 2.17 0 0 0-.735.493 2.17 2.17 0 0 0-.492.734 2.24 2.24 0 0 0-.176.871v4.133a7.13 7.13 0 0 1-.546 2.762 7.245 7.245 0 0 1-1.563 2.344c-.336.331-.7.632-1.094.898a7.49 7.49 0 0 1-1.246.668c-.437.18-.887.316-1.351.41-.465.094-.934.14-1.41.14H101.02c-.473 0-.946-.046-1.41-.14a7.485 7.485 0 0 1-1.352-.41 7.49 7.49 0 0 1-1.246-.668 7.562 7.562 0 0 1-1.094-.899 7.248 7.248 0 0 1-1.973-3.695 7.436 7.436 0 0 1-.136-1.41V99.445c-1.637.235-3.153-.097-4.543-.988v11.992c0 .774.074 1.54.226 2.297a11.5 11.5 0 0 0 .668 2.207c.293.711.656 1.39 1.086 2.031.426.645.914 1.239 1.461 1.786a11.465 11.465 0 0 0 1.781 1.464 11.757 11.757 0 0 0 6.531 1.992h35.544a11.795 11.795 0 0 0 6.527-1.988c.644-.43 1.238-.918 1.781-1.465a11.585 11.585 0 0 0 1.461-1.78 11.795 11.795 0 0 0 1.758-4.238c.152-.759.226-1.52.226-2.294v-4.133c0-.3-.058-.59-.171-.871a2.29 2.29 0 0 0-.493-.734 2.186 2.186 0 0 0-.738-.493 2.202 2.202 0 0 0-.867-.171zm0 0"/></g><g clip-path="url(#d)"><path fill="#f9a92c" d="M136.563 13.207H101.02c-.774 0-1.536.078-2.293.23-.758.153-1.493.376-2.204.672-.714.297-1.39.66-2.03 1.09-.645.426-1.24.914-1.782 1.461a11.585 11.585 0 0 0-1.461 1.781 11.795 11.795 0 0 0-1.758 4.238c-.152.759-.226 1.52-.226 2.294v52.965c1.394-.876 2.91-1.2 4.543-.977V24.973c0-.473.046-.946.136-1.407a7.43 7.43 0 0 1 .41-1.355c.184-.438.403-.856.668-1.246.262-.395.563-.762.895-1.094.336-.336.7-.637 1.094-.898a6.956 6.956 0 0 1 1.246-.668 7.197 7.197 0 0 1 2.762-.555h1.043l1.683 3.406c.344.653.766 1.25 1.266 1.793a8.676 8.676 0 0 0 1.683 1.41c.621.399 1.285.711 1.989.938.703.226 1.421.36 2.16.402h15.898a8.504 8.504 0 0 0 2.16-.402 8.493 8.493 0 0 0 1.989-.938 8.452 8.452 0 0 0 1.687-1.41c.5-.543.926-1.14 1.27-1.793l1.683-3.406h1.043c.473 0 .942.047 1.406.14a7.232 7.232 0 0 1 3.688 1.984c.332.333.633.7.894 1.09.262.395.485.813.665 1.25.18.438.316.888.41 1.352.093.465.136.934.136 1.407v63.183c0 .305.059.594.176.871.113.278.278.524.492.739.211.21.457.375.735.492a2.274 2.274 0 0 0 2.477-.492 2.279 2.279 0 0 0 .664-1.61V24.973a11.795 11.795 0 0 0-7.254-10.863 11.795 11.795 0 0 0-4.5-.903zm-6.813 5.871a4.028 4.028 0 0 1-1.262 1.39 3.993 3.993 0 0 1-1.746.688h-15.898a4.05 4.05 0 0 1-1.778-.676 4.085 4.085 0 0 1-1.28-1.402l-.645-1.328h23.312zm0 0"/></g><path fill="#f9a92c" d="M106.707 76.406c.176.246.387.45.64.614a2.285 2.285 0 0 0 1.72.3c.292-.066.562-.187.808-.36l22.715-15.897a2.282 2.282 0 0 0 .918-2.352 2.324 2.324 0 0 0-.356-.813 2.282 2.282 0 0 0-2.351-.918 2.293 2.293 0 0 0-.813.356l-22.71 15.898c-.25.172-.458.387-.618.641a2.273 2.273 0 0 0-.328.828 2.312 2.312 0 0 0 .375 1.703zM111.977 66.012c.503 0 .96-.149 1.363-.453l9.086-6.813c.242-.18.437-.402.59-.66.156-.258.254-.54.296-.836a2.28 2.28 0 0 0-1.93-2.57 2.24 2.24 0 0 0-1.683.433l-9.086 6.813c-.39.293-.656.672-.804 1.14-.145.465-.141.93.015 1.395.153.465.43.84.824 1.125.399.285.84.426 1.329.426zM117.656 80.777c.504 0 .957-.152 1.364-.453l9.082-6.816a2.25 2.25 0 0 0 .836-2.379 2.256 2.256 0 0 0-1.875-1.684 2.26 2.26 0 0 0-1.684.43l-9.086 6.813a2.22 2.22 0 0 0-.805 1.14 2.24 2.24 0 0 0 .012 1.395c.156.465.43.84.828 1.125.395.285.84.43 1.328.43zm0 0"/><g clip-path="url(#e)"><path fill="#f9a92c" d="m21.266 39.484 7.187 5.793 1.758 5.008 1.875 5.567a2.203 2.203 0 0 0 1.137 1.328l16.297 7.597.25.102 8.675 2.84.215.054 3.352.739v-43.54a11.889 11.889 0 0 0-.899-4.5c-.297-.71-.66-1.39-1.086-2.03-.43-.641-.918-1.235-1.46-1.782a11.815 11.815 0 0 0-3.813-2.55 11.846 11.846 0 0 0-4.496-.903H14.71c-.77 0-1.535.078-2.293.23-.758.153-1.492.376-2.203.672-.715.297-1.39.66-2.031 1.09-.641.426-1.235.914-1.782 1.461a11.796 11.796 0 0 0-2.547 3.813 11.5 11.5 0 0 0-.667 2.207c-.153.758-.231 1.52-.231 2.293v6.812zm22.87-21.734-.66 1.328a4.024 4.024 0 0 1-1.277 1.399 4.029 4.029 0 0 1-1.765.68H24.535a4.035 4.035 0 0 1-1.773-.677 4.047 4.047 0 0 1-1.282-1.402l-.648-1.328zM7.5 24.973c0-.473.047-.946.14-1.407.09-.464.227-.918.41-1.355.18-.438.403-.856.665-1.246.262-.395.562-.762.898-1.094.332-.336.7-.637 1.09-.898a6.956 6.956 0 0 1 1.246-.668 7.147 7.147 0 0 1 2.762-.555h1.047l1.68 3.406a8.562 8.562 0 0 0 2.953 3.203c.62.399 1.28.711 1.984.938.703.226 1.422.36 2.16.402h15.899a8.472 8.472 0 0 0 2.16-.402 8.595 8.595 0 0 0 3.676-2.348c.5-.543.925-1.14 1.273-1.793l1.68-3.406h1.047c.472 0 .94.047 1.402.14a7.232 7.232 0 0 1 3.688 1.984 7.248 7.248 0 0 1 1.563 2.34c.179.438.315.888.405 1.352.094.465.14.934.14 1.407v37.644l-6.167-2.02-15.219-7.109-1.578-4.68-1.984-5.68a2.236 2.236 0 0 0-.72-1.007l-7.948-6.394a2.143 2.143 0 0 0-.555-.329L7.82 29.004l-.32-.149zm0 0"/></g></svg>