<svg xmlns="http://www.w3.org/2000/svg" width="100" height="100" version="1.0" viewBox="0 0 75 75"><defs><clipPath id="a"><path d="M.898 1.05h73.5v73.5H.898Zm0 0"/></clipPath></defs><g clip-path="url(#a)"><path fill="#f9a92c" d="M74.164 37.684c0 20.23-16.398 36.632-36.633 36.632-20.23 0-36.633-16.402-36.633-36.632 0-20.23 16.403-36.633 36.633-36.633 20.235 0 36.633 16.402 36.633 36.633"/></g><path fill="#1f4482" d="M22.39 54.504a3.888 3.888 0 0 1-2.746-6.637l10.184-10.183-10.183-10.188A3.885 3.885 0 0 1 25.137 22L40.82 37.684 25.137 53.367a3.875 3.875 0 0 1-2.746 1.137"/><path fill="#1f4482" d="M43.11 54.504a3.884 3.884 0 0 1-2.75-1.137 3.895 3.895 0 0 1 0-5.5l10.19-10.183-10.19-10.188a3.89 3.89 0 0 1 0-5.496 3.895 3.895 0 0 1 5.5 0l15.683 15.684-15.684 15.683a3.877 3.877 0 0 1-2.75 1.137"/></svg>