<svg width="99" height="63" viewBox="0 0 99 63" fill="none" xmlns="http://www.w3.org/2000/svg">
<path d="M98.7959 61.4089C98.7235 60.9167 98.311 60.5404 97.8115 60.5332C96.0163 60.5042 91.6513 59.9252 87.2502 55.5248C81.0249 49.3006 78.0932 48.2078 74.2422 48.2078C70.0076 48.2078 65.3892 50.4948 61.2342 54.6491C57.0285 58.8541 53.7856 60.4897 49.6667 60.4897C45.4538 60.4897 41.1612 56.8276 38.9751 54.6491C36.7456 52.42 31.1573 48.2078 25.9672 48.2078C21.4936 48.2078 17.1649 51.4719 13.683 54.0918L13.0678 54.555C12.4018 55.0544 11.7648 55.5827 11.1495 56.0966C8.60868 58.2172 6.19095 60.2292 1.47131 60.468C0.935642 60.497 0.508545 60.9457 0.508545 61.4813C0.508545 62.0675 1.00082 62.5307 1.58715 62.5018C6.98724 62.2195 9.88269 59.8022 12.4524 57.6599C13.075 57.1388 13.6613 56.6466 14.2839 56.1834L14.9064 55.713C18.1421 53.274 22.1668 50.2415 25.9599 50.2415C29.6734 50.2415 34.6898 53.2523 37.5274 56.0821C39.9306 58.485 44.7082 62.5235 49.6595 62.5235C54.3212 62.5235 58.0926 60.6562 62.6674 56.0821C66.4388 52.3114 70.5432 50.2415 74.235 50.2415C77.1594 50.2415 79.5482 50.7119 85.8024 56.9651C90.6886 61.8576 95.5964 62.5452 97.7825 62.5741C98.405 62.5886 98.89 62.0313 98.7959 61.4089Z" fill="#FFD66B"/>
<path d="M98.7959 37.5832C98.7235 37.0911 98.311 36.7147 97.8115 36.7075C96.0163 36.6785 91.6513 36.0995 87.2502 31.6992C81.0249 25.4749 78.0932 24.3821 74.2422 24.3821C70.0076 24.3821 65.3892 26.6691 61.2342 30.8234C57.0285 35.0284 53.7856 36.664 49.6667 36.664C45.4538 36.664 41.1612 33.0019 38.9751 30.8234C36.7456 28.5943 31.1573 24.3821 25.9672 24.3821C21.4936 24.3821 17.1649 27.6462 13.683 30.2661L13.0678 30.7293C12.4018 31.2287 11.7648 31.7571 11.1495 32.2709C8.60868 34.3915 6.19095 36.4035 1.47131 36.6423C0.935642 36.6713 0.508545 37.12 0.508545 37.6556C0.508545 38.2418 1.00082 38.705 1.58715 38.6761C6.98724 38.3938 9.88269 35.9765 12.4524 33.8342C13.075 33.3131 13.6613 32.821 14.2839 32.3578L14.9064 31.8873C18.1421 29.4483 22.1668 26.4158 25.9599 26.4158C29.6734 26.4158 34.6898 29.4266 37.5274 32.2564C39.9306 34.6593 44.7082 38.6978 49.6595 38.6978C54.3212 38.6978 58.0926 36.8305 62.6674 32.2564C66.4388 28.4857 70.5432 26.4158 74.235 26.4158C77.1594 26.4158 79.5482 26.8862 85.8024 33.1394C90.6886 38.0247 95.5964 38.7123 97.7825 38.7484C98.405 38.7629 98.89 38.2056 98.7959 37.5832Z" fill="#FFD66B"/>
<path d="M1.58654 14.8575C6.98663 14.5752 9.88208 12.1579 12.4518 10.0156C13.0744 9.4945 13.6607 9.00236 14.2832 8.53916L14.9058 8.06872C18.1415 5.6297 22.1662 2.5972 25.9593 2.5972C29.6728 2.5972 34.6892 5.60799 37.5268 8.43783C39.93 10.8407 44.7076 14.8792 49.6589 14.8792C54.3206 14.8792 58.092 13.0119 62.6668 8.43783C66.4382 4.66712 70.5426 2.5972 74.2344 2.5972C77.1588 2.5972 79.5476 3.06764 85.8018 9.3208C90.688 14.2061 95.5958 14.8936 97.7819 14.9298C98.4044 14.9371 98.8894 14.3798 98.7953 13.7646C98.7229 13.2725 98.3103 12.8961 97.8109 12.8889C96.0157 12.8599 91.6507 12.2809 87.2496 7.88055C81.0243 1.65633 78.0926 0.563477 74.2416 0.563477C70.0069 0.563477 65.3886 2.85051 61.2336 7.00481C57.0279 11.2098 53.785 12.8454 49.6661 12.8454C45.4532 12.8454 41.1606 9.18329 38.9745 7.00481C36.745 4.77568 31.1567 0.563477 25.9666 0.563477C21.493 0.563477 17.1642 3.82757 13.6824 6.44753L13.0671 6.91073C12.4012 7.41011 11.7642 7.93845 11.1489 8.45231C8.60807 10.5729 6.19034 12.5849 1.4707 12.8237C0.935032 12.8527 0.507935 13.3014 0.507935 13.837C0.507935 14.4232 1.00744 14.8864 1.58654 14.8575Z" fill="#FFD66B"/>
</svg>
