<svg xmlns="http://www.w3.org/2000/svg" width="500" height="500" version="1.0" viewBox="0 0 375 375"><defs><clipPath id="a"><path d="M12.656 80h349.5v295h-349.5Zm0 0"/></clipPath></defs><path fill="#f7a828" d="M308.5 70.023 187.125 0 67.922 71.598l119.129 68.37Zm0 0"/><g clip-path="url(#a)"><path fill="#f7a828" d="m187.125 181.727-.973 102.558-.078 4.426-8.172-112.531L13.195 80.969l-.449-.227v191.25c15.442 8.469 30.66 17.39 45.805 26.313-11.844 24.89-26.465 48.355-37.711 73.547 31.414-11.098 62.078-24.442 93.265-36.137 5.922-3.149 11.395 1.2 16.493 3.973 5.246 3.148 10.57 6.222 15.82 9.296L187.125 375l174.832-102.633h.074l.223-191.472c-58.55 33.21-116.879 67.02-175.129 100.832m100.61 58.628c-5.024 0-9.372-3.074-11.32-7.421-.677-1.5-.974-3.153-.974-4.95 0-6.824 5.547-12.37 12.368-12.37 1.425 0 2.851.226 4.125.75 4.796 1.648 8.171 6.222 8.171 11.62-.074 6.82-5.546 12.371-12.37 12.371m0 0"/></g><path fill="#043778" d="M156.62 81.187q-6.002 0-9.39-3.11-3.375-3.105-3.375-9.094v-8.859h8.36v7.375c0 2.156.445 3.688 1.343 4.594.907.898 2.492 1.343 4.766 1.343h4.562V60.125h8.297v28.875h-8.36v-7.812ZM188.63 89.546q-5.128 0-8.094-2.39-2.969-2.391-2.968-6.579c0-2.676.882-4.812 2.656-6.406q2.671-2.39 7.187-2.39h10.453v-1.313q0-2.155-1.546-3.438-1.534-1.296-4.016-1.297-2.033 0-3.469.938-1.424.939-1.812 2.469h-8.016q.763-4.718 4.25-7.25 3.498-2.532 9-2.532c4.32 0 7.703 1.094 10.14 3.282 2.438 2.18 3.657 5.171 3.657 8.984v17.375h-6.203l-.938-3.36c-2.53 2.606-5.96 3.907-10.28 3.907m-2.812-9.297q-.001 1.487 1.28 2.406 1.296.907 3.454.906c2.082 0 3.812-.601 5.187-1.812q2.062-1.828 2.172-4.734h-7.906q-1.876.001-3.031.875c-.774.586-1.156 1.37-1.156 2.359M220.572 88.999V67.827h-9.953v-7.703h28.22v7.703h-9.907V89Zm0 0"/><path fill="#24265d" d="M126.005 316.978q-.89-.002-1.547-.296-.657-.31-1.015-.86-.347-.544-.36-1.281h.938q.012.72.562 1.14c.375.274.848.407 1.422.407q.796.002 1.25-.313a.98.98 0 0 0 .469-.86q0-.526-.453-.843-.44-.311-1.453-.547-1.377-.328-2.016-.843c-.43-.344-.64-.805-.64-1.391 0-.625.238-1.117.718-1.484q.717-.563 1.953-.563c.832 0 1.493.211 1.985.625q.733.628.734 1.719h-.922q-.018-.67-.5-1.063-.487-.389-1.297-.39-.797 0-1.25.312-.454.316-.453.844 0 .47.422.781.421.316 1.5.578 1.435.347 2.031.875.61.534.61 1.36 0 .97-.735 1.53-.72.563-1.953.563M137.176 316.838v-7.453h4.516v.875h-3.578v2.343h3.312v.86h-3.312v2.5h3.703v.875ZM150.348 316.838v-7.453h2.844q.762.001 1.343.297.575.282.891.812.328.532.328 1.281 0 .909-.469 1.5-.47.598-1.296.797l1.89 2.766h-1.14l-1.813-2.672h-1.64v2.672Zm.937-3.563h1.797q.81 0 1.266-.39.452-.389.453-1.11 0-.715-.453-1.11c-.305-.257-.727-.39-1.266-.39h-1.797ZM166.412 316.838l-2.969-7.453h1l1.235 3.14 1.172 2.953 1.156-2.953 1.25-3.14h.984l-2.953 7.453ZM178.266 316.838v-7.453h.937v7.453ZM191.425 316.978a4 4 0 0 1-1.515-.28 3.8 3.8 0 0 1-1.204-.813 3.7 3.7 0 0 1-.78-1.22c-.18-.476-.266-1-.266-1.562s.085-1.078.265-1.546c.188-.47.445-.875.781-1.22q.514-.515 1.204-.796c.457-.195.96-.297 1.515-.297q.889 0 1.625.328.732.315 1.266.922.528.596.781 1.422h-1.016a2.4 2.4 0 0 0-1-1.266q-.703-.468-1.625-.468-.83 0-1.468.375c-.43.242-.766.585-1.016 1.03-.242.438-.36.946-.36 1.516 0 .586.118 1.094.36 1.532q.373.655 1.016 1.03.637.375 1.468.376.95.001 1.688-.484a2.57 2.57 0 0 0 1.016-1.344h1a3.7 3.7 0 0 1-.782 1.453q-.534.628-1.297.969c-.5.226-1.054.343-1.656.343M203.566 316.838v-7.453h4.516v.875h-3.578v2.343h3.312v.86h-3.312v2.5h3.703v.875ZM216.738 316.838v-7.453h2.875c.719 0 1.29.18 1.719.53q.656.535.656 1.438c0 .368-.09.688-.266.97a1.75 1.75 0 0 1-.703.64q.576.234.875.703.296.457.297 1.078 0 .97-.656 1.531-.645.563-1.781.563Zm.937-.875h2.063q.716 0 1.11-.328c.257-.22.39-.524.39-.922 0-.406-.133-.711-.39-.922q-.393-.328-1.126-.328h-2.047Zm0-3.36h1.922q.685.001 1.047-.296.375-.312.375-.875 0-.561-.375-.86-.362-.311-1.047-.312h-1.922ZM234.008 316.978c-.75 0-1.418-.164-2-.5a3.5 3.5 0 0 1-1.36-1.359q-.484-.873-.484-2.016-.001-1.137.485-2a3.4 3.4 0 0 1 1.36-1.359q.873-.499 2-.5 1.136.001 2.015.5a3.45 3.45 0 0 1 1.36 1.36q.498.862.5 2-.002 1.142-.5 2.015a3.55 3.55 0 0 1-1.36 1.36q-.879.501-2.016.5m-2.89-3.875c0 .586.117 1.094.359 1.532q.375.655 1.031 1.03.657.375 1.5.376.872 0 1.516-.375a2.63 2.63 0 0 0 1.015-1.031q.375-.655.375-1.532 0-.874-.375-1.53a2.54 2.54 0 0 0-1.015-1.016q-.644-.375-1.516-.375-.843 0-1.5.375a2.63 2.63 0 0 0-1.031 1.015q-.361.658-.36 1.531M245.64 316.838l2.655-3.813-2.547-3.64h1.11l2.047 2.937.625-.937 1.39-2h1.094l-2.547 3.625 2.688 3.828h-1.11l-1.53-2.203-.61-.89-2.14 3.093Zm0 0"/></svg>